<?xml version="1.0" encoding="UTF-8"?><svg id="a" xmlns="http://www.w3.org/2000/svg" width="239.87182" height="164.56468" viewBox="0 0 239.87182 164.56468"><g><g><path d="M25.59369,114.70259c-4.70361,0-8.31445-1.21533-10.73242-3.61182-2.42285-2.3999-3.65137-6.35791-3.65137-11.76318,0-1.38721,.31006-2.87646,.9209-4.42676,.60596-1.53711,1.49219-2.9707,2.63281-4.26172,1.146-1.29785,2.54639-2.38232,4.1626-3.22266,1.6665-.86719,3.57617-1.30664,5.67627-1.30664,.49268,0,.94775,.05762,1.36279,.16943-.51709-.96338-1.0625-1.82715-1.62695-2.57617-.76514-1.01172-1.48633-1.9248-2.1416-2.71191-.71143-.85303-1.31104-1.63916-1.78125-2.33643-.61475-.90723-.92725-1.85742-.92725-2.8208,0-1.33984,.54004-2.55957,1.60498-3.62549,.88623-.88574,1.96582-1.65576,3.20947-2.2876,1.19043-.60547,2.44531-1.10107,3.72949-1.47363,1.2832-.37305,2.396-.60645,3.30664-.69434l.07129-.00684h.07227c1.39014,0,2.71436,.49219,3.93555,1.46289,1.0791,.85889,2.07422,2.00439,2.95801,3.40479,.84863,1.34619,1.61963,2.92725,2.2915,4.69971,.65723,1.73193,1.23389,3.57178,1.71338,5.46924,.479,1.89844,.84375,3.85303,1.0835,5.81055,.23926,1.95361,.36084,3.83936,.36084,5.60449,0,2.2998-.33203,4.66113-.9873,7.01855-.66748,2.39844-1.73633,4.61914-3.17627,6.60107-1.46387,2.0166-3.37451,3.68213-5.67871,4.9502-2.33203,1.28418-5.15479,1.93506-8.38916,1.93506Zm2.61572-21.94873c-.0918,.16943-.19434,.33496-.30811,.49707-.41406,.5918-.86816,1.22314-1.36084,1.89355-.43457,.59131-.84375,1.2583-1.21484,1.98193-.29639,.5791-.44678,1.31982-.44678,2.20117,0,.36279,.05762,.81641,.1709,1.34863,.11719,.55322,.28467,1.08936,.49854,1.5957,.19092,.45752,.42041,.8418,.68408,1.146,.10645,.12305,.14746,.12305,.17773,.12305,.50586,0,.96924-.67529,1.26855-1.2417,.6001-1.13525,.9043-2.78223,.9043-4.89551,0-1.69629-.12549-3.25439-.37354-4.6499Z" style="fill:#fff;"/><path d="M31.48241,69.24606c1.04883,0,2.04883,.37939,3.00195,1.13721,.95215,.75781,1.82617,1.76855,2.62305,3.03125,.79688,1.26367,1.5166,2.74023,2.15723,4.43066,.6416,1.69043,1.19531,3.45947,1.66211,5.30518,.46582,1.84619,.81543,3.72168,1.04883,5.62549,.2334,1.90479,.34961,3.71191,.34961,5.42188,0,2.17676-.31152,4.38232-.93262,6.6167-.62207,2.23535-1.60352,4.27588-2.94434,6.12109-1.34082,1.84668-3.07031,3.35205-5.18848,4.51807s-4.67383,1.74902-7.66602,1.74902c-4.31348,0-7.54004-1.05957-9.67676-3.17725-2.1377-2.11768-3.20703-5.68408-3.20703-10.69775,0-1.2041,.27246-2.49658,.81641-3.87646,.54395-1.37939,1.33105-2.65283,2.36133-3.81836,1.0293-1.16602,2.27344-2.12793,3.73047-2.88574,1.45801-.7583,3.11914-1.13721,4.98438-1.13721,1.78809,0,2.68262,.95312,2.68262,2.85693,0,.69922-.2041,1.34082-.6123,1.92383s-.85547,1.20508-1.34082,1.86523c-.48633,.66162-.93262,1.39014-1.34082,2.18604-.4082,.79736-.6123,1.75928-.6123,2.88574,0,.4668,.06738,1.02051,.2041,1.66162,.13574,.64111,.3291,1.26367,.58301,1.86572,.25195,.60303,.5625,1.11768,.93262,1.54492,.36914,.42773,.80566,.64111,1.31152,.64111,1.01074,0,1.875-.67969,2.59473-2.04053,.71875-1.35986,1.07812-3.22559,1.07812-5.59668,0-2.33154-.22363-4.40137-.6709-6.2085s-1.01074-3.40039-1.69043-4.78027c-.68066-1.37939-1.40918-2.58447-2.18555-3.61475-.77832-1.0293-1.50684-1.95264-2.18652-2.76904-.68066-.81592-1.24414-1.55371-1.69043-2.21533-.44727-.66016-.6709-1.3208-.6709-1.98193,0-.93262,.38867-1.78711,1.16602-2.56494,.77734-.77734,1.71973-1.44775,2.82812-2.01123,1.10742-.56299,2.2627-1.02051,3.46777-1.37012,1.20508-.3501,2.21582-.56299,3.03223-.6416m0-3h-.1441l-.14343,.01381c-1.01727,.09795-2.18884,.34227-3.58165,.7469-1.37334,.39842-2.71625,.92903-3.99034,1.57675-1.38446,.70381-2.59229,1.56653-3.58992,2.56418-1.33789,1.33871-2.04469,2.95897-2.04469,4.68625,0,1.26889,.39944,2.50185,1.18724,3.66463,.50227,.74461,1.11522,1.54912,1.87045,2.45441,.63852,.76697,1.34479,1.66159,2.09726,2.65671l.04672,.06238c-1.7966,.16112-3.45856,.63458-4.95605,1.41344-1.78012,.92583-3.32619,2.12424-4.59529,3.56192-1.25557,1.42038-2.23277,3.00328-2.90309,4.7032-.68056,1.72641-1.02556,3.40079-1.02556,4.97697,0,5.90244,1.33972,10.09883,4.0957,12.82903,2.70871,2.68456,6.67494,4.04597,11.78809,4.04597,3.49022,0,6.55618-.71358,9.11273-2.12091,2.49864-1.37546,4.57431-3.18677,6.16936-5.38358,1.54492-2.1261,2.69141-4.50826,3.40691-7.07939,.6918-2.48875,1.04245-4.98526,1.04245-7.42101,0-1.82597-.12512-3.7729-.37187-5.78674-.24759-2.01956-.62364-4.03635-1.11772-5.99455-.49428-1.95435-1.08836-3.84995-1.76619-5.63579-.70671-1.86484-1.52258-3.53622-2.42441-4.96634-.9744-1.54399-2.08194-2.81491-3.29242-3.77832-1.4942-1.18802-3.13235-1.78992-4.87016-1.78992h0Zm-4.83534,34.63963c-.04912-.17055-.09216-.34323-.12914-.51787-.12109-.56786-.13904-.89523-.13904-1.04022,0-.64127,.09512-1.15222,.28271-1.51865,.13474-.26271,.27481-.51691,.41945-.76135,.00128,.11795,.00194,.23668,.00194,.35617,0,1.65125-.20041,2.75505-.43593,3.48192h0Z"/></g><g><path d="M53.57611,86.71968c-.91846,0-1.85791-.06348-2.79248-.18799-1.09912-.14648-2.10693-.521-2.99463-1.11328-.91846-.6123-1.66846-1.49365-2.22998-2.61914-.55664-1.11182-.82764-2.51367-.82764-4.28369,0-1.33838,.22656-2.63867,.67383-3.86572,.43262-1.19287,.99805-2.27686,1.6792-3.2207,.70752-.98291,1.53125-1.77979,2.44629-2.3667,1.00146-.6416,2.02881-.96631,3.05518-.96631,.94287,0,2.02979,.20557,3.32227,.62793,1.21631,.39941,2.40234,.91797,3.52686,1.54248,1.15381,.6416,2.15771,1.36328,2.98486,2.146,1.04639,.99316,1.57617,2.04541,1.57617,3.12988,0,.72998-.30664,1.7876-1.76855,2.6792-.24414,.1333-.58789,.40381-.98438,1.19775-.4585,.91699-.96973,1.87939-1.51953,2.86084-.61426,1.0957-1.35938,2.07373-2.21533,2.90674-1.04297,1.0166-2.36621,1.53271-3.93213,1.53271Z" style="fill:#fff;"/><path d="M52.58592,69.59616c.77637,0,1.72852,.18506,2.85645,.55371,1.12598,.36963,2.21484,.84521,3.26465,1.42822,1.04883,.58301,1.94238,1.22412,2.68164,1.92383,.7373,.69971,1.10742,1.37988,1.10742,2.04053,0,.50537-.34961,.97168-1.0498,1.39893-.58301,.31152-1.09863,.91406-1.54492,1.80762-.44727,.89453-.94238,1.82715-1.48633,2.79785-.54492,.97217-1.19531,1.82764-1.95312,2.56543-.75781,.73877-1.71973,1.10742-2.88574,1.10742-.85547,0-1.71973-.05811-2.59375-.1748-.875-.1167-1.66211-.4082-2.36133-.87451s-1.27344-1.146-1.71973-2.04053c-.44727-.89355-.66992-2.09863-.66992-3.61426,0-1.16602,.19336-2.28271,.58301-3.35205,.3877-1.06836,.88281-2.02051,1.48633-2.85645,.60156-.83545,1.28223-1.49609,2.04004-1.98242,.75781-.48535,1.50586-.72852,2.24512-.72852m0-3c-1.31779,0-2.61754,.40448-3.86311,1.20224-1.0769,.6911-2.03723,1.61777-2.8566,2.75572-.76038,1.05321-1.3909,2.26077-1.87183,3.58604-.50581,1.38812-.76295,2.86147-.76295,4.37543,0,2.00847,.32294,3.62994,.98723,4.95708,.67793,1.35883,1.59969,2.43449,2.7379,3.19357,1.07986,.72017,2.30092,1.17516,3.62924,1.35231,.99947,.13345,2.00571,.20114,2.99036,.20114,1.94307,0,3.66508-.67751,4.9799-1.95929,.95776-.93246,1.79126-2.02528,2.47589-3.2467,.56158-1.00217,1.08391-1.98552,1.55269-2.92308,.16782-.33598,.2926-.48743,.33841-.53693l.01266-.00676,.0732-.04466c2.16405-1.32048,2.48717-3.04774,2.48717-3.95982,0-1.51187-.68713-2.93054-2.04231-4.21661-.92087-.87158-2.02655-1.66801-3.28922-2.36987-1.20845-.67111-2.48207-1.22824-3.7865-1.65645-1.4493-.47368-2.68849-.70335-3.79213-.70335h0Z"/></g><g><path d="M117.23529,114.93599c-1.29492,0-2.58643-.17529-3.83838-.521-1.33936-.36963-2.5459-1.01416-3.58594-1.91504-.56885-.49316-1.07812-1.07568-1.52393-1.74219-1.50146,1.04443-3.13135,1.93018-4.85303,2.63721-2.01953,.8291-3.92725,1.24951-5.67041,1.24951-1.50879,0-2.89307-.36377-4.11279-1.08154-1.16699-.68604-2.17383-1.61084-2.99316-2.74854-.33301-.4624-.63428-.95557-.90186-1.47607-.60938,.80127-1.3833,1.5376-2.31494,2.20068-1.4165,1.00928-3.25195,1.83008-5.4541,2.43896-2.16406,.59668-4.7207,.89941-7.6001,.89941-1.55566,0-3.29053-.09033-5.15674-.26904-1.96533-.18799-3.83643-.646-5.56104-1.36084-1.53809-.6377-2.87793-1.55664-3.99365-2.73828-1.56689,1.09912-3.21338,2.04248-4.89648,2.80615-1.88525,.85498-3.47998,1.27051-4.87549,1.27051-1.69727,0-3.15137-.28516-4.32129-.84717-1.23193-.59131-2.22852-1.49854-2.96191-2.69678-.68408-1.11719-1.16455-2.53906-1.42725-4.2251-.24414-1.5625-.36768-3.43506-.36768-5.56543,0-1.62549,.14404-3.31641,.42871-5.02637,.2915-1.74854,.75781-3.3667,1.38623-4.81152,.66943-1.54004,1.57422-2.81641,2.68896-3.79443,1.22949-1.07861,2.74902-1.62549,4.5166-1.62549,2.20752,0,3.90723,.26855,5.1958,.82031,1.31738,.56494,2.29053,1.23291,2.97461,2.04346,.70166,.83203,1.12793,1.69531,1.26758,2.56641,.11475,.71387,.16553,1.17334,.16553,1.49121,0,.44189-.03809,.86865-.11377,1.26953-.07227,.38428-.18994,.81055-.34912,1.26611-.14404,.40918-.31641,.86621-.51953,1.37402-.18994,.4751-.41846,1.07471-.68408,1.79688-.24219,.66553-.41162,1.34033-.50342,2.00586,.1709-.16016,.34521-.32422,.52197-.4917,.03809-.09863,.07666-.19189,.11816-.28516,.47461-1.05615,1.0376-2.00342,1.67334-2.81689,.65381-.8335,1.34033-1.50488,2.04102-1.99561,.87354-.61084,1.55225-.88281,2.20117-.88281,.23584,0,.47852,.02246,.73047,.06738-.01514-.06152-.02881-.12354-.0415-.18506-.29443-1.4707-.17676-2.84424,.34814-4.09326,.51514-1.22656,1.38184-2.28369,2.57568-3.14355,1.10986-.7998,2.50635-1.43604,4.1499-1.89014,1.60059-.44189,3.44092-.66602,5.4707-.66602,1.71436,0,3.31689,.13574,4.7627,.4043,1.30713,.24268,2.50049,.5835,3.55566,1.01416,.15527-1.4751,1.02539-2.57617,2.48975-3.12891,.96143-.3623,2.14893-.57715,3.60742-.65088,.12695-.53857,.27734-1.15283,.45312-1.84277,.33057-1.29883,.7583-2.56055,1.27148-3.75098,.53906-1.25146,1.21387-2.36621,2.00537-3.3125,.98047-1.17188,2.2251-1.79102,3.59863-1.79102,1.05322,0,2.22705,.20264,3.58789,.61963,1.3125,.40283,2.57764,.96045,3.76123,1.65723,1.20654,.71094,2.25195,1.5376,3.10693,2.45703,1.021,1.1001,1.53809,2.30664,1.53809,3.58691,0,.46094-.09375,.99365-.29443,1.67627-.05811,.1958-.1377,.41357-.23877,.65576,.38037,.12793,.66553,.31201,.86572,.47803,.41406,.34668,.73877,.78564,.96826,1.30859,.18701,.42822,.32031,.87988,.39844,1.34619,.05078,.31006,.10938,.59814,.17822,.86914l.04639,.18213v.08838c.03809,.16064,.05762,.33154,.05762,.50781,0,.86768-.15625,1.75098-.46387,2.62598-.30029,.85352-.70117,1.62988-1.19189,2.30615-.49805,.68945-1.06348,1.26465-1.67969,1.70703-.74365,.53564-1.51855,.80713-2.30322,.80713-.64355,0-1.19873-.06396-1.69629-.19629-.04736-.01221-.10449-.02637-.17285-.04248-.15283,.53906-.29785,1.09229-.43359,1.65527-.2417,1.00342-.45068,2.00293-.62158,2.96973-.16748,.95166-.28955,1.84082-.36182,2.64307-.07422,.80811-.11133,1.48779-.11133,2.02246,0,.08057,.00049,.15527,.00195,.22461,.20508-.13623,.4585-.32715,.75684-.5708,.39941-.32764,.92285-.79492,1.55225-1.38721,.09814-.09912,.34033-.36426,.75342-.88574,.25098-1.02832,.61133-2.04639,1.07373-3.03174,.95459-2.03369,2.22754-3.91748,3.78418-5.59961,1.55615-1.68018,3.32764-3.08203,5.26611-4.1665,2.02539-1.13232,4.10547-1.70654,6.18262-1.70654,.14551,0,.29297,.00342,.44092,.01074,.0918-.38086,.22705-.75146,.40381-1.10547,.26904-.53906,.64746-1.00928,1.12354-1.39648,.58398-.47461,1.35352-.71533,2.2876-.71533,1.02148,0,2.14697,.20557,3.43945,.62793,1.22021,.40088,2.38037,.9126,3.45166,1.521,1.08936,.61914,2.03955,1.30859,2.82471,2.0498,1.00879,.95361,1.51953,1.94775,1.51953,2.95605,0,.95752-.12646,2.65674-.38672,5.1958-.16846,1.64209-.52441,3.57812-1.06299,5.78369,.10791-.10742,1.16992-1.19971,1.16992-1.19971,.06836-1.53369,.25049-3.05566,.54248-4.53271,.38965-1.96143,.90869-3.7334,1.54395-5.26709,.66016-1.59912,1.45215-2.93457,2.354-3.96826,1.08984-1.25,2.30371-1.88379,3.60791-1.88379,.83496,0,1.8042,.07275,2.88037,.2168,1.09619,.14844,2.15283,.38379,3.14258,.69922,1.06299,.33984,1.99072,.79492,2.7583,1.35254,.77148,.56152,1.18311,1.18262,1.39062,1.75684,.52979-.29346,1.06104-.55518,1.59326-.78418,1.85254-.79736,3.54297-1.20117,5.02393-1.20117,.69678,0,1.48633,.09668,2.41455,.2959,.9375,.20117,1.83691,.52002,2.67139,.94775,.89062,.45898,1.6582,1.05713,2.28516,1.78027,.74707,.8623,1.125,1.87891,1.125,3.02344,0,.6084-.08252,1.2793-.25098,2.02832,.09375-.19287,.19287-.3833,.29736-.57129,.95508-1.71484,2.27002-3.20703,3.90869-4.43506,1.60352-1.20312,3.48975-2.15332,5.60645-2.82422,2.10107-.66553,4.36182-1.00293,6.71973-1.00293,.875,0,1.87305,.07324,2.96533,.2168,1.2168,.16162,2.36914,.54639,3.42627,1.14307,1.10986,.62695,2.0459,1.54541,2.78174,2.72998,.46777,.75537,.79102,1.66162,.96875,2.70801,.6416-.93164,1.40771-1.7793,2.29199-2.5332,1.46387-1.24902,3.27393-2.22803,5.37988-2.90918,2.06543-.66699,4.42676-1.00537,7.01904-1.00537,3.34326,0,6.06445,.75488,8.08887,2.24414,2.16602,1.59668,3.26367,3.79736,3.26367,6.54297,0,1.05518-.22852,2.09229-.68018,3.09326,.12109-.14014,.24023-.28076,.35693-.42236,.38184-.54443,.98535-.70801,1.19971-.7666,.34912-.09521,.63184-.13965,.88818-.13965,1.27344,0,2.24463,.15674,2.97021,.47852,.62744,.2793,1.67822,1.0249,1.67822,2.88672,0,1.7085-.65137,3.49951-1.93555,5.32373-1.19434,1.69727-2.74707,3.26318-4.61523,4.65332-1.84375,1.37354-3.91943,2.52588-6.16895,3.42529-2.30713,.92188-4.63232,1.38965-6.91113,1.38965-2.37988,0-4.52539-.34473-6.37549-1.02441-1.88574-.69287-3.49805-1.68945-4.79102-2.96289-.42969-.42188-.83105-.88428-1.20166-1.3833-1.05371,.87598-2.19922,1.68701-3.41406,2.41699-1.45264,.87012-3.00391,1.58301-4.61279,2.11914-1.66455,.55371-3.37354,.83447-5.07959,.83447-4.55518,0-8.25293-1.22461-10.99023-3.63965-.53662-.47314-1.02783-1.00635-1.46973-1.59521-.33789,.28125-.68408,.55566-1.03613,.82178-1.58203,1.19727-3.29297,2.24854-5.0835,3.12402-1.91064,.93311-3.70117,1.40576-5.32275,1.40576-2.72705,0-4.98877-.55957-6.72266-1.6626-.25781-.16406-.5249-.36035-.78906-.59375-1.0874,1.96484-4.60303,1.96484-5.89648,1.96484-1.61768,0-3.05615-.24023-4.2749-.71436-1.31787-.51221-2.41602-1.3623-3.26318-2.52637-.16699-.229-.32568-.47412-.47607-.73438-.68945,.5498-1.39941,1.05322-2.12256,1.50391-1.09961,.68457-2.21973,1.25488-3.33008,1.69531-1.20215,.47607-2.35938,.71777-3.43848,.71777-.85205,0-1.6958-.06494-2.50781-.19385-.85645-.13428-1.6665-.3667-2.40674-.68945-.77197-.3374-1.46094-.78125-2.04688-1.31982-.06348-.05811-.125-.11768-.18506-.17871-.0752,.06689-.15186,.13232-.22998,.19775-.64697,.53955-1.33643,1.021-2.04883,1.43066-.71631,.41211-1.45703,.75439-2.20068,1.01709-.78662,.27734-1.54785,.44238-2.26367,.49072l-.05078,.00342h-.05078Zm68.15186-13.02393c.12256,.23926,.26172,.45801,.41748,.65625,.63818,.81152,1.68262,1.20605,3.19336,1.20605,1.05859,0,2.02295-.19824,2.86719-.58984,.43701-.20215,.85693-.43994,1.25732-.71143-.66309,.22363-1.3418,.33691-2.0249,.33691-.48193,0-1.02344-.00928-1.62549-.03027-.64551-.021-1.30078-.08643-1.94531-.19434-.71094-.11768-1.38916-.32422-2.01465-.61377-.04199-.01904-.0835-.03906-.125-.05957Zm-115.16699,1.74658c.20312,.03271,.47754,.05713,.84424,.05713,.61328,0,.92041-.08203,1.05322-.13379-.00293-.02979-.0083-.06738-.01758-.11328-.03857-.15918-.22559-.61426-.91748-1.28955-.0791-.07715-.15918-.15479-.24023-.23242-.04346,.22266-.10303,.44434-.17871,.66553-.12549,.36328-.30713,.7124-.54346,1.04639Zm100.1665-6.14697c-.2168,.62061-.44385,1.24707-.6792,1.87598-.19873,.52881-.39355,1.04395-.58496,1.54443l1.12109-1.35693c-.00098-.04297-.00146-.08691-.00146-.13086,0-.65967,.04834-1.3042,.14453-1.93262Zm-83.40771,.99707c.47363,.3584,.91797,.71191,1.33105,1.05908,.03711-.71631,.08545-1.48438,.14502-2.30176,.00879-.11621,.01758-.23242,.02686-.34863-.25,.28809-.51709,.55127-.7998,.78906-.30664,.25732-.62305,.46387-.94824,.61816,.08203,.06152,.16406,.12256,.24512,.18408Z" style="fill:#fff;"/><path d="M98.81249,72.686c.89355,0,1.94336,.18459,3.14844,.55371,1.20412,.36963,2.35059,.8745,3.43945,1.51562,1.08789,.64111,2.01074,1.37012,2.76953,2.18604,.75781,.81642,1.1367,1.67186,1.1367,2.56541,0,.31152-.07907,.72853-.2334,1.25342-.15623,.52443-.54491,1.33156-1.166,2.41896h1.34082c.38768,0,.69922,.09766,.9326,.29149,.2334,.19533,.41701,.44727,.55371,.75832,.13577,.31154,.23343,.64111,.29201,.99072,.05763,.3501,.125,.68068,.2041,.99121,0,.07812,.00879,.14552,.02832,.2041,.01953,.05811,.02928,.12646,.02928,.2041,0,.6992-.12596,1.40918-.37889,2.12791-.25291,.71924-.58299,1.36086-.99121,1.92384-.40724,.56348-.85449,1.02003-1.34082,1.36964-.48633,.35007-.96191,.52489-1.42773,.52489-.50586,0-.94336-.04834-1.31152-.146-.3701-.09619-.90428-.2041-1.60353-.32031-.31152,.97168-.59276,1.98193-.84567,3.03125-.25296,1.04932-.46585,2.06982-.64064,3.06056-.17482,.99121-.30176,1.91502-.37892,2.76903-.07809,.85547-.11719,1.5742-.11719,2.15723,0,.89453,.07814,1.45753,.2334,1.69043,.15529,.2334,.34964,.3501,.58302,.3501,.15527,0,.33984-.02928,.55371-.08739,.21291-.05861,.4668-.17532,.75783-.35011,.29196-.1748,.65039-.43703,1.0791-.78662,.42673-.35008,.97069-.83545,1.63182-1.45753,.23338-.2334,.53418-.58299,.90331-1.04932,.06421-.08124,.13741-.16234,.2029-.24353,.22168-1.01526,.56384-2.04112,1.05103-3.0797,.89355-1.90379,2.07031-3.64355,3.52734-5.21777,1.45703-1.57373,3.08984-2.86523,4.89745-3.87646,1.80666-1.01024,3.62306-1.51564,5.45021-1.51564,.54395,0,1.10742,.05811,1.69043,.17482,.03908-.27147,.08789-.60205,.1465-.99121,.0576-.38818,.17479-.75781,.34959-1.10742,.17479-.3501,.41698-.65039,.7285-.90381,.31056-.25246,.75783-.37891,1.34085-.37891,.85447,0,1.84568,.18506,2.97363,.55371,1.12598,.37012,2.18553,.83643,3.17674,1.39943,.99121,.56348,1.83595,1.17577,2.53613,1.83641,.69924,.66113,1.04884,1.28221,1.04884,1.86525,0,.89452-.12597,2.57518-.37892,5.04294-.25291,2.46826-.94237,5.60645-2.06931,9.41505,.31052-.03857,.62108-.13574,.9326-.2915,.31055-.15479,.70901-.42726,1.19532-.81642,.48534-.38818,1.07813-.94189,1.77831-1.66161,.36098-.37079,.77595-.79839,1.24061-1.27831,.04163-1.62384,.21442-3.24796,.53576-4.87209,.37013-1.86523,.8545-3.52687,1.458-4.98436,.60159-1.45706,1.30177-2.64258,2.09866-3.55617,.79589-.9126,1.62205-1.36963,2.47752-1.36963,.77637,0,1.66992,.06837,2.68163,.20361,1.00977,.13673,1.97168,.3501,2.88577,.6416,.9121,.29149,1.69041,.67041,2.33202,1.1367,.6406,.46632,.96189,1.01125,.96189,1.63234,0,.31154-.06834,.55371-.20408,.7285-.13673,.17532-.28223,.35011-.4375,.52493-.15529,.17479-.32031,.36963-.49512,.58299-.17479,.21387-.28321,.49561-.3213,.84521,1.63282-1.39893,3.28419-2.45753,4.95509-3.17725,1.67089-.71875,3.14845-1.07863,4.43066-1.07863,.58302,0,1.28321,.08742,2.09963,.26271,.81542,.17479,1.583,.44727,2.30271,.81592,.71779,.37012,1.33008,.84521,1.83595,1.42822,.50489,.58302,.75781,1.26367,.75781,2.04053,0,.81641-.19531,1.82715-.583,3.03172-.38868,1.20508-.81642,2.42921-1.28223,3.67238-.46679,1.24463-.91405,2.41016-1.34081,3.49805-.42871,1.08836-.68066,1.90479-.75782,2.44824,.5039-.07716,1.13671-.33934,1.89452-.78661,.75782-.44679,1.46679-1.13721,2.12792-2.06984l1.53784-1.86192c-.00565-.21669-.02221-.42264-.02221-.64493,0-1.8652,.42871-3.56491,1.28321-5.10104,.8545-1.53468,2.01953-2.85645,3.49708-3.96387,1.47655-1.10793,3.19629-1.97218,5.16016-2.59424,1.96189-.62161,4.05076-.93311,6.26658-.93311,.81641,0,1.73926,.06834,2.76955,.20407,1.02929,.13673,1.99121,.45753,2.88477,.96193,.89453,.50537,1.64161,1.24416,2.24511,2.21533,.60158,.97217,.90332,2.29346,.90332,3.96434,0,1.12746-.166,2.12796-.49511,3.00246-.33105,.87402-.75782,1.62305-1.28321,2.24413-.52442,.62209-1.12695,1.08887-1.80663,1.39943-.68066,.31152-1.37013,.46631-2.06934,.46631-.46679,0-.99121-.00929-1.57421-.02928-.58303-.01906-1.16602-.07716-1.74902-.17482-.583-.09668-1.12792-.26221-1.63282-.49561-.50489-.23293-.9326-.58301-1.28223-1.04932-.27245-.34961-.41795-.72853-.4375-1.1367-.01953-.40822,.0381-.81642,.17481-1.22414,.13574-.40822,.32129-.77734,.55371-1.10793,.2334-.32957,.5049-.57274,.8164-.7285,.23342-.11671,.417-.18408,.55371-.2041,.13576-.01906,.30079-.12598,.4961-.32079,.11621-.11671,.05761-.34964-.17481-.69972-.11719-.15479-.2539-.32961-.40819-.52441-.31152,0-.65137,.06837-1.02052,.2041-.37011,.13672-.70995,.38866-1.0205,.75781-.31153,.36964-.583,.87451-.81542,1.51561-.2334,.64113-.35061,1.46729-.35061,2.47755,0,2.09863,.46682,3.74121,1.39942,4.92627,.93263,1.18605,2.39063,1.77831,4.37208,1.77831,1.28321,0,2.44921-.24266,3.49805-.72899,1.04979-.48535,2.00195-1.13672,2.85645-1.95314,.69547-.66405,1.33453-1.41776,1.94073-2.22382-.00379-.15398-.01789-.30136-.01789-.45781,0-1.86523,.34961-3.5752,1.04982-5.12987,.69921-1.55421,1.70897-2.89503,3.03124-4.02248,1.32032-1.12695,2.94434-2.00148,4.86816-2.62354,1.92287-.62109,4.10939-.93263,6.55763-.93263,3.03221,0,5.43066,.65091,7.20018,1.95264,1.76758,1.30273,2.65234,3.08058,2.65234,5.33447,0,1.04932-.28221,2.06935-.84471,3.06056-.56448,.99121-1.36134,1.92383-2.39063,2.79834-1.03029,.87453-2.25489,1.67139-3.67287,2.39012-1.41892,.71974-2.98339,1.31154-4.69334,1.77785,.5208,.72929,1.26667,1.09424,2.23721,1.09424,.11591,0,.23518-.00522,.3575-.01562,1.14553-.09669,2.39063-.48535,3.73145-1.166,1.34084-.67921,2.69044-1.59279,4.05079-2.73978,1.36034-1.146,2.56542-2.36131,3.61524-3.64354,.03808-.07764,.16503-.14601,.37889-.20412,.21289-.05811,.37892-.08739,.49513-.08739,1.04979,0,1.83692,.11671,2.36132,.34961,.52442,.23338,.78711,.73875,.78711,1.51562,0,1.39941-.55371,2.88574-1.66211,4.45998-1.10742,1.5742-2.53516,3.01218-4.28418,4.31395-1.749,1.30273-3.69334,2.38133-5.83006,3.23537-2.13771,.85448-4.25587,1.2827-6.3545,1.2827-2.21484,0-4.16797-.31152-5.85839-.93262-1.69142-.62108-3.11037-1.49561-4.25587-2.62354-.77363-.75981-1.41216-1.63477-1.93782-2.60658-.24034,.22849-.48608,.45631-.74284,.68274-1.1465,1.01125-2.4004,1.92384-3.75977,2.74023-1.36134,.81593-2.79884,1.47707-4.31448,1.98195-1.5156,.50439-3.05173,.75781-4.60545,.75781-4.19726,0-7.53029-1.08742-9.99805-3.26465-.86921-.76619-1.5766-1.69273-2.13957-2.76245-.68703,.65318-1.4369,1.29321-2.26276,1.91724-1.51563,1.14697-3.12892,2.13768-4.8379,2.97313-1.71095,.83545-3.26466,1.25343-4.66405,1.25343-2.44826,0-4.42189-.47656-5.917-1.42822-1.49708-.95215-2.24513-2.49707-2.24513-4.63477,0-1.01025,.13577-2.05957,.40821-3.14793,.27151-1.08791,.57324-2.07864,.90429-2.97316,.32911-.89355,.63087-1.63232,.90334-2.21532,.27148-.58302,.38769-.87453,.34961-.87453-.62208,.46631-1.17579,1.05908-1.66113,1.77783-.48634,.71971-.89452,1.48682-1.2246,2.30275-.33109,.81639-.58303,1.64258-.75782,2.47803-.17481,.83592-.26271,1.58397-.26271,2.24413,0,1.28271,.25294,2.60449,.75782,3.96437,0,.07811,.00976,.14549,.02929,.20407,.01955,.05811,.02931,.12648,.02931,.20412,0,1.2041-1.57423,1.80713-4.72169,1.80713-1.43847,0-2.68163-.2041-3.73145-.61229-1.04884-.40775-1.91505-1.07863-2.59377-2.01125-.46905-.6427-.84855-1.42371-1.15128-2.32484-.1629,.15298-.31087,.30733-.48053,.45961-.95216,.85498-1.94337,1.60303-2.97266,2.24414-1.03029,.6416-2.06055,1.16602-3.08984,1.57423-1.03029,.40819-1.99218,.61229-2.88577,.61229-.77831,0-1.53613-.05858-2.27342-.17529-.73926-.11621-1.41895-.31152-2.04102-.58299-.62206-.2715-1.166-.62111-1.63182-1.04932-.46681-.42728-.79689-.95166-.99124-1.57375-.34961,.54442-.81639,1.05908-1.3994,1.54492-.58302,.48631-1.19434,.91357-1.83594,1.28224-.6416,.36913-1.29298,.67039-1.95314,.90379-.66113,.23291-1.28221,.36865-1.86523,.4082-1.166,0-2.3125-.15576-3.43944-.4668-1.12793-.31152-2.12793-.8452-3.00293-1.60301-.83752-.72621-1.51093-1.68111-2.02747-2.85426-.25325,.20515-.50348,.41168-.77138,.61009-1.57323,1.16553-3.28415,2.12746-5.12987,2.88527-1.84668,.75829-3.54686,1.13721-5.10057,1.13721-1.24417,0-2.36134-.29149-3.35255-.87453-.99121-.58299-1.83592-1.35983-2.53613-2.33202-.69922-.97119-1.23438-2.08887-1.60252-3.35205-.19458-.66559-.33456-1.34564-.42659-2.03845,.04382,.90485-.13216,1.78853-.53436,2.65076-.54492,1.16553-1.45799,2.20605-2.74023,3.11867-1.28224,.91354-2.94435,1.65137-4.98438,2.21532-2.04102,.56299-4.44041,.8452-7.20021,.8452-1.51559,0-3.18649-.08739-5.01366-.26218-1.82715-.17482-3.53613-.59279-5.1299-1.25342-1.59373-.66066-2.92479-1.65138-3.99315-2.97316-.11348-.14027-.19647-.30835-.29793-.45958-.30937,.24419-.6237,.48636-.95403,.72179-1.55469,1.10793-3.16797,2.04053-4.83887,2.79834s-3.08984,1.13672-4.25586,1.13672c-1.47656,0-2.70117-.23289-3.67188-.69922-.97266-.46678-1.74902-1.17529-2.33203-2.12791-.58299-.95216-.99121-2.1763-1.22459-3.67287-.2334-1.49561-.34961-3.27393-.34961-5.33449,0-1.55371,.1367-3.14793,.40819-4.78026,.27246-1.63231,.69923-3.11865,1.28223-4.45947,.58301-1.34082,1.34961-2.42871,2.30273-3.26466,.95213-.83543,2.12793-1.25342,3.52734-1.25342,1.98145,0,3.51662,.23293,4.60548,.69923,1.08786,.46629,1.89452,1.01125,2.41895,1.63232,.52438,.62207,.83592,1.23436,.9326,1.83643,.09668,.60301,.14647,1.02052,.14647,1.25342,0,.3501-.02928,.68065-.08786,.99121-.05861,.31152-.15529,.66113-.29103,1.04932-.1367,.38916-.30176,.82617-.49611,1.31152-.19431,.48634-.4277,1.09863-.6992,1.83643-.31152,.85547-.51564,1.71094-.61229,2.56494-.09766,.85547-.24319,1.98242-.4375,3.38135,.34961-.1548,.76758-.42725,1.25389-.81593,.48534-.38818,1.00977-.8452,1.57422-1.3701,.30199-.28156,.6142-.57623,.93347-.88019,.06291-.17384,.12463-.34796,.20128-.51874,.42775-.95215,.92384-1.7876,1.48634-2.50684,.56348-.71877,1.13672-1.28271,1.71971-1.69092,.58302-.40771,1.02931-.61182,1.34085-.61182,.42773,0,.9326,.12646,1.51559,.37889,.58304,.25294,1.1465,.59279,1.69142,1.02003,.54298,.42824,1.03906,.91357,1.48633,1.45752,.44629,.54492,.74805,1.12744,.90331,1.74902,.15529,.62209,.12601,1.24414-.0869,1.86523-.21483,.62206-.70996,1.20508-1.4873,1.74904-.03906,0-.01953,.0786,.05861,.23338,.07712,.15576,.24217,.31154,.4951,.46632,.25291,.15573,.59279,.30125,1.02049,.437,.42773,.13672,.97072,.2041,1.63281,.2041,1.9424,0,2.77835-.67969,2.50685-2.04053-.15623-.66016-.6035-1.34959-1.34082-2.06934-.73926-.71873-1.53613-1.4668-2.39062-2.24463-.85548-.77684-1.66113-1.59326-2.41895-2.44824-.75783-.85449-1.23438-1.74902-1.42871-2.68163-.2334-1.16603-.14551-2.23441,.26271-3.20656,.40817-.97118,1.09766-1.80713,2.06931-2.50684,.97072-.69972,2.19531-1.25343,3.67287-1.66161,1.47656-.40775,3.16698-.61182,5.07129-.61182,1.63283,0,3.12793,.12645,4.48927,.37889,1.36034,.25291,2.56541,.61182,3.61423,1.0786,.90309,.40114,1.64503,.88661,2.24588,1.44588-.36838-.66405-.5564-1.49371-.5564-2.49518,0-1.08791,.51559-1.82666,1.54492-2.21532,1.03026-.38818,2.45799-.58304,4.28516-.58304,.15526-.73778,.38768-1.71971,.6992-2.94431,.31152-1.22414,.70898-2.39896,1.19531-3.52687,.48535-1.12695,1.07912-2.10789,1.77832-2.94385,.69922-.83545,1.51564-1.25342,2.44824-1.25342m-13.58203,24.48486c-.77832,0-1.5742-.16505-2.39062-.49561-.81543-.32961-1.55469-.72852-2.21484-1.19531-.66113-.46631-1.1758-.9707-1.54492-1.51562-.3701-.54346-.47655-1.04932-.32031-1.51564,.19336-.66016,.19336-1.14597,0-1.45749-.19533-.31056-.48729-.46632-.875-.46632-.66113,0-1.09863,.07814-1.31154,.2334-.21387,.15576-.30173,.36963-.26268,.6411,.11719,.58304,.51466,1.21535,1.19531,1.89456,.67969,.68065,1.49608,1.37987,2.44824,2.09863,.95216,.71971,1.97266,1.43846,3.06055,2.15721,1.08791,.71973,2.1084,1.43846,3.06154,2.15672,.95116,.71974,1.76758,1.40919,2.44823,2.06985,.67969,.66113,1.07814,1.26318,1.19531,1.80713,.02547,.11662,.0452,.23274,.06114,.34846,.0132,.14153,.02826,.28256,.04494,.42314-.01164-.14072-.02545-.28165-.04494-.42314-.03935-.42206-.0621-.84856-.0621-1.2811,0-1.39943,.07809-3.15724,.23242-5.27586,.15623-2.11819,.42871-4.22658,.81639-6.32521-1.01544-.349-1.8329-.80762-2.47302-1.36446,.29857,.46674,.50873,.95827,.60876,1.48067,.1162,.58302,.08691,1.22459-.08791,1.92383-.17479,.69972-.44727,1.35109-.81639,1.95311-.36913,.60306-.79688,1.10745-1.28224,1.51564-.48631,.4082-.98145,.6123-1.48631,.6123m37.25098,6.70412c.31152,0,.60255-.1255,.875-.37892,.27147-.25246,.4082-.5923,.4082-1.02003,.03809-1.36034,.06737-2.8369,.0869-4.43065,.01956-1.59328,.1465-3.10887,.37892-4.54738-1.12694,.85548-1.96289,1.98195-2.50684,3.38138-.54395,1.39891-.81543,2.77928-.81543,4.13914,0,1.01122,.16502,1.73975,.49512,2.18604,.33008,.44727,.68947,.67043,1.07812,.67043m86.10353-4.66359c.583-.19434,1.06834-.46678,1.458-.81642,.38768-.34959,.69921-.71873,.9326-1.10742,.23342-.38818,.40821-.76707,.52442-1.13718,.11621-.36867,.17482-.67043,.17482-.90335,0-.19383-.03908-.4375-.11621-.72899-.07813-.291-.15626-.43701-.23339-.43701-.31153,0-.64161,.11668-.99121,.34961-.34963,.2334-.66116,.53467-.93263,.90382-.27245,.36963-.49511,.80713-.67089,1.31152-.17482,.50584-.26171,1.04932-.26171,1.63231,0,.2334,.03808,.54492,.11621,.93311m-42.32326,6.06297c0-.03854-.00977-.06737-.02832-.08786-.0205-.01906-.02929-.04787-.02929-.08742v.1167c0,.03906,.01855,.05858,.05761,.05858m-67.44921-35.58836c-1.27756,0-3.13847,.4039-4.74883,2.328-.88528,1.0584-1.63638,2.29718-2.23308,3.68263-.54399,1.26163-.99747,2.59897-1.34731,3.97363-.07091,.27873-.13821,.5468-.20187,.804-1.12488,.12267-2.09517,.34023-2.93292,.65587-1.35251,.51068-2.36707,1.42493-2.94363,2.5981-.72502-.21909-1.49315-.40439-2.29886-.55418-1.53711-.28505-3.23155-.42944-5.03764-.42944-2.1647,0-4.1396,.24226-5.86981,.72005-1.81607,.50169-3.37323,1.21484-4.62857,2.11971-1.4201,1.02266-2.457,2.29408-3.08075,3.77811-.45219,1.07692-.65936,2.22101-.62021,3.41658-.77638,.1958-1.44872,.59003-1.95569,.93408,.02385-.26105,.03587-.5278,.03587-.79813,0-.40572-.05513-.92261-.18431-1.72835-.18376-1.14442-.7224-2.25279-1.601-3.29507-.83998-.99477-1.9944-1.79756-3.53082-2.4561-1.48018-.6339-3.37294-.94188-5.78737-.94188-2.14223,0-3.99471,.67238-5.50597,1.99843-1.28203,1.12439-2.31686,2.57915-3.07529,4.32341-.6769,1.55676-1.17824,3.29343-1.49011,5.16177-.29813,1.79253-.44913,3.56642-.44913,5.2742,0,2.20757,.12968,4.15796,.38547,5.79703,.29355,1.88237,.84209,3.48964,1.63023,4.77687,.88643,1.44843,2.09525,2.54747,3.59253,3.26604,1.3734,.65976,3.04587,.99455,4.96988,.99455,1.61365,0,3.41107-.45946,5.495-1.40459,1.40373-.63664,2.78203-1.39191,4.1129-2.2531,1.05463,.91541,2.25339,1.65369,3.58313,2.20488,1.86284,.77217,3.87915,1.26622,5.99297,1.46848,1.91324,.18303,3.69618,.27582,5.29939,.27582,3.01404,0,5.70493-.32071,7.99796-.9532,2.37315-.65605,4.3669-1.55222,5.92738-2.66403,.43074-.30655,.83264-.62811,1.20508-.96396,.92807,1.25987,2.06219,2.28862,3.37306,3.05965,1.45374,.85507,3.09341,1.28865,4.8735,1.28865,1.93961,0,4.03908-.45825,6.2401-1.36205,1.37694-.56535,2.69844-1.23889,3.94882-2.01181,.27605,.30823,.56787,.59583,.87502,.86215,1.21146,1.04918,2.61385,1.79848,4.16959,2.22815,1.38278,.38164,2.8085,.57506,4.23813,.57506h.10164l.10141-.00687c.85143-.05777,1.74606-.25015,2.65906-.57182,.83253-.29431,1.65656-.67513,2.45232-1.13297,.51591-.29643,1.0213-.62733,1.50972-.98825,.50626,.36169,1.05954,.67448,1.65257,.93332,.8576,.37424,1.79126,.6424,2.77521,.79709,.88626,.14029,1.80895,.21169,2.73929,.21169,1.26932,0,2.612-.27698,3.99077-.82321,1.19418-.4736,2.39521-1.08472,3.57071-1.81674,.33266-.2072,.66272-.42485,.9894-.65236,.95639,1.14117,2.14385,1.99309,3.53596,2.53429,1.39279,.54152,3.014,.81613,4.81844,.81613,3.05703,0,4.95698-.59972,6.10705-1.46571,1.9428,1.16608,4.39763,1.75722,7.30116,1.75722,1.85161,0,3.86369-.52406,5.9804-1.55763,1.85146-.90512,3.62041-1.98892,5.26015-3.22258,.21878,.22612,.44549,.44264,.68001,.64937,3.01868,2.66328,7.05026,4.01414,11.98179,4.01414,1.86753,0,3.73576-.30659,5.55276-.9113,1.71316-.57069,3.36463-1.32938,4.90942-2.25525,.84322-.50641,1.65473-1.05,2.42793-1.62593,.12048,.1284,.24324,.25404,.3681,.37668,1.44387,1.42171,3.236,2.53265,5.32392,3.29933,2.01611,.74077,4.33526,1.11647,6.89247,1.11647,2.47026,0,4.98287-.50365,7.46798-1.49699,2.37-.94727,4.55984-2.16357,6.50863-3.61513,1.99532-1.48508,3.65961-3.16545,4.94582-4.99379,1.46516-2.08095,2.20842-4.16258,2.20842-6.18608,0-1.9789-.93574-3.53032-2.56729-4.25645-.93589-.41562-2.07313-.60878-3.58113-.60878-.08865,0-.17807,.00311-.2689,.00945,.00283-.09125,.00424-.18257,.00424-.27411,0-3.20258-1.33908-5.88229-3.87247-7.74945-2.28971-1.68439-5.31032-2.53766-8.98005-2.53766-2.74897,0-5.26553,.36267-7.47974,1.07788-2.29563,.74226-4.27824,1.81763-5.89368,3.19647-.25251,.2153-.49657,.43765-.73177,.66663-.08719-.16766-.17964-.33044-.27734-.48834-.87326-1.40526-1.98945-2.49669-3.32053-3.24869-1.22558-.69183-2.55942-1.13705-3.96534-1.32381-1.16052-.15289-2.22418-.23021-3.16463-.23021-2.51182,0-4.92508,.36107-7.17271,1.07321-2.27782,.7215-4.31495,1.74921-6.05455,3.05452-.73561,.55135-1.41271,1.15187-2.02823,1.79817-.24628-.58348-.58643-1.12944-1.01575-1.6252-.75461-.86966-1.6721-1.58578-2.72892-2.13071-.95879-.49113-1.98213-.85423-3.04877-1.08287-1.03187-.22156-1.92465-.32935-2.72842-.32935-1.70987,0-3.54692,.43269-5.61613,1.3228-.14502,.06245-.28979,.12704-.43459,.19388-.30128-.36392-.66023-.69951-1.07336-1.00023-.89889-.65329-1.96963-1.18068-3.18431-1.56886-1.07439-.34264-2.21653-.59708-3.39645-.75687-1.16319-.15549-2.17037-.23074-3.08421-.23074-1.20769,0-3.01013,.416-4.7385,2.39781-.72989,.83678-1.39143,1.8399-1.97528,2.99377-.33116-.71625-.84624-1.4063-1.54253-2.06464-.87468-.82532-1.92184-1.58653-3.1146-2.26459-1.15879-.65816-2.4109-1.21021-3.72256-1.64136-1.45039-.47403-2.72792-.70372-3.91042-.70372-1.28748,0-2.37526,.35361-3.23318,1.05101-.64366,.52362-1.15488,1.15984-1.52023,1.89168-.0461,.09218-.09001,.18529-.13171,.27928-2.12474,.10419-4.23592,.7359-6.28511,1.88174-.67982,.38033-1.3403,.79686-1.97952,1.24812,.03922-.34068,.05891-.68094,.05891-1.01981,0-.22415-.01929-.44429-.0576-.65858v-.12573l-.09283-.36447c-.05559-.21814-.1064-.4664-.15111-.73792-.09982-.59586-.26823-1.16563-.50198-1.70195-.32729-.74474-.78986-1.36781-1.37857-1.86047l-.02888-.02377c.15645-.62239,.22954-1.14999,.22954-1.63942,0-1.14894-.33621-2.88075-1.93794-4.60637-.95561-1.02754-2.11407-1.94524-3.44516-2.72966-1.28545-.75687-2.65855-1.36194-4.08221-1.79897-1.50708-.46164-2.82437-.68579-4.02881-.68579h0Zm6.80939,29.50015c.02548-.15605,.05232-.31413,.08055-.47421,.16522-.93639,.36801-1.90494,.60269-2.87854,.02394-.0993,.04817-.19835,.07268-.29695,.24657,.0193,.50339,.02895,.77161,.02895l.02405-.00006c-.22668,.41466-.44048,.83594-.64114,1.26349-.36143,.77051-.66589,1.55919-.91043,2.35733h0Z"/></g></g><g><g><path d="M145.22168,123.07273c-1.60791,0-3.12158-.35596-4.49854-1.05762-1.57129-.80078-2.65381-2.38086-3.21729-4.6958l-.02344-.11475c-.25684-1.58789-.25439-3.08301,.0083-4.44385,.26221-1.36523,.71045-2.56641,1.33252-3.56787,.64502-1.03662,1.4502-1.8667,2.39453-2.46777,.99854-.63525,2.04443-.95703,3.10938-.95703,.75586,0,1.646,.1123,2.72168,.34277,1.04639,.22412,2.08643,.55371,3.09082,.97998,1.02148,.43457,1.93213,.94287,2.70801,1.51172,.98926,.72754,1.57764,1.58398,1.75098,2.54883,.23535,.96436-.0083,1.91406-.69043,2.68262l-.87061,.87549-.05908,.04834c-.35449,.28857-.69678,.72363-1.01758,1.29297-.39795,.7085-.77441,1.43994-1.11816,2.17139l-.65088,1.23291c-.39258,.83789-.83936,1.56982-1.33398,2.17383-.84131,1.02832-1.77002,1.31201-2.40088,1.36914l-.13477,.00586c-.12305,0-.24561,.00781-.36768,.02295-.23779,.03125-.48584,.0459-.73291,.0459Z" style="fill:#fff;"/><path d="M144.32715,107.26802c.6416,0,1.44434,.10303,2.40723,.30957,.96289,.20605,1.90234,.50488,2.81933,.89404,.91699,.39014,1.71973,.83691,2.40723,1.34082,.6875,.50537,1.07715,1.05518,1.16894,1.65039,.1377,.50537,.02247,.96289-.34375,1.37549l-.75585,.75684c-.50586,.4126-.9629,.98633-1.37598,1.71924-.41211,.73389-.80274,1.49023-1.16895,2.26953l-.61914,1.16895c-.36718,.78027-.75586,1.42139-1.16894,1.92578-.41309,.50488-.8711,.77979-1.375,.8252-.18457,0-.36817,.01172-.55078,.03418-.1836,.02393-.36719,.03467-.54981,.03467-1.37598,0-2.64746-.29785-3.81738-.89404-1.16895-.5957-1.9834-1.8335-2.44092-3.71387-.22998-1.42041-.22998-2.72705,0-3.91992,.229-1.19189,.60693-2.21143,1.13428-3.06055,.52734-.84766,1.16992-1.5127,1.92578-1.99414,.75684-.48145,1.52344-.72217,2.30371-.72217m0-3c-1.35482,0-2.67164,.40068-3.91389,1.19089-1.13632,.7238-2.09902,1.71286-2.86289,2.94069-.72038,1.15997-1.23578,2.53175-1.53311,4.07924-.29536,1.53198-.30063,3.20325-.01531,4.96545l.01874,.11578,.02773,.11397c.6713,2.75897,2.01499,4.66919,3.99374,5.67757,1.59001,.81026,3.33265,1.2211,5.17952,1.2211,.31743,0,.63281-.02013,.93738-.0598,.04203-.00511,.10407-.00905,.16321-.00905h.1349l.13436-.0121c.9171-.08264,2.25621-.48169,3.4276-1.91336,.56029-.68414,1.06139-1.49663,1.5297-2.48085l.58762-1.10945,.03355-.06335,.0305-.0649c.32839-.69881,.68825-1.39746,1.0696-2.07657,.29741-.52768,.53902-.76764,.65635-.86336l.11848-.09663,.10804-.10817,.75585-.75684,.06238-.06247,.0586-.06602c.99586-1.12196,1.36892-2.56798,1.03613-3.99136-.18336-.95712-.7444-2.27898-2.32815-3.44318-.87228-.63934-1.88372-1.20515-3.00958-1.68416-1.09451-.46449-2.22617-.82315-3.36606-1.06708-1.17895-.2529-2.17218-.37599-3.03499-.37599h0Z"/></g><g><path d="M120.25733,156.22068c-1.73877,0-3.44824-.60645-5.08154-1.80322-1.57861-1.15674-2.78076-2.62744-3.57373-4.37158l-.0415-.0918s-.30078-.98975-.43652-1.42041c-.18213-.57666-.27539-1.20312-.27539-1.85938-.04541-.69727-.04639-1.7124,.00098-3.01172,.04736-1.26855,.15381-2.7124,.31641-4.29395,.16455-1.58838,.38721-3.30225,.66309-5.09521,.21484-1.39844,.45898-2.81885,.72803-4.23682-.69043-.29834-1.31982-.65332-1.88135-1.06104-1.07129-.7793-1.74219-1.85547-1.94043-3.11182-.60645-3.11914,.99463-4.34961,2.00391-4.80078,1.08008-.48291,2.51514-.75684,4.36523-.83154,.43115-1.27295,.90332-2.49121,1.40869-3.63281,.65576-1.48145,1.37305-2.78955,2.13135-3.88965,.80664-1.17188,1.71875-2.12012,2.70996-2.81689,1.104-.77441,2.30762-1.16699,3.57959-1.16699,1.48828,0,2.96533,.32129,4.39111,.95459,1.35303,.55127,2.61133,1.33838,3.69824,2.32129,1.20898,1.09473,1.94482,2.32666,2.18896,3.6626,.13574,.53418,.11865,1.1792-.0708,1.82568-.20312,.69092-.68604,1.3457-1.47705,2.00391-.18018,.15918-.36963,.35303-.56641,.57959h.43213c.64209,0,1.26221,.21045,1.79346,.60889,.36426,.27344,.71191,.60498,1.03613,.9873,.32764,.38867,.60059,.7998,.81396,1.22363,.23242,.46582,.37842,.896,.44922,1.32129,.01025,.06885,.01953,.13721,.02783,.20508,.81299-.3291,1.7124-.49512,2.68799-.49512,2.18457,0,3.7915,.27881,4.9126,.85205,1.13721,.58398,1.93945,1.24316,2.45508,2.01611,.3667,.58594,.55908,1.14551,.59229,1.69434,.08887,.47217,.14746,.92529,.17383,1.34766,.02783,.4873,.01318,.96094-.04395,1.41553-.10986,.771-.29834,1.51172-.56348,2.22607-.22559,.60889-.48486,1.3418-.77637,2.19824-.2876,.83838-.60498,1.84668-.94385,2.99902-.33154,1.12793-.65479,2.5459-.96045,4.21436-.07666,.41699-.15283,.84863-.22803,1.2959,.28125-.21484,.61377-.50146,1.00195-.88281,.60205-.59229,1.22607-1.22412,1.86768-1.88916,.03613-.6084,.06787-1.17773,.09229-1.74707,.14355-2.20752,.45654-4.34766,.93066-6.39551,.47803-2.05078,1.05908-3.90088,1.72803-5.50049,.70264-1.68213,1.53369-3.06299,2.46973-4.10352,1.11816-1.24268,2.34961-1.87256,3.66016-1.87256,.76123,0,1.62646,.07568,2.57129,.22412,.9292,.14746,1.82568,.34668,2.66455,.59277,.94043,.27783,1.7749,.67578,2.48242,1.18408,.89551,.64551,1.43213,1.42627,1.59668,2.32227,.01172,.07129,.021,.14258,.02686,.21387,.3916-.25586,.78906-.49951,1.19385-.72998,2.19141-1.24854,4.24561-1.88184,6.10693-1.88184,2.05713,0,3.78857,.50195,5.14697,1.49121,.66602,.48584,1.19092,1.05615,1.56738,1.69629,.98779-.73633,2.03809-1.36475,3.13965-1.87793,1.86572-.86914,3.59424-1.30957,5.13818-1.30957,1.64453,0,3.03906,.33887,4.14502,1.00732,1.09473,.66309,1.94531,1.53223,2.53027,2.5835,.58203,1.05078,.87646,2.22119,.87646,3.47998,0,1.12646-.1543,2.31348-.45801,3.52783-.28564,1.14551-.64746,2.32812-1.0752,3.51416-.40869,1.13672-.79639,2.24072-1.16016,3.30957-.34766,1.02051-.63428,2.02246-.85205,2.979-.08105,.35645-.13428,.69238-.15967,1.00684,.21094-.13184,.5127-.35352,.91162-.72266,.54736-.50488,1.18311-1.19531,1.89014-2.05273,.36133-.43799,.75586-.94287,1.17773-1.50244-.05078-1.00879-.02783-2.01025,.06787-2.98535,.2251-2.30273,.87549-4.44141,1.93262-6.35547,1.32129-2.43848,3.4209-4.45801,6.23535-5.99072,2.77881-1.51318,6.375-2.28027,10.68896-2.28027,3.31689,0,5.76172,.66895,7.47314,2.04541,1.70068,1.36816,2.78271,3.23682,3.2168,5.55469,.33203,1.82471,.09424,3.59668-.70459,5.27539-.75586,1.58545-1.88232,3.01172-3.34766,4.24072-1.42285,1.19482-3.14551,2.19971-5.11963,2.98633-1.31738,.52588-2.72266,.93213-4.19727,1.21533,.13623,.16162,.28174,.31055,.4375,.44727,.51172,.45068,1.25635,.71631,2.21387,.79102,2.4248-.05225,4.58301-.8042,6.59619-2.29736,2.13184-1.58057,4.04785-3.5376,5.6958-5.81641l.07129-.09863,.08643-.08594c.24512-.24414,.55371-.43359,.94287-.57959,.35156-.13184,.69043-.19873,1.0083-.19873,1.4707,0,2.58838,.44873,3.32227,1.33398,.49805,.60498,1.03369,1.65332,.77051,3.23242-.31592,1.74414-1.11914,3.52051-2.39062,5.30127-1.23291,1.72656-2.82666,3.31006-4.73682,4.70654-1.89551,1.38525-4.08154,2.52832-6.49707,3.39795-2.4458,.88037-5.04639,1.32666-7.72998,1.32666-1.93066,0-3.76855-.26562-5.4624-.78906-1.7124-.52881-3.2627-1.29834-4.60742-2.28809-1.09326-.80469-2.0625-1.75244-2.89014-2.8252-.26611,.26025-.53906,.5166-.81689,.76855-1.54932,1.40283-3.24023,2.61572-5.02686,3.60498-1.91504,1.06006-3.80225,1.59766-5.60938,1.59766-2.44727,0-4.55469-.47949-6.2627-1.42578-1.89258-1.04834-3.05762-2.66895-3.46338-4.81641-.27246-1.40967-.15869-3.02979,.33936-4.80859,.44238-1.58594,.92676-3.12305,1.43994-4.56787,.3335-.94043,.63232-1.80518,.89502-2.59375-.53076,.48633-.97021,1.08447-1.34131,1.81543-.60547,1.18896-1.07227,2.49512-1.38867,3.88281-.32568,1.43359-.5459,2.90869-.65381,4.38428-.11572,1.56152-.21826,2.93848-.31006,4.13184-.08496,1.97314-1.02686,2.87695-1.80176,3.2793-.84619,.4375-1.9375,.6499-3.33838,.6499-1.85547,0-3.58154-.27051-5.13086-.80371-1.83594-.63232-3.14746-2.02148-3.79248-4.01709l-.06543-.20312-.00684-.21289c-.04932-1.63184,.12451-3.35303,.5166-5.1167,.37109-1.67139,.77197-3.2627,1.19092-4.729,.25439-.88867,.49561-1.7085,.72363-2.46045-.17969,.24268-.34912,.50977-.50732,.80225-.5415,1.00098-.99805,2.13867-1.35596,3.38037-.37207,1.29248-.67139,2.62256-.88867,3.95312-.22949,1.3916-.43408,2.70068-.61572,3.93066l-.27686,1.79785c-.14648,.95312-.54443,1.71924-1.18311,2.27686-.30078,.30273-.75781,.59277-1.29541,.80225-.33496,.15039-.78809,.26123-1.52539,.37549-.41602,.06396-.86328,.09619-1.33105,.09619-.33789,0-.69189-.01611-1.06299-.05029-.92627-.08398-1.89453-.36182-2.87646-.82471-1.07764-.50781-2.00342-1.34912-2.75049-2.50049-.16455-.24072-.31982-.49072-.46484-.74756-.63184,.48584-1.26514,.92871-1.91113,1.33691-1.38135,.87207-2.78076,1.59619-4.16064,2.15186-1.48193,.59717-2.8623,.8999-4.10254,.8999-2.53955,0-4.3833-.50732-5.63672-1.55078-.75488-.62891-1.36426-1.48291-1.82275-2.55127-.35938,.26172-.72998,.51709-1.10986,.76416-1.05078,.68457-2.15479,1.28027-3.28076,1.76953-1.12939,.48975-2.28125,.88574-3.42432,1.17725-1.19434,.30518-2.37207,.45996-3.50049,.45996Zm4.8877-10.69141c.10205,.03955,.21143,.05762,.33887,.05762,.29004,0,1.44189-.20654,4.09766-2.86182,.15625-.15625,.33203-.354,.52881-.58936,.11426-.13721,.229-.28174,.34473-.43359,.01807-.76514,.07617-1.63867,.17285-2.60498,.11768-1.18213,.29688-2.42773,.53369-3.7002,.23877-1.29297,.56689-2.59326,.9751-3.86426,.0625-.1958,.12842-.38916,.19678-.58008-.71729,.19824-1.38574,.32227-1.98975,.36816-.50732,.04688-1.09521,.08301-1.74512,.10645-.24023,.00928-.47559,.02002-.70557,.03271-.36621,1.11816-.7002,2.23389-.99512,3.32861-.37891,1.40381-.70752,2.77441-.97656,4.07422-.26855,1.29834-.48291,2.49512-.6377,3.55713-.14941,1.02051-.2251,1.87305-.2251,2.53516,0,.10303,.01514,.28564,.08643,.57422Zm88.75049-13.34131c-.15771,.04834-.33057,.14258-.5166,.28223-.41162,.30859-.80322,.73975-1.16357,1.28076-.37158,.55713-.67773,1.24023-.90967,2.03223-.06348,.21729-.11865,.43994-.16504,.66699,.07617-.03467,.15137-.07178,.22559-.11133,.60596-.3208,1.11768-.72314,1.52002-1.19482,.41016-.48193,.7041-.98096,.89648-1.52295,.1665-.47021,.22412-.88477,.17139-1.229-.01514-.06348-.03516-.13281-.05859-.2041Z" style="fill:#fff;"/><path d="M124.93408,110.22505c1.28273,0,2.54443,.27539,3.78223,.8252,1.23778,.50537,2.33838,1.19289,3.30127,2.06348,.9624,.87158,1.53514,1.81152,1.71924,2.81934,.09131,.36766,.07909,.74608-.03468,1.13477-.11474,.39014-.44678,.81445-.99707,1.27246-.78027,.6875-1.60547,1.76562-2.47558,3.23242h3.30078c.32031,0,.61914,.10301,.89404,.30907,.27491,.20656,.53858,.459,.79102,.75684,.25147,.29836,.45753,.60791,.61865,.92824,.16016,.3213,.26368,.61914,.30957,.89404,.13771,.91747,.02247,1.69678-.34375,2.33838-.36767,.64258-.85986,1.18066-1.47851,1.6162-.61915,.43605-1.30666,.76808-2.06349,.99709-.75635,.22998-1.43309,.36719-2.02831,.4126-.50538,.04637-1.06593,.08057-1.68505,.10303-.61914,.02393-1.20362,.05812-1.75391,.10303-.50489,1.46826-.95167,2.92285-1.34082,4.3672-.39015,1.44433-.72218,2.83153-.99707,4.16064-.2754,1.33057-.49316,2.54443-.65333,3.64502-.16113,1.10009-.24073,2.01807-.24073,2.75098,0,.27489,.04493,.59618,.13722,.96239,.09131,.41309,.30956,.71142,.65331,.89404,.34425,.1841,.72218,.27541,1.13478,.27541,1.23827,0,2.95751-1.10059,5.1582-3.30128,.18262-.18262,.38868-.4126,.61866-.68751,.229-.27538,.458-.57275,.68798-.89404,0-.8252,.05664-1.81055,.17188-2.95704,.11376-1.14551,.28565-2.33836,.51562-3.57616,.22902-1.23829,.53858-2.46436,.92873-3.67969,.38866-1.21387,.89404-2.31445,1.51269-3.30078,.61914-.98535,1.35205-1.77637,2.20067-2.37256,.84766-.5952,1.86816-.89404,3.06055-.89404,1.92578,0,3.33496,.22998,4.22951,.68752,.89355,.45897,1.52344,.96289,1.89062,1.51317,.22949,.36768,.34473,.71143,.34473,1.03174,.09082,.45851,.14746,.8833,.17187,1.27197,.02246,.39014,.01075,.76855-.03516,1.13477-.09178,.64258-.25195,1.27246-.48144,1.89111-.22949,.61914-.49316,1.36475-.79004,2.23534-.29884,.87158-.61914,1.89113-.96289,3.06007-.34375,1.16942-.67775,2.62547-.99707,4.36718-.09278,.50488-.18456,1.03175-.2754,1.58154-.09276,.55029-.18358,1.12402-.27538,1.71924,0,.27538,.18262,.41309,.55078,.41309,.87011,0,1.97071-.65382,3.30078-1.96046,.73144-.71906,1.49371-1.49536,2.281-2.31849,.0462-.77416,.0932-1.54822,.12622-2.3236,.13771-2.10791,.43653-4.14844,.89356-6.1206,.45898-1.97071,1.00782-3.72413,1.65038-5.26075,.6416-1.53564,1.37598-2.76172,2.20118-3.6792,.8252-.91699,1.67286-1.37549,2.54491-1.37549,.68751,0,1.4668,.06885,2.33789,.20605,.87013,.1377,1.69533,.32129,2.4756,.55029,.77929,.22998,1.45507,.55029,2.02929,.96289,.57227,.4126,.90429,.87158,.99707,1.37549,.04493,.2749-.01173,.58447-.17187,.92822-.16115,.34377-.35645,.71143-.58496,1.10057-.22949,.38966-.45898,.81447-.68751,1.27199-.23045,.45898-.39062,.96289-.48144,1.51318,1.60449-1.74219,3.39258-3.17432,5.36425-4.29834,1.97071-1.12305,3.7588-1.68506,5.36425-1.68506,1.74122,0,3.16309,.40186,4.26367,1.20361,1.10058,.80273,1.6504,1.84618,1.6504,3.12939,1.37596-1.32959,2.8994-2.38379,4.57324-3.16357,1.67285-.7793,3.1748-1.16943,4.50489-1.16943,1.375,0,2.49804,.26465,3.36913,.79102,.87109,.52783,1.53615,1.20361,1.99513,2.02879,.45702,.82521,.68749,1.74269,.68749,2.75099,0,1.0088-.13769,2.063-.41307,3.16358-.27442,1.10009-.61816,2.22411-1.03125,3.36961-.41211,1.14649-.80275,2.2588-1.16895,3.33546-.3672,1.07764-.66504,2.12109-.89453,3.12891-.22949,1.00928-.27442,1.90333-.13673,2.68213,.09082,.32129,.29687,.48145,.61816,.48145,.32031,0,.71095-.10303,1.16993-.30958,.45704-.20605,.98535-.58447,1.58105-1.13477,.59569-.5498,1.27246-1.28271,2.02929-2.20069,.46711-.56635,.98853-1.24097,1.55236-2.00024-.0852-1.09827-.07909-2.19671,.02869-3.29517,.20605-2.10791,.79004-4.03369,1.75293-5.77686,1.19238-2.20068,3.07129-3.99951,5.63965-5.39844,2.56738-1.39793,5.89062-2.09766,9.97167-2.09766,2.9336,0,5.11231,.57176,6.5332,1.71436,1.42091,1.14307,2.31445,2.69678,2.68262,4.66211,.27442,1.5088,.07911,2.95947-.58495,4.35448-.66505,1.39455-1.6504,2.64014-2.95704,3.73584-1.30664,1.09718-2.87793,2.01173-4.71095,2.7422-1.83398,.73193-3.82813,1.2124-5.9834,1.43995,.41309,1.14355,1.0088,2.05713,1.78809,2.74268,.77929,.68554,1.83398,1.07422,3.16407,1.16553,2.75097-.04493,5.26073-.91016,7.53027-2.59375,2.26953-1.68262,4.2744-3.73096,6.01756-6.14209,.09082-.09035,.22853-.16993,.41211-.23878,.1836-.06883,.34473-.10301,.48146-.10301,1.00878,0,1.73047,.26416,2.16698,.79102,.43458,.52734,.584,1.20311,.44629,2.0288-.2744,1.51269-.98632,3.07178-2.13184,4.67627-1.14647,1.60548-2.61327,3.06006-4.40136,4.36719-1.78809,1.30663-3.82812,2.37256-6.12011,3.19776-2.29298,.82518-4.7002,1.23778-7.22169,1.23778-1.78807,0-3.46191-.24071-5.01953-.72216-1.55956-.48144-2.94629-1.16895-4.16113-2.06298-1.21486-.89406-2.24707-1.97071-3.09473-3.23244-.16985-.25226-.32111-.51337-.46978-.77575-.6288,.70264-1.30829,1.38544-2.03902,2.04822-1.46875,1.33008-3.0498,2.46484-4.74609,3.4043-1.69629,.93896-3.32422,1.40967-4.8828,1.40967-2.2002,0-4.04591-.4126-5.53615-1.2378-1.49024-.82567-2.39551-2.08592-2.71582-3.78271-.23047-1.1914-.12695-2.56689,.30958-4.12598,.43456-1.55811,.90429-3.04881,1.40916-4.47021,.50391-1.42089,.92873-2.6704,1.27247-3.74804,.34375-1.07665,.35449-1.72998,.03418-1.95996-.14617-.10419-.29233-.15632-.43841-.15632-.17501,0-.3499,.07484-.52448,.22469-.32129,.27538-.61816,.50536-.89356,.68798-1.10058,.68751-1.9834,1.68505-2.64745,2.99171-.66504,1.30663-1.16895,2.71631-1.51367,4.22949-.34375,1.51269-.57324,3.04931-.68751,4.60741-.11522,1.55907-.21776,2.93456-.30956,4.12646-.04589,1.05518-.37793,1.74171-.99707,2.063-.61915,.32031-1.50195,.48144-2.64745,.48144-1.69727,0-3.24414-.24071-4.64258-.72216-1.39844-.48144-2.34962-1.50098-2.85351-3.06006-.04591-1.51318,.11425-3.09473,.48144-4.7456,.36622-1.6504,.75585-3.19776,1.16895-4.64209,.41309-1.44386,.79102-2.7046,1.13476-3.78223,.34375-1.07666,.46973-1.84522,.37793-2.30371-.59569,.1372-1.19238,.38966-1.78807,.75635-.917,.5962-1.67384,1.44434-2.26955,2.54443-.59569,1.10058-1.08885,2.32764-1.47851,3.6792-.38966,1.35302-.69922,2.72851-.92773,4.12647-.23047,1.39891-.43653,2.71629-.61914,3.95409-.09278,.59667-.1836,1.19287-.2754,1.78809-.09178,.59668-.32127,1.05566-.68749,1.3755-.23047,.229-.52735,.4126-.89453,.55029-.1836,.09132-.57325,.18262-1.16895,.27489-.34087,.05253-.70824,.07883-1.10182,.07883-.29425,0-.60316-.01471-.92651-.04416-.75684-.06884-1.54786-.29882-2.37304-.68799-.8252-.38867-1.53614-1.042-2.13184-1.95996-.51178-.74878-.88978-1.53509-1.14869-2.3526-1.03576,.91656-2.12409,1.75598-3.28685,2.4903-1.30666,.8252-2.61329,1.50243-3.91993,2.02882-1.30664,.52636-2.48829,.79102-3.542,.79102-2.15577,0-3.71386-.40187-4.67675-1.20362-.96289-.80176-1.62794-2.12012-1.99414-3.9546-.8252,.73389-1.73146,1.42188-2.7168,2.06349-.98633,.64256-2.00586,1.19238-3.06005,1.65038-1.05518,.45753-2.12109,.8252-3.19776,1.10009-1.07813,.2754-2.12158,.41309-3.12938,.41309-1.4214,0-2.81935-.50536-4.19484-1.51318-1.37549-1.00782-2.40722-2.26953-3.09473-3.78222-.13769-.45802-.27539-.9048-.4126-1.34131-.13769-.43507-.20653-.9048-.20653-1.40968-.04493-.73291-.04493-1.71923,0-2.95753,.04638-1.23778,.1494-2.63574,.30956-4.19482,.16113-1.55811,.37842-3.23241,.65333-5.02051,.27489-1.78809,.5952-3.59863,.96289-5.43262-1.05518-.32031-1.95996-.75684-2.7168-1.30664-.75635-.55029-1.20313-1.26074-1.34082-2.13232-.32033-1.65038,.05809-2.71631,1.13477-3.19774,1.07764-.48146,2.69287-.72218,4.84814-.72218,.50389-1.604,1.06591-3.10545,1.68505-4.50439,.61914-1.39796,1.2832-2.61328,1.99462-3.645,.70996-1.03127,1.48927-1.84474,2.33789-2.44142,.84814-.59521,1.75391-.89404,2.7168-.89404m84.52002,28.12793c.96193-.04542,1.83302-.2754,2.61329-.68798,.77831-.4126,1.43164-.92824,1.95996-1.54736,.52636-.61865,.91602-1.28273,1.16895-1.99415,.25096-.71045,.33202-1.36376,.24023-1.95996-.0918-.4126-.21778-.76758-.37794-1.0659-.16113-.29787-.47069-.44728-.92871-.44728-.5498,0-1.0996,.20654-1.65038,.61914-.5498,.41261-1.05469,.9624-1.51269,1.65039-.459,.68751-.8252,1.50196-1.1006,2.44141-.27538,.93993-.41211,1.93749-.41211,2.99169m-84.52002-31.12793c-1.58622,0-3.08009,.48395-4.44013,1.4384-1.13949,.80121-2.17689,1.87593-3.0856,3.19588-.80998,1.17467-1.573,2.56528-2.2666,4.13135-.39595,.89464-.77193,1.83342-1.12435,2.80672-1.56984,.13629-2.8535,.43275-3.88956,.89563-3.46578,1.54973-3.08732,5.26854-2.86581,6.45723,.27199,1.63513,1.14619,3.03052,2.53061,4.03778,.34113,.2478,.70267,.47821,1.08328,.69058-.19147,1.06089-.36858,2.11981-.52956,3.16695-.27938,1.81718-.50556,3.55589-.67226,5.16779-.16598,1.61567-.2747,3.09236-.32336,4.39107-.04741,1.30634-.0479,2.34277-.00154,3.1674,.009,.77486,.12521,1.52036,.34578,2.21732,.13181,.41927,.2658,.85407,.3998,1.29982l.0582,.19358,.08364,.18401c.9004,1.98113,2.26396,3.65022,4.05278,4.96088,1.89569,1.38896,3.9036,2.09324,5.96793,2.09324,1.25367,0,2.55636-.17039,3.87187-.50642,1.21964-.31139,2.44735-.73345,3.64871-1.25436,1.12241-.48763,2.22202-1.07249,3.27401-1.74104,.40228,.58955,.86392,1.10181,1.38391,1.53479,1.53402,1.27731,3.69171,1.8982,6.59638,1.8982,1.43324,0,3.00209-.33926,4.66298-1.00832,1.46327-.58948,2.94393-1.3549,4.40085-2.275,.24051-.15189,.47918-.3082,.71668-.46943,.82919,1.10107,1.82599,1.93015,2.97048,2.46921,1.14,.53764,2.27753,.8614,3.3796,.96164,.4114,.03747,.81469,.05649,1.19825,.05649,.54411,0,1.06855-.03829,1.55871-.11384,.85482-.1324,1.41756-.27338,1.87599-.47354,.68512-.27171,1.28204-.64865,1.77706-1.12219,.49844-.45359,.89448-1.00624,1.17685-1.63668,.88027,1.20628,2.07424,2.08501,3.53646,2.5884,1.70676,.58762,3.59733,.88556,5.61913,.88556,1.64653,0,2.96342-.2672,4.02593-.81689,.71211-.36954,1.80339-1.18513,2.32544-2.85638,.6755,.84915,1.5284,1.56561,2.54431,2.12847,1.93389,1.07085,4.28547,1.61366,6.99007,1.61366,2.06435,0,4.19598-.60054,6.33569-1.78497,1.7681-.97922,3.44631-2.16429,4.9945-3.52641,.64939,.68432,1.35904,1.3106,2.12404,1.8736,1.48015,1.08927,3.18069,1.93488,5.05442,2.51329,1.83649,.56766,3.82336,.85564,5.90442,.85564,2.85696,0,5.62848-.47607,8.23753-1.415,2.55083-.9184,4.86354-2.129,6.87429-3.59834,2.04007-1.49133,3.74664-3.18893,5.07276-5.04596,1.40102-1.96239,2.28993-3.94204,2.64226-5.88424,.36351-2.17782-.38898-3.63002-1.08298-4.47215-.71447-.86238-2.06711-1.88313-4.48212-1.88313-.49805,0-1.01439,.09891-1.53464,.29396-.48765,.18288-.9136,.42873-1.27007,.73259,.75179-1.81625,.95319-3.71922,.59905-5.66642-.50485-2.69521-1.76683-4.86436-3.75376-6.46278-1.98909-1.59949-4.74105-2.37685-8.41364-2.37685-4.56726,0-8.40489,.82864-11.40629,2.46292-2.73749,1.49104-4.86299,3.41661-6.33185,5.73364-.11007-1.19466-.45321-2.31784-1.02417-3.34875-.71567-1.2867-1.74595-2.34189-3.06484-3.14108-1.3466-.81369-3.00215-1.22528-4.92382-1.22528-1.7644,0-3.70629,.48785-5.77171,1.45003-.75208,.35037-1.48181,.75003-2.18618,1.19691-.29976-.30876-.63437-.5984-1.0028-.86713-1.62164-1.18135-3.65045-1.77982-6.03151-1.77982-2.03489,0-4.23457,.64136-6.543,1.90714-.33583-.51837-.81643-1.05217-1.50231-1.54666-.84862-.60977-1.83465-1.08211-2.93464-1.40674-.90511-.26564-1.86451-.47923-2.85585-.63611-1.02415-.1613-1.96776-.24292-2.80678-.24292-1.20587,0-3.01313,.41095-4.77491,2.36873-.96409,1.07188-1.82011,2.44489-2.54852,4.0864-.1065-.23909-.23309-.47624-.37966-.71107l-.02415-.03868-.02533-.03795c-.66107-.99075-1.64742-1.81395-3.01536-2.51662-1.34211-.68645-3.17244-1.01897-5.60023-1.01897-.57474,0-1.12885,.04854-1.661,.14519-.0494-.11356-.10241-.22702-.15899-.34053-.27092-.53864-.609-1.0479-1.00971-1.52327-.40129-.4735-.83113-.88248-1.28282-1.22186-.10028-.07516-.20269-.14584-.30709-.21198,.30344-.43546,.52245-.88594,.661-1.35704,.25609-.87492,.28646-1.74995,.09155-2.60591-.31932-1.63431-1.20734-3.12045-2.64042-4.41829-1.2078-1.09203-2.59971-1.96619-4.1397-2.6003-1.60557-.70656-3.27322-1.06474-4.95761-1.06474h0Zm4.07007,25.68699c.41881-.0187,.81816-.04317,1.19148-.07304-.19796,.75934-.36837,1.52381-.50937,2.28627-.24373,1.31185-.42926,2.59967-.55096,3.82527-.07991,.79504-.13445,1.53397-.16304,2.20748l-.01816,.0219c-.215,.25699-.35485,.40589-.43333,.48435-.76617,.76618-1.37472,1.29234-1.84435,1.6531,.02612-.21534,.05653-.44167,.09122-.67856,.15075-1.03587,.36013-2.203,.62273-3.47173,.26296-1.27139,.58442-2.61243,.95554-3.98637,.20165-.74845,.42169-1.50671,.65824-2.26868h0Z"/></g></g><g><path d="M160.20761,14.78264c-12.17792-9.29078-29.57451-6.94051-38.85618,5.22548-6.2291,8.16483-5.41891,12.81621-8.67998,47.39237-.48594,5.10027,4.55917,8.94172,9.34629,7.13044,32.50487-12.28444,37.18809-12.72968,43.41536-20.89211,9.2926-12.18033,6.9429-29.5727-5.22547-38.85618h-.00002Zm-40.63707,53.26527c3.26674-34.6133,2.49251-37.54608,7.29115-43.83591,6.96441-9.12866,20.01105-10.88541,29.14209-3.91918,9.13104,6.96624,10.88353,20.01352,3.91912,29.14218-4.77858,6.26355-7.47024,6.18123-40.35234,18.61292h-.00002Z"/><circle cx="143.39226" cy="36.82348" r="16.91362" style="fill:#b9cc33;"/><path d="M135.3207,38.18035c-.10729-.3644-.03263-.75184,.19283-1.04734l9.76362-12.79772c.39268-.5147,1.13566-.61316,1.64875-.22172l2.49395,1.90268c.51308,.39144,.61441,1.13403,.22173,1.64874l-8.42579,11.04417,2.31678,7.75774c.18928,.62732-.17224,1.27625-.79507,1.46638l-3.00752,.8984c-.61664,.182-1.27299-.16975-1.46352-.79546l-2.94571-9.85585-.00004-.00002Z" style="fill:#fff;"/></g><g><g><path d="M37.4488,151.81632c-.16162,0-.3208-.00537-.47803-.01514-.83887-.0542-1.66455-.17188-2.45508-.34961-.83398-.18652-1.61719-.46631-2.32568-.83203-.73828-.37988-1.38867-.86133-1.93262-1.4292-.05371-.05615-.10596-.11279-.15625-.1709-.07227,.05615-.146,.11133-.2207,.16602-.67383,.4917-1.38281,.92139-2.10693,1.27783-.73145,.35986-1.48145,.6499-2.229,.86133-.79199,.22314-1.55225,.3374-2.26074,.33984l-.10107-.00293c-1.27246-.08203-2.53174-.33643-3.74268-.75537-1.29639-.44971-2.44336-1.16064-3.40967-2.11328-.97363-.96045-1.7251-2.19043-2.23535-3.65674-.50049-1.43848-.68848-3.19434-.55811-5.21875,.12891-2.00488,.75244-4.03662,1.85254-6.03711,1.06836-1.94043,2.43896-3.71191,4.07471-5.26562s3.46631-2.81982,5.44141-3.76367c1.82031-.86963,3.66064-1.31055,5.46875-1.31055,.24072,0,.48145,.00781,.72168,.02295,.13672,.00879,.2749,.021,.41406,.03613,.11426-.36377,.26904-.71436,.46289-1.04639,.29883-.51367,.70215-.95361,1.19678-1.30664,.5376-.38135,1.20264-.57373,1.97998-.57373,.10596,0,.21582,.00342,.3291,.01074,1.00342,.06445,2.09814,.33789,3.34424,.83545,1.17383,.47168,2.28271,1.04736,3.29785,1.71338,1.03223,.67871,1.92334,1.41699,2.64893,2.19531,.93457,1.00586,1.37549,2.02002,1.31201,3.0166-.06104,.94189-.29248,2.60352-.7085,5.08105-.26611,1.58301-.72949,3.43506-1.38428,5.53369,.09229-.08154,.18652-.16553,.28369-.25293,.73047-.66016,1.66455-1.50879,2.80322-2.5459,.94971-.83496,1.88672-1.24951,2.80518-1.24951l.19678,.00635c.59717,.03857,1.14648,.2959,1.58691,.74414,.25244,.26025,.48242,.54883,.68896,.86377,.20557,.31494,.38525,.65527,.53662,1.01416,.15771,.37305,.2583,.70459,.30762,1.01123,.05371,.25928,.06689,.56348,.04248,.94727-.05811,.89453-.37695,1.82715-.97559,2.85254-.53223,.91162-1.23682,1.82666-2.09521,2.71973-.82227,.85645-1.76709,1.70703-2.80713,2.52686-1.05322,.8291-2.15674,1.55566-3.28027,2.15918-1.125,.60352-2.26221,1.09375-3.38086,1.45605-1.03516,.33496-2.02783,.50439-2.95264,.50439Z" style="fill:#b9cc33;"/><path d="M34.85056,122.17276c.07458,0,.15158,.00255,.23102,.00766,.83914,.05399,1.80081,.29834,2.88519,.73161,1.08234,.43459,2.09338,.95944,3.03119,1.57492,.93781,.61597,1.72865,1.27063,2.37451,1.96362,.64488,.69341,.94897,1.32542,.91214,1.89795-.05652,.87843-.28639,2.52092-.69067,4.92833-.40431,2.40788-1.27962,5.44608-2.62689,9.11497,.30739-.01826,.61848-.09407,.93425-.22736,.31474-.13237,.72322-.37477,1.22539-.72621,.50114-.35054,1.11824-.85684,1.8513-1.51938,.73203-.66118,1.6678-1.51099,2.80835-2.54984,.65053-.57188,1.24931-.85823,1.79549-.85823,.03313,0,.06604,.00105,.09879,.00316,.2292,.01474,.43274,.11403,.61349,.29802,.17883,.18388,.34816,.39603,.5051,.63579,.15692,.24025,.2934,.49892,.40955,.77409,.11612,.27567,.18768,.51041,.21379,.70325,.03003,.117,.03787,.30962,.02072,.57622-.04181,.64972-.2997,1.38039-.77373,2.19249-.47404,.81259-1.1012,1.62495-1.88144,2.43709-.78026,.81215-1.66541,1.6084-2.65442,2.38737-.98903,.77945-2.00967,1.45142-3.06096,2.01598-1.05228,.56497-2.09715,1.01488-3.13371,1.35071-.88815,.28745-1.71774,.43118-2.48862,.43118-.12967,0-.25757-.00406-.38391-.01219-.76431-.04916-1.50479-.15459-2.22147-.31577-.71863-.16081-1.37375-.39555-1.96747-.70146-.59375-.30589-1.1058-.68358-1.53622-1.13353-.4314-.44905-.72241-.98488-.87396-1.60803-.37772,.51254-.86862,.98845-1.47183,1.42873-.60324,.44075-1.23056,.82169-1.88391,1.14317-.65338,.32198-1.31207,.57668-1.9751,.76418-.66397,.18695-1.28247,.28102-1.85748,.28302-1.14505-.07365-2.26105-.29904-3.34808-.67567-1.08798-.37718-2.03629-.96445-2.84766-1.7639-.81042-.79941-1.43488-1.82565-1.87122-3.08102-.43646-1.25394-.59622-2.79726-.47833-4.62943,.11536-1.79332,.67245-3.59723,1.67026-5.41132,.99774-1.81311,2.26324-3.44724,3.79352-4.90109,1.53024-1.45337,3.21527-2.6185,5.05426-3.49734,1.62451-.77599,3.2316-1.16417,4.8219-1.16417,.20898,0,.41763,.0067,.62604,.02011,.53415,.03436,1.08383,.12701,1.64899,.27844,.05551-.26413,.12433-.58566,.20645-.96413,.08112-.37756,.21954-.73314,.4133-1.06541,.19376-.33276,.45056-.61235,.77249-.84154,.2764-.19661,.64648-.29504,1.10962-.29504m-3.44266,8.85403c-1.16074,.76889-2.0528,1.82228-2.67538,3.16217-.62253,1.3394-.97632,2.6778-1.06223,4.0132-.0639,.99304,.05215,1.71889,.34811,2.17799,.29587,.46008,.63467,.7019,1.01636,.72647,.02414,.00156,.04822,.00233,.0722,.00233,.28003,0,.5498-.10579,.811-.31915,.28256-.23076,.43829-.55585,.4653-.97589,.12335-1.33348,.24539-2.78163,.36526-4.34549,.11981-1.56337,.34024-3.04372,.65936-4.44164m3.44263-11.85403c-1.0968,0-2.05518,.28613-2.84851,.85043-.67087,.47758-1.21768,1.0751-1.62613,1.77663-.04645,.07967-.09122,.16025-.13425,.24161-.05597-.00073-.11197-.0011-.16797-.0011-2.03345,0-4.09082,.49026-6.11499,1.45715-2.11691,1.01167-4.0773,2.36717-5.82715,4.02908-1.74902,1.66171-3.21445,3.5558-4.35587,5.63002-1.20767,2.19562-1.89249,4.4379-2.03574,6.6651-.14316,2.22479,.07178,4.17897,.63885,5.80817,.58533,1.68405,1.4595,3.10786,2.59775,4.23064,1.12845,1.11186,2.46432,1.94002,3.97174,2.46262,1.3378,.46353,2.72992,.7444,4.13815,.83499l.10141,.00652,.10162-.00035c.84399-.00293,1.73898-.13593,2.66013-.39528,.83914-.23732,1.67514-.56029,2.4881-.96091,.51685-.25432,1.02573-.54187,1.52048-.85898,.46982,.38034,.98709,.71689,1.54544,1.00453,.82187,.42348,1.72571,.74721,2.68625,.96217,.86411,.19432,1.76819,.32307,2.68405,.38197,.18967,.01221,.38174,.01839,.57648,.01839,1.08139,0,2.22949-.19411,3.41235-.57695,1.20528-.39047,2.42596-.91585,3.62909-1.56181,1.20123-.64508,2.37831-1.41985,3.49878-2.30287,1.09161-.8598,2.08801-1.75667,2.96086-2.66519,.94098-.97945,1.71797-1.99008,2.30936-3.00381,.71855-1.231,1.10342-2.37984,1.17625-3.51154,.03255-.50603,.01245-.9297-.0634-1.31456-.06993-.41614-.20145-.85031-.40022-1.32216-.1868-.4426-.40944-.86249-.66254-1.25-.2612-.39903-.55208-.76389-.86617-1.08685-.71358-.72641-1.59917-1.13771-2.57161-1.20026-.09627-.0062-.1935-.00934-.29132-.00934-1.08658,.00002-2.15646,.38069-3.18869,1.13306,.05865-.29662,.11176-.58653,.15939-.87022,.42459-2.52834,.66203-4.23993,.72589-5.2325,.09169-1.42485-.48335-2.81561-1.70915-4.13364-.80956-.86864-1.79271-1.68478-2.92432-2.42805-1.09903-.72127-2.29659-1.34396-3.56035-1.85139-1.39926-.55908-2.6441-.86642-3.81039-.94145-.14566-.00937-.28687-.01385-.42368-.01385h0Z" style="fill:#231f20;"/></g><g><path d="M67.27448,154.07706c-.18848,0-.37402-.00586-.55713-.01758-2.68262-.17285-4.87256-.8667-6.50879-2.06201-.24023-.17578-.48779-.38232-.72949-.62402-.59033,.87793-1.89209,1.59863-4.57471,1.59863-.41162,0-.85693-.01514-1.33545-.0459-1.59082-.10254-2.99072-.42969-4.16162-.97363-1.26611-.58887-2.29395-1.49609-3.05518-2.69629-.71631-1.12744-1.21289-2.54639-1.47559-4.21533-.24658-1.57666-.2998-3.48926-.15918-5.68457,.12402-1.92285,.44189-3.85693,.94482-5.75,.50684-1.90332,1.12891-3.61182,1.8501-5.0791,.75049-1.53076,1.61426-2.79443,2.56689-3.75439,1.07812-1.08643,2.2334-1.63721,3.43408-1.63721,.08203,0,.16406,.00293,.24609,.00781,.82324,.05322,1.77148,.18652,2.81885,.396,1.06641,.21436,2.09033,.51221,3.04541,.88574,1.02734,.40283,1.91162,.90967,2.63037,1.50635,.71533,.59473,1.08203,1.22461,1.25391,1.79785,.53076-.25,1.06152-.46973,1.59082-.6582,1.64307-.58496,3.14502-.88135,4.46533-.88135,.18848,0,.37305,.00586,.5542,.01758,.6875,.04492,1.45801,.18994,2.35693,.44434,.90869,.25684,1.77344,.62744,2.56934,1.10156,.84863,.50879,1.56689,1.14697,2.13916,1.89941,.68164,.89795,.99072,1.92578,.91846,3.05518-.0625,.96436-.3457,2.07422-.86572,3.39453-.46533,1.17773-.97607,2.38525-1.51904,3.59131-.20703,.45996-.41064,.90918-.61084,1.34668l2.23486-2.37695s.22314-.20557,.44092-.41309c.50586-.48145,1.12402-.73633,1.78809-.73633l.16992,.00586c.74023,.04736,1.42529,.32715,1.979,.80908,.45068,.39355,.82617,.87744,1.11719,1.43945,.25293,.49219,.44922,.99951,.58594,1.51221,.12256,.46826,.21289,.89648,.2749,1.28955l.03125,.19971-.02246,.20068c-.12891,1.14697-.85107,2.39062-2.20801,3.80273-1.18018,1.22998-2.61377,2.40479-4.26074,3.49121-1.62939,1.07568-3.37695,2.00098-5.19287,2.74902-1.71924,.70557-3.32324,1.06348-4.77002,1.06348Z" style="fill:#b9cc33;"/><path d="M53.5125,124.6358c.0504,0,.10072,.00162,.15112,.00487,.76241,.04904,1.63556,.17262,2.62054,.36935,.98297,.19806,1.91409,.46837,2.7933,.81238,.87729,.34387,1.61768,.76514,2.21828,1.2636,.59964,.49838,.88074,1.0538,.84149,1.66373-.01967,.30592-.10211,.53943-.24644,.70251-.14534,.16351-.29927,.32597-.4628,.48782-.16351,.16185-.33791,.34274-.52304,.54124-.18517,.19897-.30942,.46881-.3689,.80972,1.69182-1.27061,3.38036-2.20586,5.06667-2.80707,1.48596-.52899,2.8069-.79376,3.96138-.79376,.15561,0,.30818,.00482,.45773,.01443,.57253,.03683,1.25461,.1669,2.04526,.39061,.78972,.22318,1.52628,.53923,2.20978,.94672,.68147,.40881,1.25276,.91405,1.71269,1.51852,.45897,.60442,.66434,1.28882,.61526,2.0517-.05157,.80173-.30722,1.78195-.76404,2.94038-.45781,1.15884-.95518,2.33394-1.49117,3.52531-.53703,1.19275-1.04988,2.30905-1.53769,3.35042-.48976,1.04173-.78876,1.82753-.89885,2.35634,.49973-.04393,1.13771-.26144,1.91016-.65279,.7724-.39087,1.51225-1.02409,2.22041-1.89816l2.34442-2.4935c.03979-.03499,.18329-.16972,.42847-.40337,.2261-.21504,.47726-.3228,.75494-.3228,.02339-.00002,.04694,.00076,.07071,.00229,.41908,.02696,.78319,.17508,1.09235,.44391,.30815,.26923,.56503,.60208,.76971,.99803,.20369,.39636,.3598,.79881,.46828,1.20831,.10751,.40944,.18811,.78825,.24274,1.13651-.08994,.79926-.68918,1.77664-1.79865,2.93112-1.10855,1.15552-2.44324,2.24832-4.00496,3.27789-1.56082,1.03059-3.20767,1.90158-4.93869,2.61404-1.54172,.63373-2.94046,.95087-4.19801,.95087-.15599,0-.30971-.00488-.46135-.01463-2.40421-.15466-4.31224-.74733-5.72035-1.77634-1.40999-1.02959-2.04698-2.59398-1.91194-4.69324,.06383-.99208,.26341-2.01395,.59973-3.06554,.33533-1.05118,.69424-2.00502,1.07585-2.86255,.37964-.85669,.72264-1.56311,1.02702-2.11842,.30344-.55537,.43597-.83429,.39857-.83669-.64034,.41861-1.22154,.96574-1.74358,1.64091-.52304,.67606-.97237,1.40356-1.34805,2.18394-.37668,.78081-.67628,1.5762-.90073,2.38559-.22447,.80986-.35803,1.53889-.39973,2.18718-.08104,1.25964,.08385,2.57362,.49373,3.94093-.00493,.07672,.00041,.14351,.01588,.20229,.0155,.05829,.02078,.12604,.01587,.20227-.06512,1.01241-1.23579,1.51923-3.51111,1.51923-.38214,0-.79535-.01428-1.23981-.04288-1.4126-.09088-2.62051-.36984-3.62566-.83702-1.0042-.46664-1.81245-1.18019-2.42004-2.13892-.6095-.95885-1.02924-2.17319-1.26099-3.64507-.2299-1.47079-.27878-3.25591-.14369-5.35564,.11783-1.83168,.41695-3.65219,.89731-5.46103,.48129-1.80832,1.06192-3.40945,1.74666-4.80263,.6828-1.39282,1.4453-2.51282,2.28555-3.35962,.78888-.79515,1.57869-1.19334,2.36838-1.19334m18.38217,20.4351l-.00737,.11459c-.00247,.03836,.01453,.05872,.05289,.06117,.00243-.03787-.00534-.06679-.02226-.08809-.01894-.02-.02576-.04884-.02325-.08768m-18.38217-23.4351c-1.61511,0-3.12849,.69997-4.49808,2.08043-1.06769,1.076-2.02649,2.47299-2.84958,4.15199-.76321,1.55284-1.42043,3.35431-1.95201,5.35158-.52859,1.99051-.86223,4.02213-.99203,6.04002-.14824,2.30411-.08987,4.32668,.17349,6.01154,.29561,1.87755,.86511,3.4884,1.69321,4.79112,.91516,1.44403,2.15657,2.5387,3.68758,3.25015,1.33882,.62227,2.9193,.99583,4.6973,1.11023,.5062,.03256,.98811,.04907,1.43242,.04907,1.12062,0,3.14026-.151,4.63509-1.10976,1.84117,1.27202,4.22206,2.01007,7.08115,2.19398,.2149,.01382,.4328,.02081,.65395,.02081,1.64381,0,3.43997-.39571,5.33858-1.17612,1.90558-.78432,3.7392-1.75488,5.45116-2.88527,1.73769-1.14558,3.25797-2.39236,4.5168-3.70454,1.6138-1.67929,2.4453-3.16461,2.61496-4.67255l.04517-.40135-.06259-.399c-.07047-.44922-.17305-.93153-.30489-1.43355-.1646-.62143-.4001-1.23087-.7016-1.81757-.38065-.73637-.87215-1.36877-1.46416-1.886-.80911-.70358-1.80093-1.10951-2.87352-1.17854-.08852-.00568-.17625-.00847-.26338-.00847-.24411,0-.48607,.02243-.72356,.06633,.44193-1.22627,.68808-2.30212,.7507-3.27556,.09514-1.47897-.32668-2.8824-1.21986-4.05859-.68968-.90646-1.54994-1.67174-2.55858-2.27682-.91443-.54517-1.90028-.96802-2.93727-1.26106-1.00256-.28368-1.87573-.44649-2.66849-.49748-.21251-.01367-.42926-.02063-.65031-.02063-1.51382,0-3.1387,.31648-4.9675,.9675-.1353,.04823-.27051,.09827-.40585,.15016-.27103-.36842-.59776-.71344-.97746-1.02902-.84528-.70152-1.86786-1.28969-3.041-1.74953-1.03612-.4054-2.14432-.72821-3.29558-.96019-1.13458-.22661-2.12099-.36441-3.02054-.42227-.1147-.00737-.2291-.01105-.34369-.01105h0Z" style="fill:#231f20;"/></g><g><path d="M90.43122,155.71085c-.4751,0-.96045-.01562-1.45605-.04736-4.62598-.29785-8.10059-1.72168-10.32764-4.2334-2.23193-2.51416-3.19043-6.48389-2.84863-11.79883,.08789-1.36523,.4873-2.81104,1.18604-4.29736,.69385-1.47363,1.65576-2.82812,2.85938-4.02588,1.20898-1.20361,2.65527-2.18213,4.29834-2.90723,1.43994-.63477,3.03564-.95654,4.74316-.95654,.30371,0,.6123,.01025,.92578,.03027,.46436,.02979,.8916,.10791,1.2793,.23291-.43994-.95654-.91211-1.82031-1.40869-2.57568-.68457-1.03809-1.33447-1.97998-1.93115-2.79785-.64404-.88184-1.18408-1.69238-1.60303-2.40869-.54883-.93457-.79688-1.89209-.73535-2.84277,.08447-1.32129,.69482-2.49072,1.81348-3.47461,.92822-.81641,2.03955-1.50537,3.30273-2.04834,1.20703-.51904,2.47168-.92725,3.75879-1.21289,1.28516-.28516,2.39355-.44434,3.29492-.47314l.07275-.00244,.07227,.00439c1.37109,.08838,2.64551,.65771,3.78711,1.69189,1.00732,.91309,1.91357,2.10303,2.69434,3.53711,.74951,1.37744,1.40723,2.97998,1.95508,4.76367,.53613,1.74268,.98682,3.5874,1.33789,5.48145,.35059,1.89453,.58496,3.83838,.69727,5.77832,.11182,1.93408,.11182,3.79443,.00049,5.52881-.146,2.26074-.62158,4.56055-1.41455,6.83643-.80811,2.31592-1.99902,4.43164-3.54004,6.28906-1.56787,1.89062-3.55225,3.40771-5.89746,4.50928-2.00684,.94189-4.3335,1.41943-6.9165,1.41943Zm2.48438-21.38965c-.09131,.14111-.19092,.2793-.29883,.41357-.44434,.55518-.93018,1.14697-1.45703,1.77393-.4624,.55176-.90527,1.18018-1.31543,1.86621-.3252,.54639-.51904,1.26123-.57422,2.12305-.02295,.35498,.00488,.80273,.08203,1.33008,.08057,.5498,.21094,1.08545,.3877,1.59375,.1582,.45898,.35791,.84863,.59619,1.1626,.08984,.11816,.12451,.12061,.1499,.12207h.00146c.53418,0,1.0415-.70654,1.30029-1.12842,.65869-1.07275,1.06006-2.66699,1.19336-4.73877,.10547-1.6377,.0835-3.15137-.06543-4.51807Z" style="fill:#b9cc33;"/><path d="M97.63112,111.37265c1.02997,.06625,1.98801,.502,2.87611,1.3064,.88716,.80434,1.68161,1.85211,2.38438,3.14244,.70271,1.29128,1.31621,2.78676,1.83852,4.48724,.52328,1.70056,.95528,3.47276,1.29707,5.31476,.34082,1.84242,.56566,3.70627,.67459,5.59058,.10886,1.88527,.10883,3.66724,.00079,5.34645-.13751,2.1376-.58276,4.28381-1.33385,6.43877-.75209,2.15585-1.84479,4.09767-3.27806,5.825-1.43336,1.72876-3.22685,3.09781-5.38058,4.10904-1.81445,.85193-3.908,1.27794-6.27945,1.27794-.44344,0-.8963-.01488-1.35918-.04466-4.2359-.27251-7.33749-1.51685-9.302-3.73141-1.96547-2.21463-2.79027-5.78445-2.47354-10.70795,.07608-1.18245,.42529-2.43446,1.04662-3.75517,.62131-1.32022,1.4747-2.52103,2.56007-3.60051,1.08446-1.08002,2.36699-1.94603,3.84569-2.59818,1.25319-.55267,2.63245-.82889,4.138-.82892,.27213,0,.54819,.00902,.82857,.02705,1.75592,.11295,2.57416,1.10544,2.45389,2.97501-.04417,.68665-.28514,1.30382-.72284,1.85056-.43768,.54674-.9162,1.12936-1.43452,1.74698-.51938,.619-1.00366,1.30621-1.4548,2.06201-.45125,.75723-.71243,1.68895-.7836,2.79517-.0295,.45839,.00169,1.00641,.09546,1.64462,.0928,.63815,.24335,1.26173,.45465,1.869,.20934,.60809,.48178,1.1331,.81825,1.57605,.33548,.44336,.75067,.68048,1.24744,.71243,.04683,.00301,.09344,.00452,.13982,.00452,.93666,0,1.7818-.61444,2.53714-1.84442,.79173-1.29001,1.26251-3.09947,1.41231-5.42792,.14729-2.28961,.05843-4.33633-.26663-6.13921-.32506-1.80289-.77774-3.40309-1.35803-4.80109-.58128-1.3976-1.22057-2.62701-1.91788-3.68781-.69931-1.05995-1.35638-2.01271-1.97227-2.85738-.61688-.84424-1.12361-1.60435-1.52008-2.28227-.39751-.67654-.57538-1.33943-.53362-1.98868,.05891-.91583,.49457-1.73041,1.30707-2.44514,.81248-.71425,1.78026-1.31306,2.90433-1.79639,1.12306-.48291,2.28647-.85922,3.49196-1.1264,1.20552-.26767,2.21153-.41289,3.01822-.43851m.0488-3.00307l-.14403,.00458c-1.00815,.03201-2.17696,.19829-3.57326,.50832-1.37669,.30513-2.73186,.74228-4.02675,1.29907-1.4086,.60565-2.65346,1.37924-3.70001,2.29924-1.40816,1.23874-2.21019,2.79657-2.32013,4.50574-.0808,1.25572,.23575,2.50093,.94084,3.70097,.44701,.76434,.99898,1.59444,1.6844,2.53247,.57654,.79071,1.21141,1.71057,1.88516,2.73158-1.74623,.05391-3.38867,.4155-4.88838,1.0769-1.812,.79913-3.41083,1.88164-4.75211,3.21742-1.32671,1.31949-2.38953,2.81676-3.15755,4.44876-.77994,1.65784-1.22601,3.28612-1.32599,4.83998-.37375,5.80971,.68069,10.02667,3.22356,12.89189,2.49905,2.81714,6.31895,4.41002,11.35318,4.73389,.52446,.03375,1.04655,.05086,1.55179,.05086,2.80478,0,5.34647-.52567,7.55447-1.56238,2.547-1.19588,4.70531-2.84776,6.41499-4.90979,1.65511-1.99466,2.93427-4.26654,3.80121-6.75163,.838-2.40436,1.34093-4.83806,1.49507-7.23434,.11549-1.79491,.11562-3.71671,.00041-5.71199-.11568-2.00087-.35779-4.00717-.71965-5.96333-.36226-1.95227-.82635-3.8531-1.3797-5.65135-.57713-1.87898-1.27399-3.57483-2.07076-5.03896-.86194-1.58255-1.87262-2.90482-3.00444-3.93097-1.40047-1.26848-2.98093-1.96718-4.69855-2.07768l-.1438-.00925h0Zm-6.78238,33.59827c-.02295-.11716-.04306-.23506-.0603-.35371-.08243-.561-.07947-.87978-.07042-1.02023,.03946-.61343,.16632-1.11552,.36688-1.45209,.11766-.19713,.23825-.38876,.36136-.57439-.00343,.05833-.00703,.11681-.0108,.17549-.09669,1.5029-.33264,2.52994-.58672,3.22493h0Z" style="fill:#231f20;"/></g></g></svg>