<?xml version="1.0" encoding="UTF-8"?><svg id="a" xmlns="http://www.w3.org/2000/svg" width="435.36343" height="107.12333" viewBox="0 0 435.36343 107.12333"><g><g><path d="M20.71655,87.45965c-4.70361,0-8.31445-1.21533-10.73242-3.61182-2.42285-2.3999-3.65137-6.35791-3.65137-11.76318,0-1.38721,.31006-2.87646,.9209-4.42676,.60596-1.53711,1.49219-2.9707,2.63281-4.26172,1.146-1.29785,2.54639-2.38232,4.1626-3.22266,1.6665-.86719,3.57617-1.30664,5.67627-1.30664,.49268,0,.94775,.05762,1.36279,.16943-.51709-.96338-1.0625-1.82715-1.62695-2.57617-.76514-1.01172-1.48633-1.9248-2.1416-2.71191-.71143-.85303-1.31104-1.63916-1.78125-2.33643-.61475-.90723-.92725-1.85742-.92725-2.8208,0-1.33984,.54004-2.55957,1.60498-3.62549,.88623-.88574,1.96582-1.65576,3.20947-2.2876,1.19043-.60547,2.44531-1.10107,3.72949-1.47363,1.2832-.37305,2.396-.60645,3.30664-.69434l.07129-.00684h.07227c1.39014,0,2.71436,.49219,3.93555,1.46289,1.0791,.85889,2.07422,2.00439,2.95801,3.40479,.84863,1.34619,1.61963,2.92725,2.2915,4.69971,.65723,1.73193,1.23389,3.57178,1.71338,5.46924,.479,1.89844,.84375,3.85303,1.0835,5.81055,.23926,1.95361,.36084,3.83936,.36084,5.60449,0,2.2998-.33203,4.66113-.9873,7.01855-.66748,2.39844-1.73633,4.61914-3.17627,6.60107-1.46387,2.0166-3.37451,3.68213-5.67871,4.9502-2.33203,1.28418-5.15479,1.93506-8.38916,1.93506Zm2.61572-21.94873c-.0918,.16943-.19434,.33496-.30811,.49707-.41406,.5918-.86816,1.22314-1.36084,1.89355-.43457,.59131-.84375,1.2583-1.21484,1.98193-.29639,.5791-.44678,1.31982-.44678,2.20117,0,.36279,.05762,.81641,.1709,1.34863,.11719,.55322,.28467,1.08936,.49854,1.5957,.19092,.45752,.42041,.8418,.68408,1.146,.10645,.12305,.14746,.12305,.17773,.12305,.50586,0,.96924-.67529,1.26855-1.2417,.6001-1.13525,.9043-2.78223,.9043-4.89551,0-1.69629-.12549-3.25439-.37354-4.6499Z" style="fill:#fff;"/><path d="M26.60524,42.00303c1.04883,0,2.04883,.37939,3.00195,1.13721,.95216,.75781,1.82617,1.76855,2.62305,3.03125,.79688,1.26367,1.51661,2.74023,2.15723,4.43066,.6416,1.69043,1.19531,3.45947,1.66211,5.30518,.46582,1.84619,.81543,3.72168,1.04883,5.62549,.2334,1.90479,.34961,3.71191,.34961,5.42188,0,2.17676-.31152,4.38232-.93262,6.6167-.62207,2.23535-1.60352,4.27588-2.94434,6.12109-1.34081,1.84668-3.0703,3.35205-5.18847,4.51807s-4.67383,1.74902-7.66602,1.74902c-4.31347,0-7.54004-1.05957-9.67677-3.17725-2.13769-2.11768-3.20702-5.68408-3.20702-10.69775,0-1.2041,.27246-2.49658,.81641-3.87646,.54394-1.37939,1.33105-2.65283,2.36133-3.81836,1.02929-1.16602,2.27343-2.12793,3.73048-2.88574,1.458-.7583,3.11913-1.13721,4.98437-1.13721,1.78809,0,2.68262,.95312,2.68262,2.85693,0,.69922-.2041,1.34082-.6123,1.92383s-.85548,1.20508-1.34082,1.86523c-.48632,.66162-.93261,1.39014-1.34082,2.18604-.4082,.79736-.6123,1.75928-.6123,2.88574,0,.4668,.06738,1.02051,.2041,1.66162,.13574,.64111,.3291,1.26367,.58301,1.86572,.25195,.60303,.5625,1.11768,.93261,1.54492,.36916,.42773,.80567,.64111,1.31153,.64111,1.01074,0,1.875-.67969,2.59472-2.04053,.71875-1.35986,1.07813-3.22559,1.07813-5.59668,0-2.33154-.22363-4.40137-.6709-6.2085-.44726-1.80713-1.01074-3.40039-1.69043-4.78027-.68066-1.37939-1.40918-2.58447-2.18555-3.61475-.77832-1.0293-1.50683-1.95264-2.18652-2.76904-.68066-.81592-1.24414-1.55371-1.69043-2.21533-.44726-.66016-.6709-1.3208-.6709-1.98193,0-.93262,.38868-1.78711,1.16602-2.56494,.77734-.77734,1.71973-1.44775,2.82812-2.01123,1.10743-.56299,2.2627-1.02051,3.46777-1.37012,1.20509-.3501,2.21582-.56299,3.03223-.6416m0-3h-.1441l-.14344,.01382c-1.01727,.09793-2.18883,.34225-3.58164,.74689-1.37334,.39844-2.71625,.92902-3.99035,1.57675-1.38445,.7038-2.59228,1.56653-3.58992,2.56418-1.33788,1.33871-2.04469,2.95898-2.04469,4.68625,0,1.26889,.39944,2.50186,1.18725,3.66464,.50226,.7446,1.11521,1.5491,1.87044,2.45441,.63852,.76694,1.34479,1.66156,2.09726,2.65668l.04673,.06238c-1.79659,.16113-3.45856,.63458-4.95606,1.41345-1.78011,.92584-3.32619,2.12424-4.59528,3.56192-1.25557,1.42038-2.23278,3.0033-2.9031,4.70319-.68055,1.72641-1.02556,3.40082-1.02556,4.97699,0,5.90244,1.33971,10.09883,4.09571,12.82903,2.70869,2.68456,6.67493,4.04597,11.78808,4.04597,3.49022,0,6.55619-.71358,9.11274-2.12091,2.49864-1.37546,4.5743-3.18677,6.16935-5.38358,1.54492-2.1261,2.6914-4.50826,3.40691-7.07939,.6918-2.48875,1.04245-4.98524,1.04245-7.42101,0-1.82596-.12511-3.77292-.37188-5.78674-.24759-2.01956-.62363-4.03635-1.11771-5.99457-.49429-1.95432-1.08836-3.84991-1.76618-5.63577-.70671-1.86484-1.52259-3.53622-2.42442-4.96634-.97439-1.54398-2.08194-2.81491-3.29242-3.77832-1.49419-1.18802-3.13235-1.78992-4.87016-1.78992h0Zm-4.83534,34.63963c-.04911-.17055-.09216-.34323-.12914-.51787-.12109-.56784-.13904-.89523-.13904-1.04022,0-.64127,.09512-1.15222,.28271-1.51865,.13474-.26273,.2748-.51691,.41944-.76135,.0013,.11795,.00195,.23666,.00195,.35617,0,1.65125-.20041,2.75505-.43593,3.48192h0Z"/></g><g><path d="M48.69897,59.47674c-.91846,0-1.85791-.06348-2.79248-.18799-1.09912-.14648-2.10693-.521-2.99463-1.11328-.91846-.6123-1.66846-1.49365-2.22998-2.61914-.55664-1.11182-.82764-2.51367-.82764-4.28369,0-1.33838,.22656-2.63867,.67383-3.86572,.43262-1.19287,.99805-2.27686,1.6792-3.2207,.70752-.98291,1.53125-1.77979,2.44629-2.3667,1.00146-.6416,2.02881-.96631,3.05518-.96631,.94287,0,2.02979,.20557,3.32227,.62793,1.21631,.39941,2.40234,.91797,3.52686,1.54248,1.15381,.6416,2.15771,1.36328,2.98486,2.146,1.04639,.99316,1.57617,2.04541,1.57617,3.12988,0,.72998-.30664,1.7876-1.76855,2.6792-.24414,.1333-.58789,.40381-.98438,1.19775-.4585,.91699-.96973,1.87939-1.51953,2.86084-.61426,1.0957-1.35938,2.07373-2.21533,2.90674-1.04297,1.0166-2.36621,1.53271-3.93213,1.53271Z" style="fill:#fff;"/><path d="M47.70875,42.35312c.77637,0,1.72852,.18506,2.85645,.55371,1.12598,.36963,2.21484,.84521,3.26465,1.42822,1.04883,.58301,1.94238,1.22412,2.68164,1.92383,.7373,.69971,1.10742,1.37988,1.10742,2.04053,0,.50537-.34961,.97168-1.0498,1.39893-.58301,.31152-1.09863,.91406-1.54492,1.80762-.44727,.89453-.94239,1.82715-1.48633,2.79785-.54492,.97217-1.19531,1.82764-1.95313,2.56543-.7578,.73877-1.71972,1.10742-2.88573,1.10742-.85547,0-1.71972-.05811-2.59375-.1748-.875-.1167-1.66211-.4082-2.36134-.87451-.6992-.46631-1.27343-1.146-1.71972-2.04053-.44727-.89355-.66991-2.09863-.66991-3.61426,0-1.16602,.19336-2.28271,.583-3.35205,.3877-1.06836,.88282-2.02051,1.48633-2.85645,.60155-.83545,1.28223-1.49609,2.04004-1.98242,.75781-.48535,1.50586-.72852,2.24512-.72852m0-3c-1.31779,0-2.61754,.40448-3.86311,1.20224-1.07691,.6911-2.03723,1.61777-2.85661,2.75571-.76038,1.05322-1.3909,2.26077-1.87183,3.58606-.50581,1.38812-.76295,2.86148-.76295,4.37543,0,2.00845,.32293,3.62994,.98723,4.95709,.67792,1.35883,1.59968,2.43448,2.73788,3.19357,1.07987,.72015,2.30093,1.17514,3.62926,1.35229,.99946,.13345,2.00571,.20114,2.99035,.20114,1.94307,0,3.66508-.67752,4.9799-1.95929,.95777-.93246,1.79127-2.02527,2.4759-3.2467,.56158-1.00217,1.08391-1.98553,1.55269-2.92307,.16782-.336,.2926-.48746,.33841-.53696l.01266-.00674,.0732-.04468c2.16405-1.32047,2.48717-3.04773,2.48717-3.95981,0-1.51187-.68713-2.93054-2.04231-4.21661-.92087-.87158-2.02655-1.668-3.28922-2.36987-1.20845-.67111-2.48206-1.22824-3.7865-1.65643-1.44929-.47369-2.6885-.70337-3.79213-.70337h0Z"/></g><g><path d="M112.35815,87.69305c-1.29492,0-2.58594-.17529-3.83887-.521-1.33887-.36963-2.54492-1.01416-3.58594-1.91504-.56836-.49268-1.07812-1.07568-1.52344-1.74219-1.50293,1.04492-3.13184,1.93018-4.85352,2.63721-2.01855,.8291-3.92676,1.24951-5.66992,1.24951-1.50879,0-2.89258-.36377-4.11328-1.08154-1.16602-.68604-2.17285-1.61084-2.99219-2.74854-.33301-.4624-.63477-.95557-.90234-1.47607-.60938,.80127-1.3833,1.5376-2.31494,2.20068-1.4165,1.00928-3.25195,1.83008-5.4541,2.43896-2.16406,.59668-4.7207,.89941-7.6001,.89941-1.55566,0-3.29053-.09033-5.15674-.26904-1.96533-.18799-3.83643-.646-5.56104-1.36084-1.53809-.6377-2.87793-1.55664-3.99365-2.73828-1.56689,1.09912-3.21338,2.04248-4.89648,2.80615-1.88525,.85498-3.47998,1.27051-4.87549,1.27051-1.69727,0-3.15137-.28516-4.32129-.84717-1.23193-.59131-2.22852-1.49854-2.96191-2.69678-.68408-1.11719-1.16455-2.53906-1.42725-4.2251-.24414-1.5625-.36768-3.43506-.36768-5.56543,0-1.62549,.14404-3.31641,.42871-5.02637,.2915-1.74854,.75781-3.3667,1.38623-4.81152,.66943-1.54004,1.57422-2.81641,2.68896-3.79443,1.22949-1.07861,2.74902-1.62549,4.5166-1.62549,2.20752,0,3.90723,.26855,5.1958,.82031,1.31738,.56494,2.29053,1.23291,2.97461,2.04346,.70166,.83203,1.12793,1.69531,1.26758,2.56641,.11475,.71387,.16553,1.17334,.16553,1.49121,0,.44189-.03809,.86865-.11377,1.26953-.07227,.38428-.18994,.81055-.34912,1.26611-.14404,.40918-.31641,.86621-.51953,1.37402-.18994,.4751-.41846,1.07471-.68408,1.79688-.24219,.66553-.41162,1.34033-.50342,2.00586,.1709-.16016,.34521-.32422,.52197-.4917,.03809-.09863,.07666-.19189,.11816-.28516,.47461-1.05615,1.0376-2.00342,1.67334-2.81689,.65381-.8335,1.34033-1.50488,2.04102-1.99561,.87354-.61084,1.55225-.88281,2.20117-.88281,.23584,0,.47852,.02246,.73047,.06738-.01514-.06152-.02881-.12354-.0415-.18506-.29443-1.4707-.17676-2.84424,.34814-4.09326,.51514-1.22656,1.38184-2.28369,2.57568-3.14355,1.10986-.7998,2.50635-1.43604,4.1499-1.89014,1.60059-.44189,3.44092-.66602,5.4707-.66602,1.71436,0,3.31689,.13574,4.7627,.4043,1.30713,.24268,2.50049,.5835,3.55566,1.01416,.15527-1.4751,1.02539-2.57617,2.48975-3.12891,.96143-.3623,2.14893-.57715,3.60791-.65088,.12598-.53857,.27734-1.15283,.45215-1.84277,.33105-1.29883,.75879-2.56055,1.27246-3.75098,.53809-1.25146,1.21289-2.36621,2.00488-3.3125,.98047-1.17188,2.22461-1.79102,3.59863-1.79102,1.05371,0,2.22656,.20264,3.58789,.61963,1.3125,.40283,2.57715,.96045,3.76074,1.65723,1.20703,.71094,2.25195,1.5376,3.10742,2.45703,1.02051,1.1001,1.53809,2.30664,1.53809,3.58691,0,.46094-.09375,.99365-.29395,1.67627-.05859,.1958-.1377,.41357-.23926,.65576,.38086,.12793,.66602,.31201,.86523,.47803,.41504,.34668,.73926,.78564,.96875,1.30859,.18652,.42822,.32031,.87988,.39844,1.34619,.05078,.31006,.10938,.59814,.17773,.86914l.04688,.18213v.08838c.03809,.16064,.05762,.33154,.05762,.50781,0,.86768-.15625,1.75098-.46387,2.62598-.30078,.85352-.70117,1.62988-1.19141,2.30615-.49902,.68945-1.06445,1.26465-1.67969,1.70703-.74414,.53564-1.51953,.80713-2.30371,.80713-.64355,0-1.19824-.06396-1.69629-.19629-.04785-.01221-.10449-.02637-.17285-.04248-.15234,.53906-.29785,1.09229-.43359,1.65527-.24219,1.00342-.45117,2.00293-.62109,2.96973-.16797,.95166-.29004,1.84082-.3623,2.64307-.07422,.80811-.11133,1.48779-.11133,2.02246,0,.08057,.00098,.15527,.00195,.22461,.20508-.13623,.45801-.32715,.75684-.5708,.39941-.32764,.92285-.79492,1.55176-1.38721,.09863-.09912,.34082-.36426,.75391-.88574,.25098-1.02832,.61133-2.04639,1.07324-3.03174,.95508-2.03369,2.22852-3.91748,3.78516-5.59961,1.55566-1.68018,3.32715-3.08203,5.26562-4.1665,2.02539-1.13232,4.10547-1.70654,6.18262-1.70654,.14551,0,.29297,.00342,.44141,.01074,.0918-.38086,.22656-.75146,.40332-1.10547,.26953-.53906,.64746-1.00928,1.12402-1.39648,.58398-.47461,1.35352-.71533,2.28711-.71533,1.02148,0,2.14648,.20557,3.43945,.62793,1.21973,.40088,2.38086,.9126,3.45215,1.521,1.08887,.61914,2.03906,1.30859,2.82422,2.0498,1.00879,.95361,1.51953,1.94775,1.51953,2.95605,0,.95752-.12695,2.65674-.38672,5.1958-.16797,1.64209-.52441,3.57812-1.0625,5.78369,.10742-.10742,1.16895-1.19971,1.16895-1.19971,.06934-1.53467,.25098-3.05664,.54297-4.53271,.38965-1.96143,.90918-3.7334,1.54395-5.26709,.66016-1.59912,1.45215-2.93457,2.35352-3.96826,1.09082-1.25,2.30469-1.88379,3.6084-1.88379,.83496,0,1.80371,.07275,2.88086,.2168,1.0957,.14844,2.15234,.38379,3.14258,.69922,1.0625,.33984,1.99023,.79492,2.75781,1.35254,.77148,.56152,1.18262,1.18262,1.39062,1.75684,.5293-.29346,1.06055-.55518,1.59277-.78418,1.85352-.79736,3.54297-1.20117,5.02441-1.20117,.69629,0,1.48633,.09668,2.41406,.2959,.93848,.20117,1.83691,.52002,2.67188,.94775,.89062,.45898,1.6582,1.05713,2.28516,1.78027,.74707,.8623,1.125,1.87891,1.125,3.02344,0,.6084-.08301,1.2793-.25098,2.02832,.09375-.19287,.19336-.3833,.29785-.57129,.9541-1.71484,2.26953-3.20703,3.9082-4.43506,1.60352-1.20312,3.49023-2.15332,5.60645-2.82422,2.10156-.66553,4.3623-1.00293,6.71973-1.00293,.875,0,1.87305,.07324,2.96582,.2168,1.2168,.16162,2.36914,.54639,3.42578,1.14307,1.11035,.62695,2.0459,1.54541,2.78223,2.72998,.4668,.75537,.79102,1.66162,.96777,2.70801,.6416-.93164,1.4082-1.7793,2.29199-2.5332,1.46387-1.24902,3.27441-2.22803,5.37988-2.90918,2.06543-.66699,4.42773-1.00537,7.01953-1.00537,3.34277,0,6.06445,.75488,8.08887,2.24414,2.16602,1.59668,3.26367,3.79736,3.26367,6.54297,0,1.05518-.22852,2.09229-.67969,3.09326,.12109-.14014,.23926-.28076,.35645-.42236,.38184-.54443,.98535-.70801,1.19922-.7666,.34961-.09521,.63184-.13965,.88867-.13965,1.27344,0,2.24512,.15674,2.96973,.47852,.62793,.2793,1.67871,1.0249,1.67871,2.88672,0,1.7085-.65137,3.49951-1.93555,5.32373-1.19434,1.69727-2.74707,3.26318-4.61523,4.65332-1.84375,1.37354-3.91992,2.52588-6.16895,3.42529-2.30664,.92188-4.63281,1.38965-6.91113,1.38965-2.37988,0-4.52539-.34473-6.37598-1.02441-1.88574-.69287-3.49707-1.68945-4.79102-2.96289-.42969-.42188-.83105-.88428-1.20117-1.3833-1.05371,.87598-2.19922,1.68701-3.41406,2.41699-1.45215,.87012-3.00391,1.58301-4.61328,2.11914-1.66406,.55371-3.37305,.83447-5.0791,.83447-4.55566,0-8.25293-1.22461-10.99023-3.63965-.53613-.47266-1.02734-1.00586-1.46973-1.59521-.33789,.28125-.68359,.55566-1.03613,.82178-1.58203,1.19727-3.29297,2.24854-5.08301,3.12402-1.91113,.93311-3.70117,1.40576-5.32324,1.40576-2.72754,0-4.98926-.55957-6.72266-1.6626-.25781-.16406-.52539-.36035-.78906-.59375-1.08789,1.96484-4.60254,1.96484-5.89648,1.96484-1.61816,0-3.05566-.24023-4.27539-.71436-1.31738-.51221-2.41504-1.3623-3.2627-2.52637-.16699-.229-.32617-.47412-.47559-.73438-.68945,.5498-1.40039,1.05322-2.12305,1.50391-1.09961,.68457-2.21973,1.25488-3.33008,1.69531-1.20215,.47607-2.35938,.71777-3.43848,.71777-.85156,0-1.69531-.06494-2.50781-.19385-.85645-.13428-1.66602-.3667-2.40625-.68945-.77246-.3374-1.46094-.78125-2.04785-1.31982-.06348-.05811-.125-.11768-.18457-.17871-.0752,.06689-.15234,.13232-.23047,.19775-.64648,.53955-1.33594,1.021-2.04883,1.43066-.71582,.41211-1.45703,.75439-2.2002,1.01709-.78711,.27734-1.54785,.44238-2.26367,.49072l-.05078,.00342h-.05078Zm68.15234-13.02393c.12207,.23926,.26074,.45801,.41699,.65625,.63867,.81152,1.68262,1.20605,3.19336,1.20605,1.05859,0,2.02344-.19824,2.86719-.58984,.43652-.20215,.85645-.43994,1.25781-.71143-.66406,.22363-1.34277,.33691-2.02539,.33691-.48242,0-1.02344-.00928-1.62598-.03027-.64551-.021-1.30078-.08643-1.94531-.19434-.70996-.11768-1.38867-.32422-2.01465-.61377-.04199-.01904-.08301-.03906-.12402-.05957Zm-115.16748,1.74658c.20312,.03271,.47754,.05713,.84424,.05713,.61328,0,.92041-.08203,1.05322-.13379-.00293-.02979-.0083-.06738-.01758-.11328-.03857-.15918-.22559-.61426-.91748-1.28955-.0791-.07715-.15918-.15479-.24023-.23242-.04346,.22266-.10303,.44434-.17871,.66553-.12549,.36328-.30713,.7124-.54346,1.04639Zm100.1665-6.14697c-.2168,.62061-.44336,1.24707-.67969,1.87598-.19824,.52881-.39258,1.04395-.58398,1.54443l1.12012-1.35693c0-.04297-.00098-.08691-.00098-.13086,0-.65967,.04785-1.3042,.14453-1.93262Zm-83.40771,.99707c.47363,.3584,.91797,.71191,1.33105,1.05908,.03711-.71631,.08545-1.48438,.14502-2.30176,.00879-.11621,.01758-.23242,.02686-.34863-.25,.28809-.51709,.55127-.7998,.78906-.30664,.25732-.62305,.46387-.94824,.61816,.08203,.06152,.16406,.12256,.24512,.18408Z" style="fill:#fff;"/><path d="M93.93533,45.44297c.89355,0,1.94334,.18457,3.14842,.55371,1.2041,.36963,2.35057,.87451,3.43944,1.51562,1.08791,.64111,2.01077,1.37012,2.76956,2.18604,.75778,.81641,1.1367,1.67188,1.1367,2.56543,0,.31152-.0791,.72852-.2334,1.25342-.15625,.52441-.54491,1.33154-1.16602,2.41895h1.34081c.38771,0,.69925,.09766,.93263,.2915,.2334,.19531,.41698,.44727,.55371,.7583,.13574,.31152,.2334,.64111,.29198,.99072,.05763,.3501,.125,.68066,.2041,.99121,0,.07812,.00879,.14551,.02835,.2041,.01953,.05811,.02928,.12646,.02928,.2041,0,.69922-.12596,1.40918-.37892,2.12793-.25291,.71924-.58299,1.36084-.99121,1.92383-.40721,.56348-.85446,1.02002-1.34081,1.36963-.48631,.3501-.96193,.5249-1.42773,.5249-.50584,0-.94334-.04834-1.31154-.146-.3701-.09619-.90428-.2041-1.6035-.32031-.31152,.97168-.59279,1.98193-.8457,3.03125-.25293,1.04932-.46582,2.06982-.64064,3.06055-.17479,.99121-.30173,1.91504-.37889,2.76904-.07812,.85547-.11719,1.5742-.11719,2.15723,0,.89453,.07811,1.45753,.2334,1.69043,.15527,.2334,.34961,.3501,.58301,.3501,.15529,0,.33984-.02928,.55371-.08739,.21289-.05861,.46678-.17532,.75781-.35011,.29199-.1748,.65039-.43703,1.0791-.78662,.42676-.35008,.97072-.83545,1.63185-1.45753,.23338-.2334,.53418-.58299,.90331-1.04932,.06421-.08124,.13741-.16234,.20287-.24353,.22169-1.01526,.56384-2.04112,1.05103-3.0797,.89355-1.90381,2.07033-3.64355,3.52734-5.21777,1.45706-1.57373,3.08984-2.86523,4.89748-3.87646,1.80664-1.01025,3.62306-1.51562,5.45018-1.51562,.54396,0,1.10742,.05811,1.69046,.1748,.03905-.27148,.08786-.60205,.14647-.99121,.0576-.38818,.17482-.75781,.34961-1.10742,.1748-.3501,.41699-.65039,.72852-.90381,.31056-.25244,.75783-.37891,1.34082-.37891,.85451,0,1.84572,.18506,2.97363,.55371,1.12598,.37012,2.18555,.83643,3.17676,1.39941,.99121,.56348,1.83592,1.17578,2.53613,1.83643,.69922,.66113,1.04881,1.28223,1.04881,1.86523,0,.89453-.12596,2.5752-.37889,5.04297-.25291,2.46826-.9424,5.60643-2.06934,9.41504,.31055-.03857,.62111-.13574,.93263-.2915,.31052-.15479,.70897-.42726,1.19528-.81642,.48537-.38818,1.07814-.94189,1.77835-1.66161,.36095-.37079,.77591-.79839,1.24057-1.27831,.04164-1.62386,.21443-3.24794,.5358-4.87209,.3701-1.86523,.85448-3.52686,1.45799-4.98438,.60156-1.45703,1.30177-2.64258,2.09863-3.55615,.7959-.9126,1.62209-1.36963,2.47752-1.36963,.77637,0,1.66992,.06836,2.68166,.20361,1.00977,.13672,1.97169,.3501,2.88574,.6416,.91211,.2915,1.69043,.67041,2.33203,1.13672,.64062,.46631,.96191,1.01123,.96191,1.63232,0,.31152-.06836,.55371-.2041,.72852-.1367,.17529-.28224,.3501-.4375,.5249s-.32031,.36963-.4951,.58301c-.17482,.21387-.28322,.49561-.32129,.84521,1.63278-1.39893,3.28415-2.45752,4.95508-3.17725,1.6709-.71875,3.14842-1.07861,4.43065-1.07861,.58301,0,1.28319,.0874,2.09961,.2627,.81543,.1748,1.58301,.44727,2.30273,.81592,.71777,.37012,1.33008,.84521,1.83592,1.42822,.5049,.58301,.75781,1.26367,.75781,2.04053,0,.81641-.19531,1.82715-.58299,3.03174-.38866,1.20508-.81639,2.4292-1.28224,3.67236-.46678,1.24463-.91405,2.41016-1.34081,3.49805-.42871,1.08836-.68066,1.90479-.75783,2.44824,.50392-.07716,1.13675-.33934,1.89456-.78661,.75778-.44679,1.46678-1.13721,2.12791-2.06984l1.53784-1.86192c-.00568-.21669-.0222-.42262-.0222-.64491,0-1.86523,.42871-3.56494,1.28317-5.10107,.85451-1.53467,2.01956-2.85645,3.49709-3.96387,1.47655-1.10791,3.19629-1.97217,5.16016-2.59424,1.96191-.62158,4.0508-.93311,6.26662-.93311,.81641,0,1.73926,.06836,2.76953,.2041,1.0293,.13672,1.99121,.45752,2.88477,.96191,.89453,.50537,1.6416,1.24414,2.24512,2.21533,.60156,.97217,.90332,2.29346,.90332,3.96436,0,1.12744-.16602,2.12793-.49512,3.00244-.33105,.87402-.75781,1.62305-1.2832,2.24414-.52441,.62207-1.12695,1.08885-1.80664,1.39941-.68066,.31152-1.37012,.46631-2.06934,.46631-.4668,0-.99121-.00929-1.57422-.02928-.58301-.01906-1.16602-.07716-1.74902-.17482-.58301-.09668-1.12794-.26221-1.63284-.49561-.50487-.23293-.9326-.58301-1.28221-1.04932-.27246-.34961-.41797-.72852-.4375-1.13672-.01952-.4082,.03809-.81641,.17479-1.22412,.13577-.4082,.32129-.77734,.55371-1.10791,.23343-.32959,.5049-.57275,.81642-.72852,.2334-.1167,.41701-.18408,.55371-.2041,.13574-.01904,.3008-.12598,.49608-.3208,.11624-.1167,.05765-.34961-.17479-.69971-.11717-.15479-.25392-.32959-.4082-.52441-.31152,0-.65137,.06836-1.02051,.2041-.37013,.13672-.70996,.38867-1.02052,.75781-.31149,.36963-.58299,.87451-.81541,1.51562-.2334,.64111-.35059,1.46729-.35059,2.47754,0,2.09863,.4668,3.74121,1.39943,4.92627,.9326,1.18605,2.39059,1.77831,4.37207,1.77831,1.2832,0,2.44922-.24266,3.49805-.72899,1.0498-.48535,2.00195-1.13672,2.85645-1.95314,.6955-.66405,1.33453-1.41776,1.94073-2.22382-.00378-.15398-.01788-.30136-.01788-.45781,0-1.86523,.34961-3.5752,1.0498-5.12988,.69922-1.5542,1.70898-2.89502,3.03125-4.02246,1.32031-1.12695,2.94434-2.00146,4.86816-2.62354,1.92285-.62109,4.10938-.93262,6.55762-.93262,3.03223,0,5.43066,.65088,7.2002,1.95264,1.76758,1.30273,2.65234,3.08057,2.65234,5.33447,0,1.04932-.28223,2.06934-.84473,3.06055-.56445,.99121-1.36133,1.92383-2.39062,2.79834-1.03027,.87453-2.25488,1.67139-3.67285,2.39012-1.41895,.71974-2.9834,1.31154-4.69336,1.77785,.52081,.72929,1.26669,1.09424,2.23721,1.09424,.11591,0,.2352-.00522,.35751-.01562,1.14551-.09669,2.39062-.48535,3.73145-1.166,1.34082-.67921,2.69043-1.59279,4.05078-2.73978,1.36035-1.146,2.56543-2.36131,3.61523-3.64354,.03809-.07764,.16504-.146,.37891-.2041,.21289-.05811,.37891-.0874,.49512-.0874,1.0498,0,1.83691,.1167,2.36133,.34961,.52441,.2334,.78711,.73877,.78711,1.51562,0,1.39941-.55371,2.88574-1.66211,4.45998-1.10742,1.5742-2.53516,3.01218-4.28418,4.31395-1.74902,1.30273-3.69336,2.38133-5.83008,3.23537-2.1377,.85448-4.25586,1.2827-6.35449,1.2827-2.21484,0-4.16797-.31152-5.8584-.93262-1.69141-.62108-3.11035-1.49561-4.25586-2.62354-.77362-.75981-1.41217-1.63477-1.93781-2.60658-.24036,.22849-.48608,.45631-.74286,.68274-1.14648,1.01125-2.40039,1.92384-3.75977,2.74023-1.36133,.81593-2.79883,1.47707-4.31445,1.98195-1.51562,.50439-3.05177,.75781-4.60548,.75781-4.19727,0-7.53026-1.08742-9.99806-3.26465-.86917-.76619-1.57657-1.69273-2.13957-2.76245-.687,.65318-1.43689,1.29321-2.26276,1.91724-1.51564,1.14697-3.12891,2.13768-4.83791,2.97313-1.71092,.83545-3.26463,1.25343-4.66405,1.25343-2.44824,0-4.42188-.47656-5.91701-1.42822-1.49704-.95215-2.2451-2.49707-2.2451-4.63477,0-1.01025,.13574-2.05957,.40822-3.14793,.27147-1.08791,.57323-2.07864,.90428-2.97316,.3291-.89355,.63087-1.63232,.90332-2.21533,.27147-.58301,.38768-.87451,.34961-.87451-.62206,.46631-1.1758,1.05908-1.66113,1.77783-.48631,.71971-.89453,1.48682-1.22461,2.30275-.33105,.81639-.58299,1.64258-.75781,2.47803-.17479,.83592-.26268,1.58397-.26268,2.24413,0,1.28271,.25291,2.60449,.75781,3.96437,0,.07811,.00977,.14549,.02928,.20407,.01953,.05811,.0293,.12648,.0293,.20412,0,1.2041-1.57422,1.80713-4.72169,1.80713-1.43846,0-2.68163-.2041-3.73145-.61229-1.04881-.40775-1.91502-1.07863-2.59373-2.01125-.46906-.6427-.84857-1.42371-1.15131-2.32484-.1629,.15298-.31085,.30733-.48053,.45961-.95216,.85498-1.94337,1.60303-2.97266,2.24414-1.03027,.6416-2.06056,1.16602-3.08984,1.57423-1.03027,.40819-1.99219,.61229-2.88574,.61229-.77832,0-1.53613-.05858-2.27344-.17529-.73927-.11621-1.41896-.31152-2.041-.58299-.62209-.2715-1.16603-.62111-1.63185-1.04932-.46678-.42728-.79686-.95166-.99121-1.57375-.34961,.54442-.81642,1.05908-1.39941,1.54492-.58301,.48631-1.19435,.91357-1.83592,1.28224-.6416,.36913-1.29298,.67039-1.95314,.90379-.66113,.23291-1.28223,.36865-1.86523,.4082-1.16603,0-2.3125-.15576-3.43944-.4668-1.12796-.31152-2.12796-.8452-3.00296-1.60301-.83752-.72621-1.51091-1.68111-2.02744-2.85426-.25325,.20515-.50351,.41168-.77138,.61009-1.57323,1.16553-3.28418,2.12746-5.1299,2.88527-1.84668,.75829-3.54686,1.13721-5.10057,1.13721-1.24414,0-2.36131-.29149-3.35252-.87453-.99121-.58299-1.83595-1.35983-2.53613-2.33202-.69923-.97119-1.23439-2.08887-1.60255-3.35205-.19458-.66559-.33453-1.34564-.42657-2.03845,.04381,.90485-.13214,1.78853-.53438,2.65076-.54492,1.16553-1.45799,2.20605-2.7402,3.11867-1.28224,.91354-2.94435,1.65137-4.98439,2.21532-2.041,.56299-4.44043,.8452-7.2002,.8452-1.51562,0-3.18652-.08739-5.01369-.26218-1.82712-.17482-3.53612-.59279-5.12987-1.25342-1.59375-.66066-2.9248-1.65138-3.99315-2.97316-.11348-.14027-.19647-.30835-.29793-.45958-.30939,.24419-.6237,.48636-.95405,.72179-1.55469,1.10793-3.16798,2.04053-4.83887,2.79834-1.6709,.75781-3.08984,1.13672-4.25584,1.13672-1.47658,0-2.70119-.23289-3.6719-.69922-.97263-.46678-1.74899-1.17529-2.33202-2.12791-.583-.95216-.99121-2.1763-1.2246-3.67287-.2334-1.49561-.34961-3.27393-.34961-5.33449,0-1.5537,.13671-3.14793,.40821-4.78026,.27245-1.63232,.69921-3.11865,1.28221-4.45947,.58302-1.34082,1.3496-2.42871,2.30273-3.26465,.95216-.83545,2.12795-1.25342,3.52734-1.25342,1.98145,0,3.51661,.23291,4.60548,.69922,1.08789,.46631,1.89452,1.01123,2.41895,1.63232,.52442,.62207,.83595,1.23438,.9326,1.83643,.09669,.60303,.14651,1.02051,.14651,1.25342,0,.3501-.02929,.68066-.0879,.99121-.05861,.31152-.15527,.66113-.29102,1.04932-.13671,.38916-.30174,.82617-.49608,1.31152-.19434,.48633-.42774,1.09863-.69921,1.83643-.31153,.85547-.51563,1.71094-.61232,2.56494-.09766,.85547-.24316,1.98242-.4375,3.38135,.34961-.1548,.76758-.42725,1.2539-.81593,.48537-.38818,1.00976-.8452,1.57423-1.3701,.302-.28156,.61418-.57623,.93348-.88019,.06291-.17384,.12463-.34796,.20128-.51874,.42775-.95215,.92383-1.7876,1.48633-2.50684,.56346-.71875,1.13673-1.28271,1.71973-1.69092,.58301-.40771,1.0293-.61182,1.34082-.61182,.42773,0,.9326,.12646,1.51562,.37891,.58301,.25293,1.14648,.59277,1.69141,1.02002,.54297,.42822,1.03908,.91357,1.48634,1.45752,.44629,.54492,.74802,1.12744,.90331,1.74902,.15527,.62209,.12598,1.24414-.08691,1.86523-.21484,.62206-.70995,1.20508-1.48729,1.74904-.03908,0-.01956,.0786,.05858,.23338,.07715,.15576,.24219,.31154,.49513,.46632,.25291,.15573,.59276,.30125,1.02049,.437,.42773,.13672,.97072,.2041,1.63281,.2041,1.94237,0,2.77832-.67969,2.50685-2.04053-.15627-.66016-.60353-1.34959-1.34085-2.06934-.73923-.71873-1.53613-1.4668-2.39059-2.24463-.85548-.77686-1.66113-1.59326-2.41895-2.44824-.75783-.85449-1.23441-1.74902-1.42871-2.68164-.2334-1.16602-.14554-2.23438,.26268-3.20654,.4082-.97119,1.09766-1.80713,2.06934-2.50684,.97072-.69971,2.19531-1.25342,3.67285-1.66162,1.47658-.40771,3.16699-.61182,5.07129-.61182,1.63281,0,3.12794,.12646,4.48926,.37891,1.36034,.25293,2.56541,.61182,3.61426,1.07861,.90309,.40112,1.64503,.8866,2.24585,1.44586-.36835-.66406-.5564-1.49371-.5564-2.49518,0-1.08789,.51562-1.82666,1.54492-2.21533,1.03026-.38818,2.45799-.58301,4.28516-.58301,.15526-.73779,.38768-1.71973,.69922-2.94434,.31152-1.22412,.709-2.39893,1.19531-3.52686,.48537-1.12695,1.0791-2.10791,1.77831-2.94385,.69925-.83545,1.51564-1.25342,2.44827-1.25342m-13.58206,24.48486c-.77831,0-1.5742-.16504-2.39059-.49561-.81544-.32959-1.55472-.72852-2.21484-1.19531-.66116-.46631-1.1758-.9707-1.54495-1.51562-.3701-.54346-.47655-1.04932-.32028-1.51562,.19334-.66016,.19334-1.146,0-1.45752-.19533-.31055-.48732-.46631-.875-.46631-.66113,0-1.09863,.07812-1.31154,.2334-.21387,.15576-.30176,.36963-.26271,.64111,.11719,.58301,.51466,1.21533,1.19533,1.89453,.67967,.68066,1.49609,1.37988,2.44823,2.09863,.95216,.71973,1.97266,1.43848,3.06056,2.15723,1.08789,.71973,2.10838,1.43848,3.06152,2.15674,.95119,.71973,1.76758,1.40918,2.44824,2.06984,.67967,.66113,1.07812,1.26318,1.19531,1.80713,.02545,.11662,.0452,.23274,.06113,.34846,.0132,.14153,.02826,.28256,.04495,.42314-.01166-.14072-.02547-.28165-.04495-.42314-.03935-.42206-.0621-.84856-.0621-1.2811,0-1.39943,.07812-3.15723,.23242-5.27588,.15627-2.11816,.42871-4.22656,.81639-6.3252-1.01541-.349-1.83287-.80762-2.47299-1.36444,.29857,.46674,.5087,.95825,.60876,1.48065,.1162,.58301,.08688,1.22461-.08791,1.92383-.1748,.69971-.44727,1.35107-.81642,1.95312-.36913,.60303-.79686,1.10742-1.28221,1.51562-.48634,.4082-.98145,.6123-1.48634,.6123m37.25098,6.70412c.31152,0,.60255-.1255,.875-.37892,.2715-.25246,.40822-.5923,.40822-1.02003,.03807-1.36034,.06738-2.8369,.08691-4.43065,.01953-1.59326,.14647-3.10889,.37889-4.54736-1.12694,.85547-1.96289,1.98193-2.50681,3.38135-.54395,1.39893-.81544,2.7793-.81544,4.13916,0,1.01122,.16504,1.73975,.49513,2.18604,.33008,.44727,.68944,.67043,1.07809,.67043m86.10355-4.66359c.58301-.19434,1.06836-.4668,1.45801-.81641,.3877-.34961,.69922-.71875,.93262-1.10742,.2334-.38818,.4082-.76709,.52441-1.13721,.11621-.36865,.1748-.67041,.1748-.90332,0-.19385-.03906-.4375-.11621-.729-.07812-.29102-.15625-.43701-.2334-.43701-.31152,0-.6416,.1167-.99121,.34961-.34961,.2334-.66113,.53467-.93262,.90381-.27246,.36963-.49512,.80713-.6709,1.31152-.1748,.50586-.26172,1.04932-.26172,1.63232,0,.2334,.03809,.54492,.11621,.93311m-42.32326,6.06297c0-.03854-.00977-.06737-.02831-.08786-.02054-.01906-.02933-.04787-.02933-.08742v.1167c0,.03906,.01855,.05858,.05763,.05858M93.93533,42.44297c-1.27753,0-3.13844,.40387-4.74883,2.32794-.88522,1.05838-1.63634,2.29715-2.23308,3.68265-.54407,1.26187-.99754,2.59918-1.34734,3.97366-.07091,.27875-.1382,.54681-.20186,.80402-1.12488,.12268-2.09518,.34021-2.93294,.65585-1.35251,.51071-2.36707,1.42496-2.94363,2.59811-.72501-.21909-1.49316-.40439-2.29886-.55417-1.53708-.28506-3.23151-.42947-5.03763-.42947-2.16469,0-4.13956,.24228-5.86983,.72006-1.81604,.50171-3.3732,1.21484-4.62854,2.11972-1.42006,1.02258-2.45695,2.29398-3.08075,3.77805-.45219,1.07693-.65936,2.22104-.62021,3.41663-.77641,.19577-1.44868,.59-1.95569,.93408,.02385-.26105,.03587-.52777,.03587-.79813,0-.40561-.05513-.92252-.18434-1.72833-.1837-1.14438-.72237-2.25281-1.60104-3.29514-.83995-.99475-1.99438-1.79755-3.53079-2.45609-1.48016-.63388-3.37292-.94183-5.78735-.94183-2.14218,0-3.99466,.67236-5.50594,1.99838-1.28201,1.12439-2.31685,2.57913-3.07529,4.32339-.67695,1.55685-1.17828,3.29352-1.4901,5.16187-.29813,1.79239-.44916,3.56631-.44916,5.27415,0,2.20757,.12968,4.15796,.38548,5.79703,.29356,1.88237,.84208,3.48964,1.63023,4.77687,.88647,1.44846,2.09527,2.54745,3.59251,3.26604,1.37342,.65976,3.04589,.99455,4.96992,.99455,1.61363,0,3.41106-.45946,5.49497-1.40459,1.40374-.63664,2.78204-1.39192,4.11292-2.25311,1.05463,.91542,2.2534,1.6537,3.58316,2.20493,1.86276,.77214,3.87906,1.26619,5.99292,1.46844,1.91324,.18303,3.69621,.27582,5.29942,.27582,3.01405,0,5.70496-.32071,7.99792-.9532,2.37315-.65605,4.36693-1.55219,5.92741-2.66403,.43074-.30656,.83263-.62811,1.20506-.96396,.92799,1.25978,2.06213,2.2886,3.37308,3.05965,1.45374,.85507,3.09341,1.28865,4.87347,1.28865,1.93961,0,4.03908-.45825,6.2401-1.36205,1.37698-.56537,2.69846-1.23889,3.94884-2.0118,.27605,.30823,.56786,.59579,.87502,.86214,1.21144,1.04918,2.61386,1.79848,4.16963,2.22815,1.38275,.38164,2.80847,.57506,4.2381,.57506h.10165l.10139-.00687c.85143-.05777,1.74606-.25015,2.65906-.57182,.83253-.29431,1.65656-.67513,2.45232-1.13297,.51596-.29646,1.02135-.62738,1.5097-.98825,.50627,.36172,1.05957,.67451,1.65263,.93335,.85748,.37421,1.79117,.64236,2.77513,.79706,.88629,.14029,1.80901,.21169,2.73932,.21169,1.26935,0,2.61203-.27698,3.99077-.82321,1.19423-.47363,2.39529-1.08476,3.57071-1.81677,.33264-.20718,.66272-.42485,.9894-.65234,.95639,1.14116,2.14383,1.9931,3.53592,2.53427,1.39282,.54155,3.01402,.81616,4.81847,.81616,3.05704,0,4.957-.59973,6.10707-1.46573,1.94286,1.16611,4.39764,1.75723,7.30115,1.75723,1.85164,0,3.86374-.52409,5.98039-1.55766,1.85141-.90504,3.62036-1.98886,5.26015-3.22255,.21878,.22612,.44545,.44261,.67996,.64934,3.01877,2.66331,7.05037,4.01418,11.98184,4.01418,1.86754,0,3.73579-.30659,5.55278-.9113,1.71317-.57069,3.36462-1.32938,4.90942-2.25525,.84323-.50641,1.65472-1.05,2.42792-1.62593,.12048,.1284,.24326,.25404,.3681,.37668,1.44388,1.42171,3.23602,2.53265,5.32394,3.29933,2.01608,.74077,4.33524,1.11647,6.89246,1.11647,2.47028,0,4.98288-.50365,7.46799-1.49699,2.37-.94727,4.55984-2.16357,6.50864-3.61513,1.9953-1.48508,3.65961-3.16545,4.9458-4.99379,1.46515-2.08095,2.20844-4.16258,2.20844-6.18608,0-1.97888-.93576-3.5303-2.56729-4.25644-.93591-.41565-2.07315-.6088-3.58115-.6088-.08865,0-.17807,.00311-.26889,.00946,.00281-.09125,.00424-.18259,.00424-.27411,0-3.20261-1.33908-5.88229-3.87247-7.74945-2.28973-1.68442-5.31033-2.53766-8.98007-2.53766-2.74896,0-5.26553,.36264-7.47974,1.07785-2.29562,.74228-4.27823,1.81763-5.89368,3.19647-.2525,.21533-.49658,.43768-.73175,.66663-.08722-.16763-.17966-.33044-.27734-.48831-.87326-1.40527-1.98947-2.4967-3.32053-3.24869-1.22559-.69186-2.55942-1.13705-3.96536-1.32382-1.16052-.15289-2.22418-.23022-3.16461-.23022-2.51183,0-4.92509,.36108-7.17271,1.07321-2.27785,.7215-4.31499,1.74921-6.05458,3.05453-.73563,.55136-1.41272,1.15189-2.02823,1.79819-.24628-.5835-.58644-1.12946-1.01575-1.62521-.7545-.86957-1.67198-1.58572-2.72885-2.13068-.95889-.49118-1.98225-.85428-3.04884-1.08292-1.03186-.22153-1.92465-.32932-2.72839-.32932-1.70987,0-3.54692,.43268-5.61612,1.32278-.14502,.06247-.28981,.12704-.4346,.19388-.3013-.36392-.66029-.69952-1.07343-1.00024-.89885-.65326-1.96959-1.18066-3.18427-1.56885-1.07437-.34262-2.21648-.59708-3.39642-.75687-1.16321-.15549-2.17039-.23074-3.08424-.23074-1.20767,0-3.01013,.41602-4.73849,2.39783-.72995,.83685-1.39146,1.83994-1.97528,2.99377-.33116-.71625-.84621-1.40625-1.54245-2.06461-.87485-.82544-1.92198-1.58664-3.11467-2.26462-1.15875-.65817-2.41089-1.21021-3.72258-1.64139-1.45033-.47403-2.72789-.7037-3.91042-.7037-1.28745,0-2.37523,.35361-3.23315,1.05099-.6436,.52359-1.15479,1.15976-1.52019,1.89154-.04611,.09222-.09004,.18539-.13176,.27942-2.12476,.10422-4.23595,.73593-6.28514,1.88177-.67979,.38031-1.34029,.79688-1.97949,1.24811,.03922-.3407,.05891-.68094,.05891-1.01981,0-.22421-.0193-.4444-.05763-.65872v-.12558l-.09283-.3645c-.05559-.21811-.1064-.46637-.15111-.73792-.09981-.59576-.26819-1.16544-.50186-1.70175-.3275-.74506-.79004-1.36807-1.37866-1.86066l-.0289-.0238c.15646-.62253,.22955-1.15009,.22955-1.63937,0-1.14893-.33621-2.88071-1.9379-4.60632-.95563-1.02759-2.11411-1.94528-3.44524-2.72971-1.28545-.75687-2.65855-1.36197-4.0822-1.79898-1.50708-.46164-2.82436-.68579-4.02879-.68579h0Zm6.8094,29.50006c.02547-.15604,.05232-.31415,.08054-.47418,.16522-.93631,.36801-1.90491,.60269-2.87857,.02393-.09927,.04816-.19827,.07266-.29688,.24655,.01932,.50339,.02896,.77161,.02896l.02403-.00006c-.22667,.41464-.44048,.83594-.64114,1.26349-.3614,.77042-.66588,1.55917-.91039,2.35724h0Z"/></g></g><g><g><path d="M341.81696,56.05951c-1.60742,0-3.12109-.35596-4.49805-1.05762-1.57129-.80078-2.6543-2.38037-3.21777-4.69531l-.02344-.11572c-.25684-1.5874-.25391-3.08252,.00781-4.44238,.2627-1.36719,.71191-2.56787,1.33301-3.56885,.64551-1.03662,1.4502-1.8667,2.39453-2.46777,.99805-.63525,2.04395-.95703,3.10938-.95703,.75586,0,1.64648,.1123,2.72168,.34277,1.0459,.22412,2.08594,.55371,3.09082,.97998,1.02148,.43457,1.93164,.94287,2.70801,1.51172,.98926,.72754,1.57715,1.58398,1.75098,2.54883,.23535,.96436-.00781,1.91406-.69043,2.68262l-.87109,.87549-.05859,.04834c-.35449,.28857-.69629,.72363-1.01758,1.29297-.39746,.7085-.77441,1.43945-1.11816,2.17139l-.65137,1.23291c-.39258,.83789-.83887,1.56982-1.33398,2.17383-.84082,1.02832-1.76953,1.31201-2.40039,1.36914l-.13477,.00586c-.12305,0-.24609,.00781-.36719,.02295-.23828,.03125-.48633,.0459-.7334,.0459Z" style="fill:#fff;"/><path d="M340.92197,40.25499c.6416,0,1.44434,.10303,2.40723,.30957,.96289,.20605,1.90234,.50488,2.81934,.89404,.91699,.39014,1.71973,.83691,2.40723,1.34082,.6875,.50537,1.07715,1.05518,1.16895,1.65039,.1377,.50537,.02246,.96289-.34375,1.37549l-.75586,.75684c-.50586,.4126-.96289,.98633-1.37598,1.71924-.41211,.73389-.80273,1.49023-1.16895,2.26953l-.61914,1.16895c-.36719,.78027-.75586,1.42139-1.16895,1.92578-.41309,.50488-.87109,.77979-1.375,.8252-.18457,0-.36816,.01172-.55078,.03418-.18359,.02393-.36719,.03467-.5498,.03467-1.37598,0-2.64746-.29785-3.81738-.89404-1.16895-.5957-1.9834-1.8335-2.44092-3.71387-.22998-1.42041-.22998-2.72705,0-3.91992,.229-1.19189,.60693-2.21143,1.13428-3.06055,.52734-.84766,1.16992-1.5127,1.92578-1.99414,.75684-.48145,1.52344-.72217,2.30371-.72217m0-3c-1.35481,0-2.67165,.40068-3.91389,1.19089-1.13632,.7238-2.09901,1.71286-2.86288,2.94069-.72038,1.15997-1.23578,2.53175-1.53311,4.07924-.29536,1.53198-.30063,3.20325-.0153,4.96545l.01874,.11578,.02773,.11397c.6713,2.75897,2.015,4.66919,3.99374,5.67757,1.59001,.81026,3.33264,1.2211,5.17952,1.2211,.31743,0,.63281-.02013,.93738-.0598,.04204-.00511,.10406-.00905,.16321-.00905h.1349l.13435-.0121c.9171-.08264,2.25621-.48169,3.42761-1.91336,.56029-.68414,1.06139-1.49663,1.52969-2.48085l.58762-1.10945,.03355-.06335,.0305-.0649c.32838-.69881,.68825-1.39746,1.0696-2.07657,.29741-.52768,.53902-.76764,.65636-.86336l.11847-.09663,.10805-.10817,.75584-.75684,.06238-.06247,.05861-.06602c.99586-1.12196,1.36891-2.56798,1.03613-3.99136-.18336-.95712-.7444-2.27898-2.32816-3.44318-.87228-.63934-1.88371-1.20515-3.00958-1.68416-1.09451-.46449-2.22617-.82315-3.36606-1.06708-1.17896-.2529-2.17218-.37599-3.03499-.37599h0Z"/></g><g><path d="M316.85212,89.20746c-1.73926,0-3.44824-.60693-5.08105-1.80322-1.57812-1.15625-2.78027-2.62695-3.57324-4.37158l-.04199-.0918s-.30078-.98877-.43652-1.41895c-.18262-.57715-.27539-1.20361-.27539-1.86084-.0459-.69727-.0459-1.7124,.00098-3.01172,.04688-1.26025,.15332-2.70459,.31641-4.29395,.16504-1.59814,.38867-3.31201,.66309-5.0957,.21484-1.39795,.45898-2.81836,.72754-4.23633-.68945-.29834-1.31934-.65283-1.88086-1.06104-1.07129-.77881-1.74219-1.85449-1.94043-3.11182-.60645-3.11963,.99512-4.3501,2.00391-4.80127,1.08008-.48242,2.51465-.75635,4.36523-.83105,.43066-1.27148,.90234-2.48975,1.4082-3.63281,.65625-1.48047,1.37305-2.78906,2.13086-3.88916,.80762-1.17236,1.71973-2.12061,2.71094-2.81738,1.10449-.7749,2.30762-1.16699,3.5791-1.16699,1.48828,0,2.96582,.32129,4.3916,.95459,1.35254,.55127,2.61133,1.33838,3.69824,2.32129,1.20898,1.0957,1.94531,2.32812,2.18848,3.66309,.13574,.53027,.11914,1.17578-.06934,1.82373-.20508,.69287-.6875,1.34717-1.47754,2.00488-.18066,.15967-.37012,.35303-.56738,.58008h.43262c.64258,0,1.2627,.21094,1.79395,.60938,.36328,.27246,.71191,.60498,1.03613,.98779,.32617,.38672,.59961,.79785,.81348,1.22266,.23242,.46582,.37793,.896,.44922,1.32129,.01074,.06885,.01953,.13721,.02734,.20508,.81348-.3291,1.71289-.49512,2.68848-.49512,2.18457,0,3.79199,.27881,4.91211,.85205,1.1377,.58398,1.94043,1.24316,2.45605,2.01611,.36621,.58594,.55859,1.14551,.5918,1.69434,.08887,.47217,.14746,.92529,.17383,1.34766,.02832,.4873,.0127,.96094-.04395,1.41553-.11035,.771-.29785,1.51172-.56348,2.22607-.22559,.60889-.48438,1.3418-.77637,2.19824-.28809,.83838-.60449,1.84668-.94336,2.99902-.33203,1.12793-.65527,2.5459-.96094,4.21436-.07715,.41699-.15234,.84863-.22754,1.2959,.28027-.21484,.61328-.50146,1.00195-.88281,.60254-.59229,1.22559-1.22412,1.86719-1.88965,.03418-.58154,.06738-1.16406,.0918-1.74658,.14453-2.20752,.45703-4.34766,.93164-6.39551,.47754-2.05078,1.05859-3.90088,1.72754-5.50049,.70312-1.68213,1.53418-3.06299,2.46973-4.10352,1.11816-1.24268,2.34961-1.87256,3.66016-1.87256,.76074,0,1.62598,.07568,2.57129,.22412,.92969,.14746,1.8252,.34668,2.66504,.59277,.93945,.27783,1.77441,.67578,2.48145,1.18408,.89551,.64551,1.43262,1.42627,1.59766,2.32227,.01172,.07129,.02051,.14258,.02637,.21387,.3916-.25586,.78906-.49951,1.19336-.72998,2.19141-1.24854,4.24609-1.88184,6.10742-1.88184,2.05664,0,3.78906,.50195,5.14648,1.49121,.66602,.48584,1.19141,1.05615,1.56738,1.69629,.98828-.73633,2.03809-1.36475,3.13965-1.87793,1.86621-.86914,3.59473-1.30957,5.13867-1.30957,1.64453,0,3.03906,.33887,4.14453,1.00732,1.09473,.66309,1.94629,1.53223,2.53027,2.5835,.58203,1.05078,.87695,2.22119,.87695,3.47998,0,1.12646-.1543,2.31348-.45801,3.52783-.28613,1.14551-.64746,2.32812-1.0752,3.51416-.4082,1.13672-.79688,2.24072-1.16016,3.30957-.34766,1.02051-.63379,2.02246-.85156,2.979-.08105,.35645-.13477,.69238-.16016,1.00684,.21094-.13184,.5127-.35352,.91211-.72266,.54688-.50488,1.18262-1.19531,1.88965-2.05273,.36035-.43799,.75488-.94238,1.17676-1.50195-.05078-1.00977-.02734-2.01172,.06836-2.98682,.22559-2.30176,.87598-4.44043,1.93262-6.35449,1.32129-2.43848,3.42188-4.45801,6.23535-5.99072,2.7793-1.51318,6.37598-2.28027,10.68945-2.28027,3.31738,0,5.76172,.66895,7.47363,2.04541,1.7002,1.36816,2.78223,3.23682,3.2168,5.55469,.33203,1.82471,.09375,3.59668-.70508,5.27539-.75586,1.58545-1.88184,3.01172-3.34766,4.24072-1.42285,1.19482-3.14551,2.19971-5.11914,2.98633-1.31836,.52588-2.72266,.93213-4.19727,1.21533,.13574,.16162,.28125,.31055,.4375,.44727,.51172,.45068,1.25586,.71631,2.21387,.79102,2.42383-.05225,4.58203-.8042,6.5957-2.29736,2.13184-1.58057,4.04785-3.5376,5.69531-5.81641l.07129-.09863,.08691-.08594c.24512-.24414,.55371-.43359,.94336-.57959,.35059-.13184,.69043-.19873,1.00781-.19873,1.4707,0,2.58887,.44873,3.32227,1.33398,.49805,.60498,1.03418,1.65332,.77051,3.23242-.31641,1.74414-1.11914,3.52051-2.39062,5.30127-1.2334,1.72656-2.82715,3.31006-4.7373,4.70654-1.89453,1.38525-4.08105,2.52832-6.49707,3.39795-2.44531,.88037-5.0459,1.32666-7.72949,1.32666-1.93066,0-3.76855-.26562-5.46289-.78906-1.71191-.52881-3.2627-1.29834-4.60645-2.28809-1.09375-.80469-2.06348-1.75244-2.89062-2.82568-.26562,.25977-.53809,.51611-.81641,.76855-1.5498,1.40332-3.24023,2.61621-5.02734,3.60547-1.91504,1.06006-3.80176,1.59766-5.60938,1.59766-2.44727,0-4.55469-.47949-6.2627-1.42578-1.89258-1.04834-3.05762-2.66895-3.46289-4.81641-.27344-1.40967-.15918-3.02979,.33887-4.80859,.44238-1.58594,.92676-3.12305,1.44043-4.56787,.33301-.94043,.63184-1.80518,.89453-2.59375-.53027,.48633-.96973,1.08447-1.3418,1.81543-.60449,1.18896-1.07227,2.49512-1.3877,3.88281-.32617,1.43359-.5459,2.90869-.6543,4.38428-.11523,1.56152-.21777,2.93848-.31055,4.13184-.08496,1.97314-1.02637,2.87695-1.80176,3.2793-.8457,.4375-1.93652,.6499-3.33789,.6499-1.85547,0-3.58105-.27051-5.13086-.80371-1.83594-.63232-3.14746-2.02148-3.79297-4.01709l-.06543-.20312-.00586-.21289c-.0498-1.63184,.12402-3.35303,.5166-5.1167,.37012-1.67139,.77148-3.2627,1.19043-4.729,.25488-.88867,.49512-1.7085,.72363-2.46045-.17969,.24268-.34863,.50977-.50684,.80225-.54199,1.00098-.99805,2.13867-1.35645,3.38037-.37207,1.29248-.6709,2.62256-.88867,3.95312-.22949,1.3916-.43457,2.70068-.61523,3.93066l-.27734,1.79785c-.14648,.95312-.54492,1.71924-1.18359,2.27686-.30078,.30273-.75684,.59277-1.29492,.80225-.33496,.15039-.78809,.26123-1.52539,.37549-.41602,.06396-.86328,.09619-1.33105,.09619-.33789,0-.69238-.01611-1.0625-.05029-.92676-.08398-1.89453-.36182-2.87695-.82471-1.07812-.50781-2.00293-1.34912-2.75-2.50049-.16504-.24023-.32129-.49023-.46582-.74756-.63086,.48535-1.26465,.92822-1.91016,1.33691-1.38184,.87207-2.78125,1.59619-4.16113,2.15186-1.48242,.59717-2.8623,.8999-4.10254,.8999-2.53906,0-4.38281-.50732-5.63672-1.55078-.75488-.62891-1.36426-1.48291-1.82227-2.55127-.36035,.26172-.73047,.51709-1.11035,.76416-1.05078,.68506-2.15527,1.28027-3.28125,1.76953-1.12793,.48926-2.2793,.88525-3.42383,1.17725-1.19434,.30518-2.37207,.45996-3.50098,.45996Zm4.8877-10.69141c.10156,.03906,.21191,.05762,.33887,.05762,.29004,0,1.44238-.20654,4.09766-2.86182,.15625-.15674,.33203-.35498,.53027-.59082,.11328-.13574,.22754-.28027,.34277-.43164,.01855-.76562,.07617-1.63916,.17383-2.60547,.11719-1.18213,.29688-2.42725,.5332-3.69971,.23926-1.29346,.56738-2.59375,.97461-3.86426,.06348-.1958,.12891-.38916,.19727-.58057-.71777,.19824-1.38574,.32227-1.98926,.36816-.50781,.04688-1.0957,.08301-1.74512,.10645-.24023,.00928-.47559,.02002-.70605,.03271-.36523,1.11426-.69824,2.23047-.99512,3.3291-.37891,1.40283-.70703,2.77393-.97656,4.07422-.26855,1.29785-.4834,2.49463-.6377,3.55664-.14941,1.01807-.22461,1.87061-.22461,2.53516,0,.10303,.01465,.28516,.08594,.57422Zm88.75098-13.34131c-.15723,.04834-.33008,.14258-.5166,.28223-.41113,.30859-.80371,.73975-1.16309,1.28076-.37207,.55713-.67773,1.24023-.91016,2.03223-.06348,.21729-.11914,.43994-.16504,.66699,.07617-.03467,.15137-.07178,.22559-.11133,.60547-.3208,1.11816-.72314,1.52051-1.19482,.41016-.48193,.70312-.98096,.89648-1.52295,.16602-.47021,.22363-.88477,.1709-1.229-.01562-.06348-.03516-.13281-.05859-.2041Z" style="fill:#fff;"/><path d="M321.52891,43.21202c1.28271,0,2.54443,.27539,3.78223,.8252,1.23779,.50537,2.33839,1.19289,3.30128,2.06348,.96239,.87158,1.53514,1.81152,1.71922,2.81934,.09131,.36766,.0791,.74608-.03467,1.13477-.11475,.39014-.44678,.81445-.99707,1.27246-.78027,.6875-1.60547,1.76562-2.47559,3.23242h3.30078c.32031,0,.61916,.10301,.89404,.30907,.2749,.20656,.53857,.459,.79102,.75684,.25146,.29836,.45752,.60791,.61865,.92824,.16017,.3213,.26367,.61914,.30957,.89404,.13771,.91747,.02246,1.69678-.34375,2.33838-.36768,.64258-.85985,1.18066-1.47852,1.6162-.61914,.43605-1.30666,.76808-2.06349,.99709-.75633,.22998-1.43309,.36719-2.02831,.4126-.50539,.04637-1.06592,.08057-1.68506,.10303-.61914,.02393-1.20361,.05812-1.75391,.10303-.50488,1.46826-.95168,2.92285-1.34082,4.3672-.39014,1.44432-.72217,2.83153-.99707,4.16063-.27539,1.33057-.49316,2.54443-.65332,3.64502-.16113,1.10008-.24074,2.01807-.24074,2.75098,0,.2749,.04494,.59619,.13722,.9624,.09131,.41309,.30957,.71143,.65331,.89404,.34427,.18408,.72218,.27539,1.1348,.27539,1.23827,0,2.9575-1.10057,5.15819-3.30127,.18262-.18262,.38867-.4126,.61865-.68752,.229-.27538,.45801-.57274,.68799-.89403,0-.8252,.05664-1.81055,.17188-2.95703,.11377-1.14551,.28566-2.33836,.51561-3.57617,.22902-1.2383,.53859-2.46436,.92874-3.67969,.38864-1.21387,.89403-2.31445,1.51268-3.30078,.61916-.98535,1.35207-1.77637,2.20068-2.37256,.84764-.5952,1.86816-.89404,3.06053-.89404,1.92578,0,3.33498,.22998,4.22952,.68752,.89354,.45897,1.52342,.96289,1.89061,1.51317,.22949,.36768,.34473,.71143,.34473,1.03174,.09082,.45851,.14746,.8833,.17188,1.27197,.02246,.39014,.01074,.76855-.03516,1.13477-.09178,.64258-.25195,1.27246-.48145,1.89111-.22949,.61914-.49316,1.36475-.79004,2.23535-.29883,.87158-.61914,1.89111-.96289,3.06006-.34373,1.16942-.67773,2.62547-.99707,4.36719-.09277,.50487-.18456,1.03175-.27541,1.58154-.09276,.55029-.18358,1.12402-.27538,1.71924,0,.27539,.18262,.41309,.55078,.41309,.87012,0,1.97072-.65381,3.30078-1.96045,.73145-.71906,1.49371-1.49536,2.28101-2.3185,.0462-.77415,.0932-1.54822,.12622-2.32359,.13771-2.10791,.43652-4.14844,.89355-6.12061,.45898-1.9707,1.00783-3.72412,1.65039-5.26074,.6416-1.53564,1.37598-2.76172,2.20117-3.6792,.82521-.91699,1.67285-1.37549,2.54491-1.37549,.68752,0,1.46681,.06885,2.33789,.20605,.87013,.1377,1.69533,.32129,2.4756,.55029,.7793,.22998,1.45508,.55029,2.0293,.96289,.57227,.4126,.9043,.87158,.99707,1.37549,.04492,.2749-.01172,.58447-.17188,.92822-.16115,.34377-.35645,.71143-.58496,1.10057-.22949,.38966-.45898,.81447-.6875,1.27199-.23047,.45898-.39062,.96289-.48145,1.51318,1.60449-1.74219,3.39258-3.17432,5.36426-4.29834,1.9707-1.12305,3.7588-1.68506,5.36426-1.68506,1.74121,0,3.16309,.40186,4.26367,1.20361,1.10057,.80273,1.65039,1.84618,1.65039,3.12939,1.37596-1.32959,2.8994-2.38379,4.57324-3.16357,1.67285-.7793,3.1748-1.16943,4.50488-1.16943,1.375,0,2.49805,.26465,3.36914,.79102,.87109,.52783,1.53613,1.20361,1.99512,2.02879,.45703,.82521,.6875,1.74269,.6875,2.75099,0,1.00879-.1377,2.063-.41309,3.16357-.27441,1.1001-.61816,2.22411-1.03125,3.36963-.41211,1.14648-.80273,2.25879-1.16895,3.33545-.36719,1.07764-.66504,2.12109-.89453,3.12891-.22949,1.00928-.27441,1.90334-.13672,2.68213,.09082,.32129,.29688,.48146,.61816,.48146,.32031,0,.71094-.10304,1.16992-.30959,.45703-.20605,.98535-.58447,1.58105-1.13477,.5957-.5498,1.27246-1.28271,2.0293-2.2007,.4671-.56635,.98853-1.24095,1.55237-2.00023-.08521-1.09827-.0791-2.19672,.02869-3.29517,.20605-2.10791,.79004-4.03369,1.75293-5.77686,1.19238-2.20068,3.07129-3.99951,5.63965-5.39844,2.56738-1.39793,5.89062-2.09766,9.97168-2.09766,2.93359,0,5.1123,.57176,6.5332,1.71436,1.4209,1.14307,2.31445,2.69678,2.68262,4.66211,.27441,1.50879,.0791,2.95947-.58496,4.35449-.66504,1.39455-1.65039,2.64014-2.95703,3.73582-1.30664,1.09718-2.87793,2.01173-4.71094,2.7422-1.83398,.73193-3.82812,1.2124-5.9834,1.43994,.41309,1.14355,1.00879,2.05713,1.78809,2.74268s1.83398,1.07422,3.16406,1.16553c2.75098-.04492,5.26074-.91016,7.53027-2.59373,2.26953-1.68262,4.27441-3.73097,6.01758-6.14209,.09082-.09035,.22852-.16994,.41211-.23878s.34473-.10303,.48145-.10303c1.00879,0,1.73047,.26418,2.16699,.79102,.43457,.52736,.58398,1.20311,.44629,2.02881-.27441,1.5127-.98633,3.07178-2.13184,4.67627-1.14648,1.60547-2.61328,3.06006-4.40137,4.36719-1.78809,1.30663-3.82812,2.37256-6.12012,3.19775-2.29297,.8252-4.7002,1.23779-7.22168,1.23779-1.78809,0-3.46191-.24071-5.01953-.72217-1.55957-.48143-2.94629-1.16895-4.16113-2.06299s-2.24707-1.9707-3.09473-3.23244c-.16986-.25224-.32111-.51335-.46979-.77574-.62878,.70264-1.30829,1.38544-2.039,2.04822-1.46875,1.33008-3.0498,2.46484-4.74609,3.4043-1.69629,.93896-3.32422,1.40967-4.88281,1.40967-2.2002,0-4.0459-.4126-5.53613-1.23779-1.49025-.82568-2.39551-2.08594-2.71582-3.78271-.23048-1.19141-.12695-2.56689,.30959-4.12598,.43456-1.55812,.90428-3.04883,1.40915-4.47023,.50392-1.42088,.92874-2.67039,1.27248-3.74803,.34375-1.07664,.35449-1.72998,.03418-1.95996-.14616-.10419-.29233-.15633-.4384-.15633-.17502,0-.3499,.07486-.52449,.22469-.32129,.27539-.61816,.50537-.89355,.68799-1.10059,.6875-1.9834,1.68506-2.64746,2.9917-.66504,1.30664-1.16895,2.71632-1.51367,4.22949-.34375,1.5127-.57323,3.04932-.6875,4.60742-.11522,1.55908-.21777,2.93457-.30957,4.12645-.0459,1.05519-.37793,1.74171-.99707,2.063-.61916,.32031-1.50195,.48145-2.64746,.48145-1.69727,0-3.24414-.24071-4.64258-.72217-1.39844-.48143-2.34962-1.50098-2.85352-3.06006-.0459-1.51318,.11426-3.09473,.48145-4.74559,.36621-1.65041,.75586-3.19777,1.16895-4.64211,.41309-1.44385,.79102-2.70459,1.13477-3.78223,.34373-1.07666,.46973-1.84521,.37793-2.30371-.5957,.13721-1.19238,.38965-1.78809,.75635-.91699,.59619-1.67383,1.44434-2.26955,2.54443-.59569,1.10059-1.08885,2.32764-1.4785,3.6792-.38965,1.35301-.69922,2.72852-.92773,4.12648-.23047,1.3989-.43652,2.71628-.61914,3.95409-.09277,.59666-.18359,1.19287-.27541,1.78809-.09178,.59668-.32126,1.05566-.68748,1.37549-.23047,.229-.52734,.41261-.89453,.55029-.18359,.09131-.57326,.18262-1.16895,.27489-.34087,.05254-.70824,.07884-1.10181,.07884-.29425,0-.60316-.01471-.92651-.04416-.75684-.06883-1.54785-.29883-2.37303-.68799-.82521-.38867-1.53615-1.04199-2.13184-1.95996-.5118-.74878-.88979-1.5351-1.1487-2.3526-1.03577,.91656-2.1241,1.75598-3.28685,2.4903-1.30666,.8252-2.6133,1.50243-3.91994,2.02881-1.30663,.52637-2.48828,.79103-3.54199,.79103-2.15576,0-3.71385-.40189-4.67674-1.20363-.96289-.80176-1.62794-2.12012-1.99416-3.95459-.8252,.73389-1.73145,1.42186-2.7168,2.06349-.98633,.64256-2.00586,1.19237-3.06006,1.65038-1.05518,.45752-2.12109,.8252-3.19775,1.10008-1.07814,.27541-2.12158,.4131-3.12939,.4131-1.42139,0-2.81934-.50537-4.19482-1.51318s-2.40723-2.26953-3.09473-3.78223c-.1377-.45801-.27539-.90479-.41261-1.34131-.13768-.43506-.20651-.9048-.20651-1.40967-.04494-.73291-.04494-1.71924,0-2.95752,.04637-1.23779,.1494-2.63576,.30956-4.19482,.16113-1.55811,.37842-3.23242,.65334-5.02051,.27489-1.78809,.5952-3.59863,.96289-5.43262-1.05519-.32031-1.95998-.75684-2.71681-1.30664-.75635-.55029-1.20312-1.26074-1.34082-2.13232-.32031-1.65038,.05811-2.71631,1.13477-3.19774,1.07764-.48146,2.69287-.72218,4.84814-.72218,.50389-1.604,1.06592-3.10545,1.68506-4.50439,.61914-1.39796,1.2832-2.61328,1.99461-3.645,.70998-1.03127,1.48927-1.84474,2.33789-2.44142,.84816-.59521,1.75392-.89404,2.71681-.89404m84.52002,28.12793c.96191-.04543,1.83301-.27541,2.61328-.68799,.77832-.4126,1.43164-.92822,1.95996-1.54736,.52637-.61865,.91602-1.28271,1.16895-1.99414,.25098-.71045,.33203-1.36377,.24023-1.95996-.0918-.4126-.21777-.76758-.37793-1.0659-.16113-.29787-.4707-.44728-.92871-.44728-.5498,0-1.09961,.20654-1.65039,.61914-.5498,.41261-1.05469,.9624-1.5127,1.65039-.45898,.6875-.8252,1.50195-1.10059,2.44142-.27539,.93993-.41211,1.93748-.41211,2.99168m-84.52002-31.12793c-1.58623,0-3.08009,.48395-4.44014,1.4384-1.13948,.80121-2.17688,1.87593-3.08559,3.19588-.80998,1.17467-1.57301,2.56528-2.2666,4.13135-.39595,.89464-.77194,1.83342-1.12436,2.80672-1.56982,.13629-2.85349,.43275-3.88956,.89563-3.46579,1.54973-3.08731,5.26854-2.86581,6.45723,.27199,1.63513,1.14619,3.03052,2.53061,4.03778,.34113,.2478,.70267,.47821,1.08328,.69058-.19147,1.06088-.36858,2.11981-.52954,3.16695-.27939,1.81718-.50557,3.55589-.67226,5.16779-.16599,1.61568-.27472,3.09236-.32336,4.39107-.04741,1.30635-.0479,2.34277-.00154,3.1674,.00899,.77484,.1252,1.52036,.34578,2.2173,.13179,.41928,.26579,.85408,.3998,1.29982l.0582,.19359,.08363,.18402c.90041,1.98112,2.26396,3.65021,4.05278,4.96086,1.89569,1.38898,3.90361,2.09325,5.96793,2.09325,1.25368,0,2.55637-.17038,3.87189-.50642,1.21964-.3114,2.44734-.73344,3.6487-1.25436,1.12241-.48763,2.22202-1.07249,3.27402-1.74104,.40227,.58955,.86392,1.10181,1.38391,1.53479,1.53403,1.27731,3.69171,1.89821,6.59639,1.89821,1.43323,0,3.00209-.33926,4.66298-1.00833,1.46327-.58948,2.94392-1.35489,4.40085-2.27501,.24051-.15189,.47919-.3082,.71669-.46942,.82918,1.10107,1.82599,1.93016,2.97047,2.46921,1.14,.53764,2.27753,.8614,3.37961,.96164,.41139,.03748,.81468,.05649,1.19826,.05649,.5441,0,1.06854-.03828,1.5587-.11383,.85483-.1324,1.41756-.27339,1.87599-.47354,.68512-.27171,1.28204-.64865,1.77705-1.12221,.49844-.45358,.89449-1.00624,1.17685-1.63667,.88028,1.20628,2.07425,2.08502,3.53647,2.58839,1.70677,.58763,3.59734,.88557,5.61913,.88557,1.64653,0,2.96342-.26721,4.02592-.81689,.71211-.36954,1.80339-1.18513,2.32544-2.85638,.67551,.84915,1.52841,1.56561,2.54431,2.12848,1.9339,1.07085,4.28548,1.61365,6.99007,1.61365,2.06436,0,4.19598-.60054,6.33569-1.78496,1.7681-.97922,3.44632-2.16429,4.99451-3.52641,.64938,.68431,1.35904,1.31059,2.12405,1.8736,1.48013,1.08926,3.18069,1.93486,5.05441,2.51329,1.83649,.56764,3.82336,.85564,5.90442,.85564,2.85696,0,5.62848-.47607,8.23752-1.41501,2.55084-.9184,4.86356-2.129,6.8743-3.59834,2.04007-1.49133,3.74664-3.18892,5.07275-5.04596,1.40103-1.96239,2.28995-3.94205,2.64227-5.88425,.36349-2.17781-.38901-3.63-1.08301-4.47214-.71445-.86238-2.06711-1.88313-4.48212-1.88313-.49805,0-1.01437,.09891-1.53464,.29398-.48764,.18288-.9136,.42873-1.27005,.73257,.75177-1.81624,.95319-3.71921,.59903-5.66641-.50485-2.69521-1.76685-4.86436-3.75375-6.46278-1.98911-1.59949-4.74106-2.37685-8.41364-2.37685-4.56726,0-8.40491,.82864-11.40631,2.46292-2.73749,1.49104-4.86298,3.41661-6.33185,5.73364-.11005-1.19466-.45319-2.31784-1.02417-3.34875-.71567-1.2867-1.74594-2.34189-3.06482-3.14108-1.34659-.81369-3.00214-1.22528-4.92383-1.22528-1.7644,0-3.70627,.48785-5.7717,1.45003-.75208,.35037-1.48181,.75003-2.18619,1.19691-.29976-.30876-.63437-.5984-1.00279-.86713-1.62164-1.18135-3.65047-1.77982-6.03151-1.77982-2.0349,0-4.23457,.64136-6.543,1.90714-.33583-.51837-.81644-1.05217-1.50232-1.54666-.84862-.60977-1.83466-1.08211-2.93463-1.40674-.90511-.26564-1.86452-.47923-2.85585-.63611-1.02415-.1613-1.96777-.24292-2.80679-.24292-1.20587,0-3.01312,.41095-4.7749,2.36873-.9641,1.07188-1.82011,2.44489-2.54852,4.0864-.10651-.23909-.23309-.47624-.37965-.71107l-.02415-.03868-.02533-.03795c-.66107-.99075-1.64742-1.81395-3.01535-2.51662-1.34212-.68645-3.17244-1.01897-5.60025-1.01897-.57474,0-1.12885,.04854-1.661,.14519-.04939-.11356-.1024-.22702-.15898-.34053-.27092-.53864-.60899-1.0479-1.0097-1.52327-.40129-.4735-.83113-.88248-1.28282-1.22186-.10028-.07516-.2027-.14584-.30708-.21198,.30344-.43546,.52245-.88594,.661-1.35704,.25609-.87492,.28645-1.74995,.09154-2.60591-.31932-1.63431-1.20734-3.12045-2.64041-4.41829-1.20779-1.09203-2.59972-1.96619-4.13969-2.6003-1.60558-.70656-3.27322-1.06474-4.95761-1.06474h0Zm4.07007,25.687c.41881-.01871,.81816-.04317,1.19148-.07304-.19797,.75934-.36838,1.52382-.50937,2.28627-.24373,1.31186-.42926,2.59967-.55096,3.82527-.07993,.79504-.13446,1.53397-.16304,2.20747l-.01816,.02191c-.21501,.25697-.35486,.40588-.43333,.48434-.76617,.76617-1.37473,1.29234-1.84435,1.65309,.02612-.21533,.05652-.44165,.09122-.67854,.15074-1.03587,.36012-2.203,.62273-3.47174,.26297-1.27138,.58443-2.61243,.95555-3.98636,.20164-.74844,.42169-1.50671,.65823-2.26868h0Z"/></g></g><g><path d="M272.16759,11.80008c-9.41704-9.73078-24.93438-9.97562-34.65562-.5678-6.5241,6.31377-6.43066,10.48671-13.85105,40.27944-1.09886,4.39402,2.80347,8.41871,7.22737,7.46814,30.03677-6.44202,34.18932-6.21224,40.71151-12.52415,9.73269-9.4189,9.97746-24.93249,.56781-34.65562h-.00002Zm-42.5616,41.1894c7.43026-29.82445,7.1411-32.49038,12.16699-37.35422,7.29424-7.05908,18.93076-6.87036,25.99169,.42578,7.06092,7.29616,6.8684,18.93267-.42585,25.99175-5.00489,4.84353-7.34685,4.41582-37.73282,10.93669h-.00002Z"/><circle cx="254.55589" cy="28.844" r="14.95258" style="fill:#b9cc33;"/><path d="M247.32103,28.96327c-.04562-.33271,.07085-.66151,.30698-.89001l10.22602-9.89633c.41127-.39801,1.07375-.38588,1.47051,.0241l1.92854,1.99279c.39676,.40997,.38719,1.07248-.02409,1.4705l-8.82483,8.54033,.99983,7.0874c.08254,.57337-.31924,1.09283-.8888,1.17671l-2.74768,.38782c-.56307,.0776-1.09031-.31663-1.17416-.88875l-1.27229-9.00452-.00003-.00003Z" style="fill:#fff;"/></g><g><g><path d="M224.13279,97.6795c-.49951,0-1.00732-.02686-1.50879-.08008-1.36328-.14502-2.64111-.57812-3.79834-1.28857-1.16455-.71484-2.1748-1.74365-3.00293-3.05713-.81299-1.28857-1.39258-2.95654-1.72266-4.95752-.32715-1.9834-.17871-4.10303,.44189-6.30078,.60107-2.12891,1.53613-4.16406,2.7793-6.04932,1.24365-1.8833,2.74072-3.53027,4.45117-4.89502,1.78809-1.42627,3.71924-2.31885,5.74023-2.65234,.13525-.02246,.27246-.0415,.41113-.05811,.0293-.38086,.10107-.75732,.21436-1.12354,.17676-.57031,.46973-1.08984,.87207-1.54443,.49512-.55908,1.2085-.91846,2.12061-1.06885,.43896-.07275,.91602-.10938,1.41846-.10938,.62158,0,1.3042,.05664,2.02881,.16797,1.24902,.19336,2.45947,.50439,3.59961,.92432,1.15723,.42676,2.19189,.94482,3.07568,1.54004,1.13818,.76904,1.79688,1.65723,1.95996,2.64209,.15332,.93262,.30273,2.60352,.45703,5.10986,.09863,1.60156,.06543,3.51074-.09863,5.70361,.07129-.1001,1.50049-2.15674,2.37549-3.42383,.78809-1.1001,1.67188-1.72803,2.6416-1.88867,.13184-.02148,.26025-.03174,.3877-.03174,.46533,0,.91162,.13379,1.32715,.39795,.3042,.1958,.59473,.42578,.86816,.6875,.27051,.25977,.52246,.55029,.75049,.86426,.23779,.3291,.41113,.62939,.52832,.91699,.11084,.24121,.19238,.53467,.25488,.91309,.14551,.8833,.04541,1.86426-.30615,2.99854-.31152,1.00732-.7915,2.05811-1.42627,3.12305-.60986,1.02344-1.33838,2.06494-2.16553,3.0957-.83789,1.0459-1.74854,2.00293-2.70654,2.84375-.95898,.84229-1.95654,1.57666-2.96533,2.18213-1.09229,.65625-2.1792,1.07715-3.23145,1.25146-.82861,.13672-1.65918,.2085-2.47021,.21387h-.00439c-.90625,0-1.70117-.0957-2.44775-.28467-.80664-.2041-1.54834-.52588-2.20654-.95605-.06494-.04248-.12891-.08643-.19141-.13135-.05811,.0708-.11719,.14111-.17773,.21143-.54346,.62939-1.13672,1.20801-1.76318,1.72021-.62988,.51514-1.29541,.9668-1.97705,1.34277-.72168,.39648-1.43652,.6792-2.12549,.84131l-.09961,.02002c-.76318,.12598-1.53955,.18945-2.30811,.18945Z" style="fill:#b9cc33;"/><path d="M232.54907,65.99439c.54874,0,1.14931,.0502,1.80171,.15036,1.15253,.17896,2.256,.46191,3.30858,.8497,1.05266,.38828,1.97093,.84741,2.75661,1.37665,.78481,.52988,1.22377,1.0769,1.31718,1.64294,.14333,.8685,.29031,2.52048,.44014,4.957,.14991,2.43698-.01666,5.59436-.50059,9.47272,.29533-.08719,.58128-.23129,.85878-.43243,.27672-.20004,.61991-.52844,1.02973-.98419,.40904-.45465,.89585-1.08725,1.46036-1.89822,.56379-.80942,1.28349-1.84857,2.15996-3.11816,.53518-.74673,1.08619-1.16736,1.65224-1.26077,.04811-.00793,.09598-.0119,.14358-.0119,.17663-.00003,.34994,.05463,.52138,.16367,.21574,.13876,.42859,.30719,.63563,.50531,.20712,.19861,.39848,.41977,.57377,.66162,.17537,.24231,.29811,.45483,.36709,.63678,.05568,.10721,.1068,.29306,.15031,.55664,.106,.6424,.01978,1.41241-.2586,2.31061-.2783,.89865-.70579,1.83163-1.28248,2.79901-.57668,.96738-1.25915,1.94293-2.04669,2.92514-.78746,.98267-1.62998,1.86777-2.52661,2.65515-.89751,.78802-1.81378,1.46225-2.74773,2.02353-.9349,.5614-1.83613,.9137-2.7037,1.05685-.75568,.12473-1.50084,.18924-2.23539,.19406l-.07202,.00027c-.70948,0-1.37671-.08072-2.00304-.23929-.64748-.16391-1.23162-.4162-1.7525-.75732-.52168-.34003-.92618-.7963-1.21453-1.36914-.25221,.58463-.62297,1.15909-1.11117,1.72421-.48813,.56561-1.01322,1.07837-1.57709,1.53909-.56379,.46121-1.14794,.85809-1.7515,1.19046-.60458,.33209-1.18586,.56339-1.74557,.69519-.68573,.11316-1.37381,.16971-2.06392,.16971-.44922,0-.89922-.02393-1.35028-.07181-1.14503-.12173-2.20146-.47968-3.17243-1.07526-.97002-.59573-1.81008-1.45444-2.51866-2.57886-.70835-1.12296-1.21251-2.59033-1.51145-4.40179-.2926-1.77304-.15729-3.65616,.40507-5.64871,.56252-1.99161,1.4263-3.86929,2.58871-5.6312,1.1625-1.76138,2.54088-3.27695,4.13389-4.5484,1.59222-1.27036,3.27481-2.05206,5.04881-2.34482,.43029-.07101,.87942-.10666,1.3473-.10666,.10637,0,.21365,.00183,.32197,.00552-.00558-.26984-.01113-.5986-.0166-.98584-.00625-.38614,.0483-.76379,.162-1.13123,.11363-.36792,.30065-.6983,.56251-.99426,.26107-.29483,.67506-.48929,1.24111-.5827,.36069-.05954,.75208-.08923,1.17414-.08923m-2.95024,19.90518c.05336,0,.10656-.00436,.15962-.01312,.30246-.04993,.56491-.21838,.78884-.50809,.22314-.2886,.30143-.64047,.23289-1.05576-.18099-1.32687-.38913-2.7652-.62553-4.3157-.23632-1.55005-.35591-3.04193-.36073-4.4758-.9571,1.01114-1.58823,2.23877-1.89213,3.68466-.30397,1.44537-.34639,2.8291-.1285,4.14941,.16203,.98181,.43899,1.66269,.83098,2.04309,.33699,.32776,.66849,.4913,.99456,.4913m2.95024-22.90518c-.58358,0-1.143,.04349-1.66275,.1293-1.26089,.20807-2.26979,.73087-2.99851,1.5538-.54564,.6167-.94336,1.3222-1.18291,2.09781-.02729,.08823-.05273,.17694-.07628,.26602-2.04304,.44583-3.98846,1.39844-5.7918,2.83722-1.8338,1.46362-3.43741,3.22681-4.76672,5.24094-1.3286,2.01382-2.32841,4.18991-2.97192,6.46829-.68062,2.41156-.84138,4.75058-.47798,6.95264,.36301,2.19974,1.01372,4.05487,1.93404,5.51385,.95054,1.50836,2.12365,2.698,3.48604,3.5347,1.35038,.82831,2.83878,1.33337,4.42525,1.50204,.55431,.05884,1.11513,.08862,1.66745,.08862,.85033,0,1.70909-.07056,2.55242-.20975l.10026-.01654,.09892-.02328c.82167-.19351,1.66354-.52521,2.50221-.98587,.76366-.42056,1.50516-.92398,2.20671-1.49789,.44605-.36447,.8769-.75955,1.28722-1.18018,.54351,.2644,1.12341,.47543,1.73231,.62958,.86766,.21967,1.78929,.33102,2.73927,.33102l.09447-.00037c.88602-.0058,1.79586-.08453,2.70146-.23401,1.23832-.20435,2.50326-.69049,3.7596-1.44489,1.08613-.65274,2.15664-1.44022,3.18267-2.34113,1.02448-.89963,1.99619-1.9202,2.88832-3.03348,.86933-1.08423,1.63745-2.18295,2.28249-3.26501,.69547-1.16663,1.22415-2.3266,1.57134-3.44766,.42198-1.36154,.53747-2.56763,.35284-3.68649-.0826-.5004-.19783-.90854-.3586-1.26627-.16211-.38962-.38827-.78284-.68849-1.19766-.28186-.38889-.59357-.74768-.92768-1.06805-.34463-.32977-.71029-.61945-1.08907-.86307-.6633-.42194-1.40032-.64059-2.1443-.64059-.21103,.00006-.42352,.01755-.63219,.052-1.17177,.19336-2.22418,.82492-3.13629,1.88028-.00984-.302-.02359-.59653-.04124-.88348-.15736-2.55902-.31258-4.28003-.47452-5.26129-.23246-1.40869-1.10671-2.63364-2.59843-3.64081-.98485-.66339-2.1269-1.23639-3.39713-1.70493-1.23346-.45441-2.54068-.79059-3.88646-.99954-.80519-.1236-1.56452-.18588-2.26202-.18588h0Z" style="fill:#231f20;"/></g><g><path d="M254.09813,92.05401c-.71777,0-1.40576-.06836-2.04492-.20312-1.36523-.28662-2.57129-.93799-3.58398-1.93652-.95215-.93555-1.75684-2.20508-2.38965-3.77295-.59717-1.48145-1.08057-3.33203-1.43848-5.50195-.31348-1.90039-.44092-3.85645-.37842-5.81445,.06348-1.96875,.28418-3.77393,.65527-5.36621,.38525-1.66064,.94189-3.08691,1.65283-4.2373,.86133-1.39355,1.94385-2.20703,3.21729-2.41748,.81055-.13379,1.76416-.21826,2.83496-.25146,.19434-.00537,.38574-.0083,.57568-.0083,.88428,0,1.75635,.06201,2.5918,.18408,1.08936,.15967,2.06543,.45361,2.90186,.87402,.83105,.41748,1.33057,.94775,1.62793,1.46777,.46045-.36377,.92822-.69775,1.40137-1.00098,1.67285-1.07227,3.25195-1.73633,4.69434-1.97461,.47852-.07861,1.02783-.11865,1.63281-.11865,.24219,0,.49658,.00586,.76318,.01855,.9458,.04541,1.87158,.21143,2.75293,.49316,.94238,.30518,1.78613,.76465,2.51221,1.36768,.8667,.72021,1.39941,1.65137,1.58398,2.76855,.15771,.95508,.13281,2.10107-.07666,3.50293-.18555,1.24268-.41064,2.53467-.66846,3.84082-.09814,.49512-.19482,.979-.29102,1.45068l1.64014-2.82031s.1709-.25049,.33643-.50244c.41797-.63525,1.01904-1.03418,1.73877-1.15381,.19336-.03223,.38135-.04736,.56592-.04736,.54199,0,1.0625,.13037,1.54736,.3877,.52979,.28223,1.00488,.66943,1.41504,1.15186,.35889,.42334,.66455,.87402,.91211,1.34131,.22461,.42627,.40918,.82324,.55859,1.19238l.07568,.1875,.02344,.20117c.13281,1.14746-.28955,2.52246-1.29248,4.20312-.87256,1.46631-2.00391,2.93457-3.3623,4.36279-1.34424,1.4165-2.83789,2.71191-4.43799,3.8501-1.70898,1.21436-3.375,1.96191-4.95312,2.22217-.94189,.15576-1.84668,.23438-2.68848,.23438-1.53027,0-2.91553-.26025-4.11816-.77344-.27148-.11572-.55664-.25928-.84473-.43848-.52344,1.38232-2.33545,2.33545-5.41357,2.84326-.77832,.12842-1.52832,.19336-2.22949,.19385Z" style="fill:#b9cc33;"/><path d="M268.04622,63.47571c.22041,0,.4519,.0058,.6945,.01746,.81972,.03906,1.60863,.1806,2.36649,.42322,.7562,.24435,1.42681,.60751,2.01137,1.09253,.58361,.48514,.93825,1.10547,1.06272,1.85974,.13081,.79266,.10313,1.8053-.08028,3.03696-.18428,1.2323-.40343,2.48935-.65651,3.771-.2538,1.2832-.5013,2.48651-.74134,3.61111-.24185,1.12543-.35566,1.95847-.34349,2.49847,.47689-.15564,1.04928-.51163,1.71339-1.06732,.66418-.55518,1.24191-1.33914,1.73438-2.35056l1.72075-2.95853c.03088-.04306,.14022-.20673,.32631-.48969,.18616-.2825,.42948-.44879,.73194-.49872,.10862-.01791,.21546-.02689,.32048-.02689,.29559,0,.57689,.07095,.84389,.21265,.361,.19269,.68642,.45892,.97523,.79843,.28794,.34012,.5309,.69693,.72905,1.07135,.1972,.37457,.36126,.7254,.49313,1.05234,.09288,.79892-.27016,1.88638-1.09024,3.26157-.81897,1.37601-1.87238,2.742-3.16125,4.09766-1.28776,1.35648-2.69537,2.57687-4.22078,3.66183-1.52731,1.0853-2.96886,1.74005-4.32756,1.96426-.86556,.14285-1.68035,.21426-2.44376,.21426-1.3331,0-2.50997-.21765-3.52996-.65286-1.60609-.68457-2.57992-2.0647-2.92243-4.14023-.16187-.98087-.19821-2.02139-.10806-3.12177,.08927-1.09976,.22351-2.11002,.40161-3.03156,.17635-.92032,.35096-1.68594,.52208-2.29565,.16849-.60345,.23497-.90515,.20039-.90518l-.00107,.00009c-.52926,.55243-.97188,1.21667-1.32795,1.99228-.35686,.77673-.63028,1.58691-.82003,2.43198-.19061,.8457-.30286,1.6882-.33872,2.52737-.03578,.83963-.00125,1.57999,.10452,2.22095,.20553,1.24542,.66289,2.48822,1.37097,3.72763,.01252,.07584,.0328,.13971,.06115,.19345,.02827,.05328,.04871,.1181,.06115,.19348,.19293,1.16907-1.23888,2.00681-4.29479,2.51111-.70164,.11578-1.36374,.17368-1.98641,.17368-.61677,0-1.19485-.05676-1.7346-.17029-1.08365-.22781-2.03216-.74039-2.84056-1.53714-.81029-.79642-1.49342-1.88461-2.05159-3.26611-.55611-1.38089-1.00685-3.10886-1.34945-5.18484-.29886-1.81097-.4186-3.65201-.35914-5.52258,.06049-1.8703,.26454-3.56119,.61696-5.07303,.35061-1.51102,.84048-2.77429,1.4678-3.78897,.62652-1.01355,1.35543-1.58969,2.18602-1.72675,.75378-.12439,1.63229-.2012,2.63626-.23199,.17704-.00513,.35307-.00769,.52798-.00769,.81532,0,1.60745,.05582,2.37662,.16827,.93228,.13687,1.74868,.38004,2.44633,.72998,.69671,.3501,1.09596,.8277,1.19548,1.43073,.04991,.30246,.02235,.54855-.08144,.74002-.10465,.19211-.21792,.38513-.34067,.57974-.12275,.19458-.25177,.41019-.3873,.64539-.13545,.23566-.19555,.52655-.17652,.8721,1.36118-1.61984,2.79489-2.91226,4.30187-3.87878,1.50713-.96555,2.88403-1.5517,4.12896-1.75714,.39873-.0658,.86089-.09882,1.38612-.09882m4.42917,16.75577l.01503-.00131c-.00618-.03745-.02028-.06384-.04158-.08078-.02296-.0152-.03611-.04178-.04245-.08017l.0187,.11331c.00538,.03256,.02174,.04895,.0503,.04895m-4.42917-19.75577c-.69522,0-1.3084,.04541-1.87459,.13885-1.6666,.27502-3.38678,.9917-5.25881,2.19104-.12092,.07755-.24139,.15686-.36152,.23798-.34722-.2977-.74341-.56-1.18457-.78171-.98188-.49249-2.11088-.83453-3.35757-1.01755-.9088-.13287-1.85442-.2001-2.81239-.2001-.2037,0-.4087,.00296-.61487,.00894-1.15629,.03546-2.14832,.12399-3.03783,.27078-1.18233,.1951-2.87933,.89291-4.24939,3.10931-.79714,1.28937-1.41568,2.86679-1.83833,4.68826-.39282,1.68515-.62622,3.5885-.69303,5.65414-.06543,2.05847,.06836,4.11295,.39761,6.10806,.37595,2.27811,.88957,4.23523,1.5266,5.81705,.71203,1.76233,1.63061,3.20294,2.73147,4.28497,1.21757,1.20001,2.67413,1.98605,4.32628,2.3334,.73966,.15558,1.531,.23447,2.35181,.23447,.78297,0,1.61566-.0719,2.47493-.21371,1.91022-.31525,3.34675-.7655,4.39161-1.37653,.50134-.29318,.93187-.63882,1.28529-1.02472,1.32757,.52438,2.82523,.79019,4.45572,.79019,.92319,0,1.90974-.08557,2.93226-.2543,1.80498-.29785,3.6813-1.13184,5.57679-2.47876,1.67921-1.19434,3.24628-2.55396,4.65876-4.04181,1.43404-1.50833,2.63348-3.06622,3.56349-4.62881,1.19287-2.00031,1.66746-3.63501,1.49222-5.14233l-.04664-.40121-.15109-.37457c-.17009-.42169-.37894-.86838-.62074-1.32767-.30076-.56833-.66782-1.10886-1.09399-1.61221-.53704-.63132-1.15867-1.13641-1.85222-1.50659-.7099-.37677-1.46697-.56607-2.25655-.56607-.26765,0-.53977,.02252-.80882,.06689-.33061,.05457-.64823,.14841-.94835,.2785,.15348-1.29404,.1503-2.39749-.00849-3.35971-.2413-1.46222-.96917-2.73413-2.10494-3.67828-.87654-.72726-1.88742-1.27853-3.00669-1.6402-1.01375-.32455-2.06966-.51385-3.14613-.56516-.29177-.01401-.57123-.02084-.83729-.02084h0Z" style="fill:#231f20;"/></g><g><path d="M287.80369,86.84893c-2.92773,0-5.41162-.70996-7.38281-2.10938-2.74219-1.9458-4.57227-5.59668-5.43945-10.85156-.22266-1.35059-.16064-2.84912,.18506-4.4541,.34277-1.59375,.97461-3.13037,1.87695-4.56787,.90576-1.4458,2.09375-2.72559,3.52979-3.80225,1.48291-1.11084,3.27002-1.84521,5.3125-2.18262,.3125-.05127,.6167-.07764,.90381-.07764,.13525,0,.26709,.00586,.39648,.0166-.64502-.8335-1.30029-1.56836-1.95459-2.19189-.90186-.85693-1.74756-1.62793-2.5127-2.28955-.82959-.71582-1.53809-1.38379-2.10547-1.98486-.74609-.78613-1.20361-1.6626-1.35889-2.60254-.21582-1.30664,.11475-2.5835,.98145-3.79443,.72021-1.00488,1.64697-1.92676,2.75537-2.74121,1.06006-.77979,2.20068-1.46289,3.38916-2.03076,1.18652-.56787,2.23096-.97363,3.10254-1.20508l.06934-.01855,.07129-.01172c.30713-.05078,.61963-.07617,.92871-.07617,1.0498,0,2.10693,.29199,3.14258,.86865,1.18701,.66211,2.33887,1.61621,3.42383,2.8374,1.04053,1.17139,2.04297,2.58447,2.98047,4.19922,.91699,1.5791,1.77197,3.27441,2.54102,5.0376,.76904,1.76562,1.43652,3.60645,1.98438,5.47119,.54541,1.85938,.96582,3.67188,1.24854,5.38623,.36914,2.23486,.4248,4.58301,.16602,6.979-.26367,2.43848-.94629,4.76904-2.02832,6.92627-1.1001,2.1958-2.69043,4.12207-4.72656,5.72412-2.06201,1.62305-4.70166,2.70898-7.84668,3.22803-1.27783,.21094-2.50049,.31787-3.63379,.31787Zm2.65283-21.99902c-.05713,.1582-.12305,.31445-.19727,.46973-.30811,.64209-.64746,1.32715-1.01807,2.05713-.32812,.64453-.61719,1.35596-.86035,2.11523-.19434,.60645-.22119,1.34619-.08105,2.19873,.05762,.34912,.18604,.77881,.38086,1.27686,.20264,.51855,.45068,1.01074,.7373,1.46533,.25781,.41162,.54053,.74561,.84277,.99658,.07422,.06152,.12793,.08887,.14795,.08887,.50488-.08154,.84131-.80371,1.03955-1.39502,.39941-1.19531,.43066-2.83936,.09277-4.88672-.26709-1.61914-.63086-3.08887-1.08447-4.38672Z" style="fill:#b9cc33;"/><path d="M290.55253,41.37308c.79549,0,1.59926,.22668,2.41217,.67947,1.04588,.58319,2.05643,1.4245,3.03244,2.5228,.97617,1.09921,1.91155,2.41751,2.80439,3.95612,.8938,1.53845,1.71485,3.16733,2.4638,4.88455,.74808,1.71783,1.38803,3.48276,1.91968,5.29379,.53181,1.81198,.93419,3.54794,1.20818,5.20816,.34877,2.11343,.39971,4.30475,.15469,6.57367-.24581,2.26999-.87176,4.40842-1.87792,6.41479-1.00593,2.00781-2.44392,3.74649-4.31364,5.21799-1.86972,1.4715-4.25763,2.44702-7.16278,2.92645-1.20318,.19855-2.33352,.29785-3.39046,.29785-2.62201,0-4.79352-.61081-6.5139-1.83218-2.41483-1.71356-4.0245-5.00488-4.82783-9.87274-.19293-1.16907-.13548-2.46759,.17154-3.8945,.30711-1.42642,.86728-2.78894,1.68084-4.08563,.81253-1.29703,1.86635-2.43033,3.15958-3.39954,1.29409-.96985,2.8462-1.60391,4.65717-1.90277,.23269-.03839,.45274-.05762,.65974-.05762,1.33742-.00009,2.13845,.80093,2.40261,2.40161,.11203,.67889,.01667,1.33453-.28624,1.96597-.30292,.63147-.6375,1.3071-1.00296,2.02582-.36617,.72031-.68275,1.49915-.95155,2.33728-.26857,.8396-.31261,1.80621-.13212,2.89993,.07479,.45322,.22894,.98001,.4644,1.58057,.23452,.60074,.52201,1.17419,.86499,1.71805,.34125,.5451,.72522,.99503,1.15303,1.35056,.34767,.29001,.71602,.43491,1.10602,.43491,.08892,0,.17889-.00754,.27008-.02258,.98134-.16196,1.71155-.96036,2.1923-2.39691,.47996-1.43549,.52994-3.3045,.15002-5.60663-.37358-2.26373-.92235-4.23752-1.64616-5.92041-.72381-1.68292-1.52618-3.13953-2.40719-4.37039-.88188-1.23019-1.78229-2.28351-2.70116-3.15939-.9206-.87466-1.77587-1.65442-2.56659-2.33817-.7916-.68314-1.4569-1.30917-1.99622-1.88004-.54003-.56931-.86301-1.1749-.96895-1.8168-.14943-.90549,.09103-1.79739,.72113-2.67715,.63018-.87927,1.43773-1.68118,2.4236-2.40585,.98501-.72406,2.03337-1.35339,3.14738-1.88589,1.11393-.53302,2.06115-.90167,2.84122-1.1088,.22754-.03757,.45577-.05634,.68467-.05634m0-3c-.39101,0-.78571,.03244-1.17314,.09637l-.14217,.02347-.13926,.03696c-.97493,.25888-2.07603,.68481-3.36622,1.30219-1.27212,.60806-2.49357,1.33997-3.62931,2.17484-1.23541,.90808-2.27342,1.94284-3.08517,3.07544-1.09204,1.52472-1.52156,3.22342-1.24269,4.91324,.20491,1.24161,.79448,2.38315,1.75236,3.39294,.60798,.64355,1.33313,1.32751,2.21276,2.08664,.74061,.64041,1.56679,1.39313,2.45364,2.23557-1.69116,.44763-3.20634,1.16888-4.51917,2.15277-1.58468,1.18762-2.89776,2.60324-3.90276,4.20752-.9944,1.5849-1.69166,3.28351-2.07131,5.04684-.3854,1.79123-.45223,3.47818-.1987,5.01443,.94791,5.74399,2.92744,9.61389,6.05168,11.83084,2.22947,1.58282,5.00537,2.38559,8.25001,2.38559,1.2153,0,2.52037-.11368,3.87894-.33789,3.39679-.56058,6.26659-1.74786,8.52966-3.52896,2.21115-1.7402,3.94066-3.83682,5.14048-6.23166,1.16188-2.31686,1.89493-4.81891,2.17828-7.43561,.27338-2.53146,.2137-5.0159-.17728-7.3851-.29291-1.77484-.72678-3.647-1.28957-5.56454-.56453-1.92303-1.25347-3.82281-2.04775-5.64673-.79379-1.82004-1.67517-3.56699-2.62031-5.19382-.98657-1.7001-2.0484-3.19476-3.15524-4.44113-1.19703-1.34702-2.48021-2.40689-3.81456-3.15091-1.26235-.70312-2.56507-1.0593-3.8732-1.0593h0Zm-.33494,34.38181c-.04882-.10892-.09503-.21927-.13863-.33093-.207-.52795-.27611-.83917-.29903-.97806-.10008-.60641-.08987-1.12424,.02952-1.49744,.0701-.2186,.14427-.43246,.22229-.64108,.00983,.05759,.01953,.11539,.0291,.1734,.24521,1.48593,.2473,2.5397,.15675,3.27411h0Z" style="fill:#231f20;"/></g></g></svg>